G04 #@! TF.GenerationSoftware,KiCad,Pcbnew,5.1.10-88a1d61d58~88~ubuntu20.04.1*
G04 #@! TF.CreationDate,2021-07-01T12:33:08+02:00*
G04 #@! TF.ProjectId,chamber-board,6368616d-6265-4722-9d62-6f6172642e6b,rev?*
G04 #@! TF.SameCoordinates,Original*
G04 #@! TF.FileFunction,Soldermask,Top*
G04 #@! TF.FilePolarity,Negative*
%FSLAX46Y46*%
G04 Gerber Fmt 4.6, Leading zero omitted, Abs format (unit mm)*
G04 Created by KiCad (PCBNEW 5.1.10-88a1d61d58~88~ubuntu20.04.1) date 2021-07-01 12:33:08*
%MOMM*%
%LPD*%
G01*
G04 APERTURE LIST*
%ADD10C,2.102000*%
%ADD11O,2.132000X1.832000*%
%ADD12C,1.202000*%
%ADD13C,1.802000*%
%ADD14C,3.602000*%
%ADD15C,2.802000*%
%ADD16C,6.102000*%
%ADD17C,0.100000*%
G04 APERTURE END LIST*
G36*
G01*
X132029000Y-80010000D02*
X132029000Y-78486000D01*
G75*
G02*
X132080000Y-78435000I51000J0D01*
G01*
X133604000Y-78435000D01*
G75*
G02*
X133655000Y-78486000I0J-51000D01*
G01*
X133655000Y-80010000D01*
G75*
G02*
X133604000Y-80061000I-51000J0D01*
G01*
X132080000Y-80061000D01*
G75*
G02*
X132029000Y-80010000I0J51000D01*
G01*
G37*
G36*
G01*
X132029000Y-77470000D02*
X132029000Y-75946000D01*
G75*
G02*
X132080000Y-75895000I51000J0D01*
G01*
X133604000Y-75895000D01*
G75*
G02*
X133655000Y-75946000I0J-51000D01*
G01*
X133655000Y-77470000D01*
G75*
G02*
X133604000Y-77521000I-51000J0D01*
G01*
X132080000Y-77521000D01*
G75*
G02*
X132029000Y-77470000I0J51000D01*
G01*
G37*
G36*
G01*
X132029000Y-74930000D02*
X132029000Y-73406000D01*
G75*
G02*
X132080000Y-73355000I51000J0D01*
G01*
X133604000Y-73355000D01*
G75*
G02*
X133655000Y-73406000I0J-51000D01*
G01*
X133655000Y-74930000D01*
G75*
G02*
X133604000Y-74981000I-51000J0D01*
G01*
X132080000Y-74981000D01*
G75*
G02*
X132029000Y-74930000I0J51000D01*
G01*
G37*
G36*
G01*
X132029000Y-72390000D02*
X132029000Y-70866000D01*
G75*
G02*
X132080000Y-70815000I51000J0D01*
G01*
X133604000Y-70815000D01*
G75*
G02*
X133655000Y-70866000I0J-51000D01*
G01*
X133655000Y-72390000D01*
G75*
G02*
X133604000Y-72441000I-51000J0D01*
G01*
X132080000Y-72441000D01*
G75*
G02*
X132029000Y-72390000I0J51000D01*
G01*
G37*
G36*
G01*
X149749253Y-122622625D02*
X149749253Y-126432625D01*
G75*
G02*
X149698253Y-126483625I-51000J0D01*
G01*
X145888253Y-126483625D01*
G75*
G02*
X145837253Y-126432625I0J51000D01*
G01*
X145837253Y-122622625D01*
G75*
G02*
X145888253Y-122571625I51000J0D01*
G01*
X149698253Y-122571625D01*
G75*
G02*
X149749253Y-122622625I0J-51000D01*
G01*
G37*
G36*
G01*
X149749253Y-127622625D02*
X149749253Y-131432625D01*
G75*
G02*
X149698253Y-131483625I-51000J0D01*
G01*
X145888253Y-131483625D01*
G75*
G02*
X145837253Y-131432625I0J51000D01*
G01*
X145837253Y-127622625D01*
G75*
G02*
X145888253Y-127571625I51000J0D01*
G01*
X149698253Y-127571625D01*
G75*
G02*
X149749253Y-127622625I0J-51000D01*
G01*
G37*
G36*
G01*
X142129253Y-127622625D02*
X142129253Y-131432625D01*
G75*
G02*
X142078253Y-131483625I-51000J0D01*
G01*
X138268253Y-131483625D01*
G75*
G02*
X138217253Y-131432625I0J51000D01*
G01*
X138217253Y-127622625D01*
G75*
G02*
X138268253Y-127571625I51000J0D01*
G01*
X142078253Y-127571625D01*
G75*
G02*
X142129253Y-127622625I0J-51000D01*
G01*
G37*
G36*
G01*
X142129253Y-122622625D02*
X142129253Y-126432625D01*
G75*
G02*
X142078253Y-126483625I-51000J0D01*
G01*
X138268253Y-126483625D01*
G75*
G02*
X138217253Y-126432625I0J51000D01*
G01*
X138217253Y-122622625D01*
G75*
G02*
X138268253Y-122571625I51000J0D01*
G01*
X142078253Y-122571625D01*
G75*
G02*
X142129253Y-122622625I0J-51000D01*
G01*
G37*
G36*
G01*
X137049253Y-122622625D02*
X137049253Y-126432625D01*
G75*
G02*
X136998253Y-126483625I-51000J0D01*
G01*
X133188253Y-126483625D01*
G75*
G02*
X133137253Y-126432625I0J51000D01*
G01*
X133137253Y-122622625D01*
G75*
G02*
X133188253Y-122571625I51000J0D01*
G01*
X136998253Y-122571625D01*
G75*
G02*
X137049253Y-122622625I0J-51000D01*
G01*
G37*
G36*
G01*
X137049253Y-127622625D02*
X137049253Y-131432625D01*
G75*
G02*
X136998253Y-131483625I-51000J0D01*
G01*
X133188253Y-131483625D01*
G75*
G02*
X133137253Y-131432625I0J51000D01*
G01*
X133137253Y-127622625D01*
G75*
G02*
X133188253Y-127571625I51000J0D01*
G01*
X136998253Y-127571625D01*
G75*
G02*
X137049253Y-127622625I0J-51000D01*
G01*
G37*
G36*
G01*
X154829253Y-127622625D02*
X154829253Y-131432625D01*
G75*
G02*
X154778253Y-131483625I-51000J0D01*
G01*
X150968253Y-131483625D01*
G75*
G02*
X150917253Y-131432625I0J51000D01*
G01*
X150917253Y-127622625D01*
G75*
G02*
X150968253Y-127571625I51000J0D01*
G01*
X154778253Y-127571625D01*
G75*
G02*
X154829253Y-127622625I0J-51000D01*
G01*
G37*
G36*
G01*
X154829253Y-122622625D02*
X154829253Y-126432625D01*
G75*
G02*
X154778253Y-126483625I-51000J0D01*
G01*
X150968253Y-126483625D01*
G75*
G02*
X150917253Y-126432625I0J51000D01*
G01*
X150917253Y-122622625D01*
G75*
G02*
X150968253Y-122571625I51000J0D01*
G01*
X154778253Y-122571625D01*
G75*
G02*
X154829253Y-122622625I0J-51000D01*
G01*
G37*
G36*
G01*
X187817012Y-122655028D02*
X187817012Y-126465028D01*
G75*
G02*
X187766012Y-126516028I-51000J0D01*
G01*
X183956012Y-126516028D01*
G75*
G02*
X183905012Y-126465028I0J51000D01*
G01*
X183905012Y-122655028D01*
G75*
G02*
X183956012Y-122604028I51000J0D01*
G01*
X187766012Y-122604028D01*
G75*
G02*
X187817012Y-122655028I0J-51000D01*
G01*
G37*
G36*
G01*
X187817012Y-127655028D02*
X187817012Y-131465028D01*
G75*
G02*
X187766012Y-131516028I-51000J0D01*
G01*
X183956012Y-131516028D01*
G75*
G02*
X183905012Y-131465028I0J51000D01*
G01*
X183905012Y-127655028D01*
G75*
G02*
X183956012Y-127604028I51000J0D01*
G01*
X187766012Y-127604028D01*
G75*
G02*
X187817012Y-127655028I0J-51000D01*
G01*
G37*
G36*
G01*
X206105012Y-117939528D02*
X206105012Y-121749528D01*
G75*
G02*
X206054012Y-121800528I-51000J0D01*
G01*
X202244012Y-121800528D01*
G75*
G02*
X202193012Y-121749528I0J51000D01*
G01*
X202193012Y-117939528D01*
G75*
G02*
X202244012Y-117888528I51000J0D01*
G01*
X206054012Y-117888528D01*
G75*
G02*
X206105012Y-117939528I0J-51000D01*
G01*
G37*
G36*
G01*
X206105012Y-112939528D02*
X206105012Y-116749528D01*
G75*
G02*
X206054012Y-116800528I-51000J0D01*
G01*
X202244012Y-116800528D01*
G75*
G02*
X202193012Y-116749528I0J51000D01*
G01*
X202193012Y-112939528D01*
G75*
G02*
X202244012Y-112888528I51000J0D01*
G01*
X206054012Y-112888528D01*
G75*
G02*
X206105012Y-112939528I0J-51000D01*
G01*
G37*
G36*
G01*
X201025012Y-112939528D02*
X201025012Y-116749528D01*
G75*
G02*
X200974012Y-116800528I-51000J0D01*
G01*
X197164012Y-116800528D01*
G75*
G02*
X197113012Y-116749528I0J51000D01*
G01*
X197113012Y-112939528D01*
G75*
G02*
X197164012Y-112888528I51000J0D01*
G01*
X200974012Y-112888528D01*
G75*
G02*
X201025012Y-112939528I0J-51000D01*
G01*
G37*
G36*
G01*
X201025012Y-117939528D02*
X201025012Y-121749528D01*
G75*
G02*
X200974012Y-121800528I-51000J0D01*
G01*
X197164012Y-121800528D01*
G75*
G02*
X197113012Y-121749528I0J51000D01*
G01*
X197113012Y-117939528D01*
G75*
G02*
X197164012Y-117888528I51000J0D01*
G01*
X200974012Y-117888528D01*
G75*
G02*
X201025012Y-117939528I0J-51000D01*
G01*
G37*
G36*
G01*
X167372052Y-127639337D02*
X167372052Y-131449337D01*
G75*
G02*
X167321052Y-131500337I-51000J0D01*
G01*
X163511052Y-131500337D01*
G75*
G02*
X163460052Y-131449337I0J51000D01*
G01*
X163460052Y-127639337D01*
G75*
G02*
X163511052Y-127588337I51000J0D01*
G01*
X167321052Y-127588337D01*
G75*
G02*
X167372052Y-127639337I0J-51000D01*
G01*
G37*
G36*
G01*
X167372052Y-122639337D02*
X167372052Y-126449337D01*
G75*
G02*
X167321052Y-126500337I-51000J0D01*
G01*
X163511052Y-126500337D01*
G75*
G02*
X163460052Y-126449337I0J51000D01*
G01*
X163460052Y-122639337D01*
G75*
G02*
X163511052Y-122588337I51000J0D01*
G01*
X167321052Y-122588337D01*
G75*
G02*
X167372052Y-122639337I0J-51000D01*
G01*
G37*
G36*
G01*
X180072052Y-122639337D02*
X180072052Y-126449337D01*
G75*
G02*
X180021052Y-126500337I-51000J0D01*
G01*
X176211052Y-126500337D01*
G75*
G02*
X176160052Y-126449337I0J51000D01*
G01*
X176160052Y-122639337D01*
G75*
G02*
X176211052Y-122588337I51000J0D01*
G01*
X180021052Y-122588337D01*
G75*
G02*
X180072052Y-122639337I0J-51000D01*
G01*
G37*
G36*
G01*
X180072052Y-127639337D02*
X180072052Y-131449337D01*
G75*
G02*
X180021052Y-131500337I-51000J0D01*
G01*
X176211052Y-131500337D01*
G75*
G02*
X176160052Y-131449337I0J51000D01*
G01*
X176160052Y-127639337D01*
G75*
G02*
X176211052Y-127588337I51000J0D01*
G01*
X180021052Y-127588337D01*
G75*
G02*
X180072052Y-127639337I0J-51000D01*
G01*
G37*
G36*
G01*
X174992052Y-127639337D02*
X174992052Y-131449337D01*
G75*
G02*
X174941052Y-131500337I-51000J0D01*
G01*
X171131052Y-131500337D01*
G75*
G02*
X171080052Y-131449337I0J51000D01*
G01*
X171080052Y-127639337D01*
G75*
G02*
X171131052Y-127588337I51000J0D01*
G01*
X174941052Y-127588337D01*
G75*
G02*
X174992052Y-127639337I0J-51000D01*
G01*
G37*
G36*
G01*
X174992052Y-122639337D02*
X174992052Y-126449337D01*
G75*
G02*
X174941052Y-126500337I-51000J0D01*
G01*
X171131052Y-126500337D01*
G75*
G02*
X171080052Y-126449337I0J51000D01*
G01*
X171080052Y-122639337D01*
G75*
G02*
X171131052Y-122588337I51000J0D01*
G01*
X174941052Y-122588337D01*
G75*
G02*
X174992052Y-122639337I0J-51000D01*
G01*
G37*
G36*
G01*
X192897012Y-122655028D02*
X192897012Y-126465028D01*
G75*
G02*
X192846012Y-126516028I-51000J0D01*
G01*
X189036012Y-126516028D01*
G75*
G02*
X188985012Y-126465028I0J51000D01*
G01*
X188985012Y-122655028D01*
G75*
G02*
X189036012Y-122604028I51000J0D01*
G01*
X192846012Y-122604028D01*
G75*
G02*
X192897012Y-122655028I0J-51000D01*
G01*
G37*
G36*
G01*
X192897012Y-127655028D02*
X192897012Y-131465028D01*
G75*
G02*
X192846012Y-131516028I-51000J0D01*
G01*
X189036012Y-131516028D01*
G75*
G02*
X188985012Y-131465028I0J51000D01*
G01*
X188985012Y-127655028D01*
G75*
G02*
X189036012Y-127604028I51000J0D01*
G01*
X192846012Y-127604028D01*
G75*
G02*
X192897012Y-127655028I0J-51000D01*
G01*
G37*
G36*
G01*
X162292052Y-127639337D02*
X162292052Y-131449337D01*
G75*
G02*
X162241052Y-131500337I-51000J0D01*
G01*
X158431052Y-131500337D01*
G75*
G02*
X158380052Y-131449337I0J51000D01*
G01*
X158380052Y-127639337D01*
G75*
G02*
X158431052Y-127588337I51000J0D01*
G01*
X162241052Y-127588337D01*
G75*
G02*
X162292052Y-127639337I0J-51000D01*
G01*
G37*
G36*
G01*
X162292052Y-122639337D02*
X162292052Y-126449337D01*
G75*
G02*
X162241052Y-126500337I-51000J0D01*
G01*
X158431052Y-126500337D01*
G75*
G02*
X158380052Y-126449337I0J51000D01*
G01*
X158380052Y-122639337D01*
G75*
G02*
X158431052Y-122588337I51000J0D01*
G01*
X162241052Y-122588337D01*
G75*
G02*
X162292052Y-122639337I0J-51000D01*
G01*
G37*
D10*
X109220000Y-74930000D03*
X109220000Y-79430000D03*
X102720000Y-74930000D03*
X102720000Y-79430000D03*
X102720000Y-68000000D03*
X102720000Y-63500000D03*
X109220000Y-68000000D03*
X109220000Y-63500000D03*
G36*
G01*
X201499000Y-59285000D02*
X201499000Y-57555000D01*
G75*
G02*
X201550000Y-57504000I51000J0D01*
G01*
X203580000Y-57504000D01*
G75*
G02*
X203631000Y-57555000I0J-51000D01*
G01*
X203631000Y-59285000D01*
G75*
G02*
X203580000Y-59336000I-51000J0D01*
G01*
X201550000Y-59336000D01*
G75*
G02*
X201499000Y-59285000I0J51000D01*
G01*
G37*
D11*
X202565000Y-60960000D03*
X202565000Y-63500000D03*
X202565000Y-66040000D03*
D12*
X204725000Y-63500000D03*
G36*
G01*
X112915000Y-94400000D02*
X112915000Y-96100000D01*
G75*
G02*
X112864000Y-96151000I-51000J0D01*
G01*
X111164000Y-96151000D01*
G75*
G02*
X111113000Y-96100000I0J51000D01*
G01*
X111113000Y-94400000D01*
G75*
G02*
X111164000Y-94349000I51000J0D01*
G01*
X112864000Y-94349000D01*
G75*
G02*
X112915000Y-94400000I0J-51000D01*
G01*
G37*
D13*
X112014000Y-92750000D03*
X110014000Y-92750000D03*
X110014000Y-95250000D03*
D14*
X107304000Y-100020000D03*
X107304000Y-87980000D03*
G36*
G01*
X116764000Y-127635000D02*
X116764000Y-131445000D01*
G75*
G02*
X116713000Y-131496000I-51000J0D01*
G01*
X112903000Y-131496000D01*
G75*
G02*
X112852000Y-131445000I0J51000D01*
G01*
X112852000Y-127635000D01*
G75*
G02*
X112903000Y-127584000I51000J0D01*
G01*
X116713000Y-127584000D01*
G75*
G02*
X116764000Y-127635000I0J-51000D01*
G01*
G37*
G36*
G01*
X116764000Y-122635000D02*
X116764000Y-126445000D01*
G75*
G02*
X116713000Y-126496000I-51000J0D01*
G01*
X112903000Y-126496000D01*
G75*
G02*
X112852000Y-126445000I0J51000D01*
G01*
X112852000Y-122635000D01*
G75*
G02*
X112903000Y-122584000I51000J0D01*
G01*
X116713000Y-122584000D01*
G75*
G02*
X116764000Y-122635000I0J-51000D01*
G01*
G37*
G36*
G01*
X111684000Y-122635000D02*
X111684000Y-126445000D01*
G75*
G02*
X111633000Y-126496000I-51000J0D01*
G01*
X107823000Y-126496000D01*
G75*
G02*
X107772000Y-126445000I0J51000D01*
G01*
X107772000Y-122635000D01*
G75*
G02*
X107823000Y-122584000I51000J0D01*
G01*
X111633000Y-122584000D01*
G75*
G02*
X111684000Y-122635000I0J-51000D01*
G01*
G37*
G36*
G01*
X111684000Y-127635000D02*
X111684000Y-131445000D01*
G75*
G02*
X111633000Y-131496000I-51000J0D01*
G01*
X107823000Y-131496000D01*
G75*
G02*
X107772000Y-131445000I0J51000D01*
G01*
X107772000Y-127635000D01*
G75*
G02*
X107823000Y-127584000I51000J0D01*
G01*
X111633000Y-127584000D01*
G75*
G02*
X111684000Y-127635000I0J-51000D01*
G01*
G37*
G36*
G01*
X129464000Y-127635000D02*
X129464000Y-131445000D01*
G75*
G02*
X129413000Y-131496000I-51000J0D01*
G01*
X125603000Y-131496000D01*
G75*
G02*
X125552000Y-131445000I0J51000D01*
G01*
X125552000Y-127635000D01*
G75*
G02*
X125603000Y-127584000I51000J0D01*
G01*
X129413000Y-127584000D01*
G75*
G02*
X129464000Y-127635000I0J-51000D01*
G01*
G37*
G36*
G01*
X129464000Y-122635000D02*
X129464000Y-126445000D01*
G75*
G02*
X129413000Y-126496000I-51000J0D01*
G01*
X125603000Y-126496000D01*
G75*
G02*
X125552000Y-126445000I0J51000D01*
G01*
X125552000Y-122635000D01*
G75*
G02*
X125603000Y-122584000I51000J0D01*
G01*
X129413000Y-122584000D01*
G75*
G02*
X129464000Y-122635000I0J-51000D01*
G01*
G37*
G36*
G01*
X124384000Y-122635000D02*
X124384000Y-126445000D01*
G75*
G02*
X124333000Y-126496000I-51000J0D01*
G01*
X120523000Y-126496000D01*
G75*
G02*
X120472000Y-126445000I0J51000D01*
G01*
X120472000Y-122635000D01*
G75*
G02*
X120523000Y-122584000I51000J0D01*
G01*
X124333000Y-122584000D01*
G75*
G02*
X124384000Y-122635000I0J-51000D01*
G01*
G37*
G36*
G01*
X124384000Y-127635000D02*
X124384000Y-131445000D01*
G75*
G02*
X124333000Y-131496000I-51000J0D01*
G01*
X120523000Y-131496000D01*
G75*
G02*
X120472000Y-131445000I0J51000D01*
G01*
X120472000Y-127635000D01*
G75*
G02*
X120523000Y-127584000I51000J0D01*
G01*
X124333000Y-127584000D01*
G75*
G02*
X124384000Y-127635000I0J-51000D01*
G01*
G37*
D15*
X123916640Y-52042461D03*
X115026640Y-52042461D03*
X120106640Y-52042461D03*
X111216640Y-52042461D03*
G36*
G01*
X137922000Y-50343000D02*
X136398000Y-50343000D01*
G75*
G02*
X136347000Y-50292000I0J51000D01*
G01*
X136347000Y-48768000D01*
G75*
G02*
X136398000Y-48717000I51000J0D01*
G01*
X137922000Y-48717000D01*
G75*
G02*
X137973000Y-48768000I0J-51000D01*
G01*
X137973000Y-50292000D01*
G75*
G02*
X137922000Y-50343000I-51000J0D01*
G01*
G37*
G36*
G01*
X135382000Y-50343000D02*
X133858000Y-50343000D01*
G75*
G02*
X133807000Y-50292000I0J51000D01*
G01*
X133807000Y-48768000D01*
G75*
G02*
X133858000Y-48717000I51000J0D01*
G01*
X135382000Y-48717000D01*
G75*
G02*
X135433000Y-48768000I0J-51000D01*
G01*
X135433000Y-50292000D01*
G75*
G02*
X135382000Y-50343000I-51000J0D01*
G01*
G37*
G36*
G01*
X132842000Y-50343000D02*
X131318000Y-50343000D01*
G75*
G02*
X131267000Y-50292000I0J51000D01*
G01*
X131267000Y-48768000D01*
G75*
G02*
X131318000Y-48717000I51000J0D01*
G01*
X132842000Y-48717000D01*
G75*
G02*
X132893000Y-48768000I0J-51000D01*
G01*
X132893000Y-50292000D01*
G75*
G02*
X132842000Y-50343000I-51000J0D01*
G01*
G37*
G36*
G01*
X130302000Y-50343000D02*
X128778000Y-50343000D01*
G75*
G02*
X128727000Y-50292000I0J51000D01*
G01*
X128727000Y-48768000D01*
G75*
G02*
X128778000Y-48717000I51000J0D01*
G01*
X130302000Y-48717000D01*
G75*
G02*
X130353000Y-48768000I0J-51000D01*
G01*
X130353000Y-50292000D01*
G75*
G02*
X130302000Y-50343000I-51000J0D01*
G01*
G37*
G36*
G01*
X179832000Y-52883000D02*
X178308000Y-52883000D01*
G75*
G02*
X178257000Y-52832000I0J51000D01*
G01*
X178257000Y-51308000D01*
G75*
G02*
X178308000Y-51257000I51000J0D01*
G01*
X179832000Y-51257000D01*
G75*
G02*
X179883000Y-51308000I0J-51000D01*
G01*
X179883000Y-52832000D01*
G75*
G02*
X179832000Y-52883000I-51000J0D01*
G01*
G37*
G36*
G01*
X179832000Y-50343000D02*
X178308000Y-50343000D01*
G75*
G02*
X178257000Y-50292000I0J51000D01*
G01*
X178257000Y-48768000D01*
G75*
G02*
X178308000Y-48717000I51000J0D01*
G01*
X179832000Y-48717000D01*
G75*
G02*
X179883000Y-48768000I0J-51000D01*
G01*
X179883000Y-50292000D01*
G75*
G02*
X179832000Y-50343000I-51000J0D01*
G01*
G37*
G36*
G01*
X182372000Y-52883000D02*
X180848000Y-52883000D01*
G75*
G02*
X180797000Y-52832000I0J51000D01*
G01*
X180797000Y-51308000D01*
G75*
G02*
X180848000Y-51257000I51000J0D01*
G01*
X182372000Y-51257000D01*
G75*
G02*
X182423000Y-51308000I0J-51000D01*
G01*
X182423000Y-52832000D01*
G75*
G02*
X182372000Y-52883000I-51000J0D01*
G01*
G37*
G36*
G01*
X182372000Y-50343000D02*
X180848000Y-50343000D01*
G75*
G02*
X180797000Y-50292000I0J51000D01*
G01*
X180797000Y-48768000D01*
G75*
G02*
X180848000Y-48717000I51000J0D01*
G01*
X182372000Y-48717000D01*
G75*
G02*
X182423000Y-48768000I0J-51000D01*
G01*
X182423000Y-50292000D01*
G75*
G02*
X182372000Y-50343000I-51000J0D01*
G01*
G37*
G36*
G01*
X184912000Y-52883000D02*
X183388000Y-52883000D01*
G75*
G02*
X183337000Y-52832000I0J51000D01*
G01*
X183337000Y-51308000D01*
G75*
G02*
X183388000Y-51257000I51000J0D01*
G01*
X184912000Y-51257000D01*
G75*
G02*
X184963000Y-51308000I0J-51000D01*
G01*
X184963000Y-52832000D01*
G75*
G02*
X184912000Y-52883000I-51000J0D01*
G01*
G37*
G36*
G01*
X184912000Y-50343000D02*
X183388000Y-50343000D01*
G75*
G02*
X183337000Y-50292000I0J51000D01*
G01*
X183337000Y-48768000D01*
G75*
G02*
X183388000Y-48717000I51000J0D01*
G01*
X184912000Y-48717000D01*
G75*
G02*
X184963000Y-48768000I0J-51000D01*
G01*
X184963000Y-50292000D01*
G75*
G02*
X184912000Y-50343000I-51000J0D01*
G01*
G37*
G36*
G01*
X188722000Y-52883000D02*
X187198000Y-52883000D01*
G75*
G02*
X187147000Y-52832000I0J51000D01*
G01*
X187147000Y-51308000D01*
G75*
G02*
X187198000Y-51257000I51000J0D01*
G01*
X188722000Y-51257000D01*
G75*
G02*
X188773000Y-51308000I0J-51000D01*
G01*
X188773000Y-52832000D01*
G75*
G02*
X188722000Y-52883000I-51000J0D01*
G01*
G37*
G36*
G01*
X188722000Y-50343000D02*
X187198000Y-50343000D01*
G75*
G02*
X187147000Y-50292000I0J51000D01*
G01*
X187147000Y-48768000D01*
G75*
G02*
X187198000Y-48717000I51000J0D01*
G01*
X188722000Y-48717000D01*
G75*
G02*
X188773000Y-48768000I0J-51000D01*
G01*
X188773000Y-50292000D01*
G75*
G02*
X188722000Y-50343000I-51000J0D01*
G01*
G37*
G36*
G01*
X191262000Y-52883000D02*
X189738000Y-52883000D01*
G75*
G02*
X189687000Y-52832000I0J51000D01*
G01*
X189687000Y-51308000D01*
G75*
G02*
X189738000Y-51257000I51000J0D01*
G01*
X191262000Y-51257000D01*
G75*
G02*
X191313000Y-51308000I0J-51000D01*
G01*
X191313000Y-52832000D01*
G75*
G02*
X191262000Y-52883000I-51000J0D01*
G01*
G37*
G36*
G01*
X191262000Y-50343000D02*
X189738000Y-50343000D01*
G75*
G02*
X189687000Y-50292000I0J51000D01*
G01*
X189687000Y-48768000D01*
G75*
G02*
X189738000Y-48717000I51000J0D01*
G01*
X191262000Y-48717000D01*
G75*
G02*
X191313000Y-48768000I0J-51000D01*
G01*
X191313000Y-50292000D01*
G75*
G02*
X191262000Y-50343000I-51000J0D01*
G01*
G37*
G36*
G01*
X193802000Y-52883000D02*
X192278000Y-52883000D01*
G75*
G02*
X192227000Y-52832000I0J51000D01*
G01*
X192227000Y-51308000D01*
G75*
G02*
X192278000Y-51257000I51000J0D01*
G01*
X193802000Y-51257000D01*
G75*
G02*
X193853000Y-51308000I0J-51000D01*
G01*
X193853000Y-52832000D01*
G75*
G02*
X193802000Y-52883000I-51000J0D01*
G01*
G37*
G36*
G01*
X193802000Y-50343000D02*
X192278000Y-50343000D01*
G75*
G02*
X192227000Y-50292000I0J51000D01*
G01*
X192227000Y-48768000D01*
G75*
G02*
X192278000Y-48717000I51000J0D01*
G01*
X193802000Y-48717000D01*
G75*
G02*
X193853000Y-48768000I0J-51000D01*
G01*
X193853000Y-50292000D01*
G75*
G02*
X193802000Y-50343000I-51000J0D01*
G01*
G37*
G36*
G01*
X196342000Y-52883000D02*
X194818000Y-52883000D01*
G75*
G02*
X194767000Y-52832000I0J51000D01*
G01*
X194767000Y-51308000D01*
G75*
G02*
X194818000Y-51257000I51000J0D01*
G01*
X196342000Y-51257000D01*
G75*
G02*
X196393000Y-51308000I0J-51000D01*
G01*
X196393000Y-52832000D01*
G75*
G02*
X196342000Y-52883000I-51000J0D01*
G01*
G37*
G36*
G01*
X196342000Y-50343000D02*
X194818000Y-50343000D01*
G75*
G02*
X194767000Y-50292000I0J51000D01*
G01*
X194767000Y-48768000D01*
G75*
G02*
X194818000Y-48717000I51000J0D01*
G01*
X196342000Y-48717000D01*
G75*
G02*
X196393000Y-48768000I0J-51000D01*
G01*
X196393000Y-50292000D01*
G75*
G02*
X196342000Y-50343000I-51000J0D01*
G01*
G37*
G36*
G01*
X165862000Y-52883000D02*
X164338000Y-52883000D01*
G75*
G02*
X164287000Y-52832000I0J51000D01*
G01*
X164287000Y-51308000D01*
G75*
G02*
X164338000Y-51257000I51000J0D01*
G01*
X165862000Y-51257000D01*
G75*
G02*
X165913000Y-51308000I0J-51000D01*
G01*
X165913000Y-52832000D01*
G75*
G02*
X165862000Y-52883000I-51000J0D01*
G01*
G37*
G36*
G01*
X165862000Y-50343000D02*
X164338000Y-50343000D01*
G75*
G02*
X164287000Y-50292000I0J51000D01*
G01*
X164287000Y-48768000D01*
G75*
G02*
X164338000Y-48717000I51000J0D01*
G01*
X165862000Y-48717000D01*
G75*
G02*
X165913000Y-48768000I0J-51000D01*
G01*
X165913000Y-50292000D01*
G75*
G02*
X165862000Y-50343000I-51000J0D01*
G01*
G37*
G36*
G01*
X168402000Y-52883000D02*
X166878000Y-52883000D01*
G75*
G02*
X166827000Y-52832000I0J51000D01*
G01*
X166827000Y-51308000D01*
G75*
G02*
X166878000Y-51257000I51000J0D01*
G01*
X168402000Y-51257000D01*
G75*
G02*
X168453000Y-51308000I0J-51000D01*
G01*
X168453000Y-52832000D01*
G75*
G02*
X168402000Y-52883000I-51000J0D01*
G01*
G37*
G36*
G01*
X168402000Y-50343000D02*
X166878000Y-50343000D01*
G75*
G02*
X166827000Y-50292000I0J51000D01*
G01*
X166827000Y-48768000D01*
G75*
G02*
X166878000Y-48717000I51000J0D01*
G01*
X168402000Y-48717000D01*
G75*
G02*
X168453000Y-48768000I0J-51000D01*
G01*
X168453000Y-50292000D01*
G75*
G02*
X168402000Y-50343000I-51000J0D01*
G01*
G37*
G36*
G01*
X170942000Y-52883000D02*
X169418000Y-52883000D01*
G75*
G02*
X169367000Y-52832000I0J51000D01*
G01*
X169367000Y-51308000D01*
G75*
G02*
X169418000Y-51257000I51000J0D01*
G01*
X170942000Y-51257000D01*
G75*
G02*
X170993000Y-51308000I0J-51000D01*
G01*
X170993000Y-52832000D01*
G75*
G02*
X170942000Y-52883000I-51000J0D01*
G01*
G37*
G36*
G01*
X170942000Y-50343000D02*
X169418000Y-50343000D01*
G75*
G02*
X169367000Y-50292000I0J51000D01*
G01*
X169367000Y-48768000D01*
G75*
G02*
X169418000Y-48717000I51000J0D01*
G01*
X170942000Y-48717000D01*
G75*
G02*
X170993000Y-48768000I0J-51000D01*
G01*
X170993000Y-50292000D01*
G75*
G02*
X170942000Y-50343000I-51000J0D01*
G01*
G37*
G36*
G01*
X173482000Y-52883000D02*
X171958000Y-52883000D01*
G75*
G02*
X171907000Y-52832000I0J51000D01*
G01*
X171907000Y-51308000D01*
G75*
G02*
X171958000Y-51257000I51000J0D01*
G01*
X173482000Y-51257000D01*
G75*
G02*
X173533000Y-51308000I0J-51000D01*
G01*
X173533000Y-52832000D01*
G75*
G02*
X173482000Y-52883000I-51000J0D01*
G01*
G37*
G36*
G01*
X173482000Y-50343000D02*
X171958000Y-50343000D01*
G75*
G02*
X171907000Y-50292000I0J51000D01*
G01*
X171907000Y-48768000D01*
G75*
G02*
X171958000Y-48717000I51000J0D01*
G01*
X173482000Y-48717000D01*
G75*
G02*
X173533000Y-48768000I0J-51000D01*
G01*
X173533000Y-50292000D01*
G75*
G02*
X173482000Y-50343000I-51000J0D01*
G01*
G37*
G36*
G01*
X176022000Y-52883000D02*
X174498000Y-52883000D01*
G75*
G02*
X174447000Y-52832000I0J51000D01*
G01*
X174447000Y-51308000D01*
G75*
G02*
X174498000Y-51257000I51000J0D01*
G01*
X176022000Y-51257000D01*
G75*
G02*
X176073000Y-51308000I0J-51000D01*
G01*
X176073000Y-52832000D01*
G75*
G02*
X176022000Y-52883000I-51000J0D01*
G01*
G37*
G36*
G01*
X176022000Y-50343000D02*
X174498000Y-50343000D01*
G75*
G02*
X174447000Y-50292000I0J51000D01*
G01*
X174447000Y-48768000D01*
G75*
G02*
X174498000Y-48717000I51000J0D01*
G01*
X176022000Y-48717000D01*
G75*
G02*
X176073000Y-48768000I0J-51000D01*
G01*
X176073000Y-50292000D01*
G75*
G02*
X176022000Y-50343000I-51000J0D01*
G01*
G37*
G36*
G01*
X141732000Y-52883000D02*
X140208000Y-52883000D01*
G75*
G02*
X140157000Y-52832000I0J51000D01*
G01*
X140157000Y-51308000D01*
G75*
G02*
X140208000Y-51257000I51000J0D01*
G01*
X141732000Y-51257000D01*
G75*
G02*
X141783000Y-51308000I0J-51000D01*
G01*
X141783000Y-52832000D01*
G75*
G02*
X141732000Y-52883000I-51000J0D01*
G01*
G37*
G36*
G01*
X141732000Y-50343000D02*
X140208000Y-50343000D01*
G75*
G02*
X140157000Y-50292000I0J51000D01*
G01*
X140157000Y-48768000D01*
G75*
G02*
X140208000Y-48717000I51000J0D01*
G01*
X141732000Y-48717000D01*
G75*
G02*
X141783000Y-48768000I0J-51000D01*
G01*
X141783000Y-50292000D01*
G75*
G02*
X141732000Y-50343000I-51000J0D01*
G01*
G37*
G36*
G01*
X144272000Y-52883000D02*
X142748000Y-52883000D01*
G75*
G02*
X142697000Y-52832000I0J51000D01*
G01*
X142697000Y-51308000D01*
G75*
G02*
X142748000Y-51257000I51000J0D01*
G01*
X144272000Y-51257000D01*
G75*
G02*
X144323000Y-51308000I0J-51000D01*
G01*
X144323000Y-52832000D01*
G75*
G02*
X144272000Y-52883000I-51000J0D01*
G01*
G37*
G36*
G01*
X144272000Y-50343000D02*
X142748000Y-50343000D01*
G75*
G02*
X142697000Y-50292000I0J51000D01*
G01*
X142697000Y-48768000D01*
G75*
G02*
X142748000Y-48717000I51000J0D01*
G01*
X144272000Y-48717000D01*
G75*
G02*
X144323000Y-48768000I0J-51000D01*
G01*
X144323000Y-50292000D01*
G75*
G02*
X144272000Y-50343000I-51000J0D01*
G01*
G37*
G36*
G01*
X146812000Y-52883000D02*
X145288000Y-52883000D01*
G75*
G02*
X145237000Y-52832000I0J51000D01*
G01*
X145237000Y-51308000D01*
G75*
G02*
X145288000Y-51257000I51000J0D01*
G01*
X146812000Y-51257000D01*
G75*
G02*
X146863000Y-51308000I0J-51000D01*
G01*
X146863000Y-52832000D01*
G75*
G02*
X146812000Y-52883000I-51000J0D01*
G01*
G37*
G36*
G01*
X146812000Y-50343000D02*
X145288000Y-50343000D01*
G75*
G02*
X145237000Y-50292000I0J51000D01*
G01*
X145237000Y-48768000D01*
G75*
G02*
X145288000Y-48717000I51000J0D01*
G01*
X146812000Y-48717000D01*
G75*
G02*
X146863000Y-48768000I0J-51000D01*
G01*
X146863000Y-50292000D01*
G75*
G02*
X146812000Y-50343000I-51000J0D01*
G01*
G37*
G36*
G01*
X149352000Y-52883000D02*
X147828000Y-52883000D01*
G75*
G02*
X147777000Y-52832000I0J51000D01*
G01*
X147777000Y-51308000D01*
G75*
G02*
X147828000Y-51257000I51000J0D01*
G01*
X149352000Y-51257000D01*
G75*
G02*
X149403000Y-51308000I0J-51000D01*
G01*
X149403000Y-52832000D01*
G75*
G02*
X149352000Y-52883000I-51000J0D01*
G01*
G37*
G36*
G01*
X149352000Y-50343000D02*
X147828000Y-50343000D01*
G75*
G02*
X147777000Y-50292000I0J51000D01*
G01*
X147777000Y-48768000D01*
G75*
G02*
X147828000Y-48717000I51000J0D01*
G01*
X149352000Y-48717000D01*
G75*
G02*
X149403000Y-48768000I0J-51000D01*
G01*
X149403000Y-50292000D01*
G75*
G02*
X149352000Y-50343000I-51000J0D01*
G01*
G37*
G36*
G01*
X151892000Y-52883000D02*
X150368000Y-52883000D01*
G75*
G02*
X150317000Y-52832000I0J51000D01*
G01*
X150317000Y-51308000D01*
G75*
G02*
X150368000Y-51257000I51000J0D01*
G01*
X151892000Y-51257000D01*
G75*
G02*
X151943000Y-51308000I0J-51000D01*
G01*
X151943000Y-52832000D01*
G75*
G02*
X151892000Y-52883000I-51000J0D01*
G01*
G37*
G36*
G01*
X151892000Y-50343000D02*
X150368000Y-50343000D01*
G75*
G02*
X150317000Y-50292000I0J51000D01*
G01*
X150317000Y-48768000D01*
G75*
G02*
X150368000Y-48717000I51000J0D01*
G01*
X151892000Y-48717000D01*
G75*
G02*
X151943000Y-48768000I0J-51000D01*
G01*
X151943000Y-50292000D01*
G75*
G02*
X151892000Y-50343000I-51000J0D01*
G01*
G37*
G36*
G01*
X154432000Y-52883000D02*
X152908000Y-52883000D01*
G75*
G02*
X152857000Y-52832000I0J51000D01*
G01*
X152857000Y-51308000D01*
G75*
G02*
X152908000Y-51257000I51000J0D01*
G01*
X154432000Y-51257000D01*
G75*
G02*
X154483000Y-51308000I0J-51000D01*
G01*
X154483000Y-52832000D01*
G75*
G02*
X154432000Y-52883000I-51000J0D01*
G01*
G37*
G36*
G01*
X154432000Y-50343000D02*
X152908000Y-50343000D01*
G75*
G02*
X152857000Y-50292000I0J51000D01*
G01*
X152857000Y-48768000D01*
G75*
G02*
X152908000Y-48717000I51000J0D01*
G01*
X154432000Y-48717000D01*
G75*
G02*
X154483000Y-48768000I0J-51000D01*
G01*
X154483000Y-50292000D01*
G75*
G02*
X154432000Y-50343000I-51000J0D01*
G01*
G37*
G36*
G01*
X156972000Y-52883000D02*
X155448000Y-52883000D01*
G75*
G02*
X155397000Y-52832000I0J51000D01*
G01*
X155397000Y-51308000D01*
G75*
G02*
X155448000Y-51257000I51000J0D01*
G01*
X156972000Y-51257000D01*
G75*
G02*
X157023000Y-51308000I0J-51000D01*
G01*
X157023000Y-52832000D01*
G75*
G02*
X156972000Y-52883000I-51000J0D01*
G01*
G37*
G36*
G01*
X156972000Y-50343000D02*
X155448000Y-50343000D01*
G75*
G02*
X155397000Y-50292000I0J51000D01*
G01*
X155397000Y-48768000D01*
G75*
G02*
X155448000Y-48717000I51000J0D01*
G01*
X156972000Y-48717000D01*
G75*
G02*
X157023000Y-48768000I0J-51000D01*
G01*
X157023000Y-50292000D01*
G75*
G02*
X156972000Y-50343000I-51000J0D01*
G01*
G37*
G36*
G01*
X159512000Y-52883000D02*
X157988000Y-52883000D01*
G75*
G02*
X157937000Y-52832000I0J51000D01*
G01*
X157937000Y-51308000D01*
G75*
G02*
X157988000Y-51257000I51000J0D01*
G01*
X159512000Y-51257000D01*
G75*
G02*
X159563000Y-51308000I0J-51000D01*
G01*
X159563000Y-52832000D01*
G75*
G02*
X159512000Y-52883000I-51000J0D01*
G01*
G37*
G36*
G01*
X159512000Y-50343000D02*
X157988000Y-50343000D01*
G75*
G02*
X157937000Y-50292000I0J51000D01*
G01*
X157937000Y-48768000D01*
G75*
G02*
X157988000Y-48717000I51000J0D01*
G01*
X159512000Y-48717000D01*
G75*
G02*
X159563000Y-48768000I0J-51000D01*
G01*
X159563000Y-50292000D01*
G75*
G02*
X159512000Y-50343000I-51000J0D01*
G01*
G37*
G36*
G01*
X162052000Y-52883000D02*
X160528000Y-52883000D01*
G75*
G02*
X160477000Y-52832000I0J51000D01*
G01*
X160477000Y-51308000D01*
G75*
G02*
X160528000Y-51257000I51000J0D01*
G01*
X162052000Y-51257000D01*
G75*
G02*
X162103000Y-51308000I0J-51000D01*
G01*
X162103000Y-52832000D01*
G75*
G02*
X162052000Y-52883000I-51000J0D01*
G01*
G37*
G36*
G01*
X162052000Y-50343000D02*
X160528000Y-50343000D01*
G75*
G02*
X160477000Y-50292000I0J51000D01*
G01*
X160477000Y-48768000D01*
G75*
G02*
X160528000Y-48717000I51000J0D01*
G01*
X162052000Y-48717000D01*
G75*
G02*
X162103000Y-48768000I0J-51000D01*
G01*
X162103000Y-50292000D01*
G75*
G02*
X162052000Y-50343000I-51000J0D01*
G01*
G37*
G36*
G01*
X198874000Y-78465001D02*
X198874000Y-72664999D01*
G75*
G02*
X198924999Y-72614000I50999J0D01*
G01*
X205325001Y-72614000D01*
G75*
G02*
X205376000Y-72664999I0J-50999D01*
G01*
X205376000Y-78465001D01*
G75*
G02*
X205325001Y-78516000I-50999J0D01*
G01*
X198924999Y-78516000D01*
G75*
G02*
X198874000Y-78465001I0J50999D01*
G01*
G37*
G36*
G01*
X194674000Y-78445001D02*
X194674000Y-77244999D01*
G75*
G02*
X194724999Y-77194000I50999J0D01*
G01*
X196925001Y-77194000D01*
G75*
G02*
X196976000Y-77244999I0J-50999D01*
G01*
X196976000Y-78445001D01*
G75*
G02*
X196925001Y-78496000I-50999J0D01*
G01*
X194724999Y-78496000D01*
G75*
G02*
X194674000Y-78445001I0J50999D01*
G01*
G37*
G36*
G01*
X194674000Y-73885001D02*
X194674000Y-72684999D01*
G75*
G02*
X194724999Y-72634000I50999J0D01*
G01*
X196925001Y-72634000D01*
G75*
G02*
X196976000Y-72684999I0J-50999D01*
G01*
X196976000Y-73885001D01*
G75*
G02*
X196925001Y-73936000I-50999J0D01*
G01*
X194724999Y-73936000D01*
G75*
G02*
X194674000Y-73885001I0J50999D01*
G01*
G37*
G36*
G01*
X157525052Y-108894338D02*
X157525052Y-107694336D01*
G75*
G02*
X157576051Y-107643337I50999J0D01*
G01*
X159776053Y-107643337D01*
G75*
G02*
X159827052Y-107694336I0J-50999D01*
G01*
X159827052Y-108894338D01*
G75*
G02*
X159776053Y-108945337I-50999J0D01*
G01*
X157576051Y-108945337D01*
G75*
G02*
X157525052Y-108894338I0J50999D01*
G01*
G37*
G36*
G01*
X157525052Y-113454338D02*
X157525052Y-112254336D01*
G75*
G02*
X157576051Y-112203337I50999J0D01*
G01*
X159776053Y-112203337D01*
G75*
G02*
X159827052Y-112254336I0J-50999D01*
G01*
X159827052Y-113454338D01*
G75*
G02*
X159776053Y-113505337I-50999J0D01*
G01*
X157576051Y-113505337D01*
G75*
G02*
X157525052Y-113454338I0J50999D01*
G01*
G37*
G36*
G01*
X161725052Y-113474338D02*
X161725052Y-107674336D01*
G75*
G02*
X161776051Y-107623337I50999J0D01*
G01*
X168176053Y-107623337D01*
G75*
G02*
X168227052Y-107674336I0J-50999D01*
G01*
X168227052Y-113474338D01*
G75*
G02*
X168176053Y-113525337I-50999J0D01*
G01*
X161776051Y-113525337D01*
G75*
G02*
X161725052Y-113474338I0J50999D01*
G01*
G37*
G36*
G01*
X149182253Y-113457626D02*
X149182253Y-107657624D01*
G75*
G02*
X149233252Y-107606625I50999J0D01*
G01*
X155633254Y-107606625D01*
G75*
G02*
X155684253Y-107657624I0J-50999D01*
G01*
X155684253Y-113457626D01*
G75*
G02*
X155633254Y-113508625I-50999J0D01*
G01*
X149233252Y-113508625D01*
G75*
G02*
X149182253Y-113457626I0J50999D01*
G01*
G37*
G36*
G01*
X144982253Y-113437626D02*
X144982253Y-112237624D01*
G75*
G02*
X145033252Y-112186625I50999J0D01*
G01*
X147233254Y-112186625D01*
G75*
G02*
X147284253Y-112237624I0J-50999D01*
G01*
X147284253Y-113437626D01*
G75*
G02*
X147233254Y-113488625I-50999J0D01*
G01*
X145033252Y-113488625D01*
G75*
G02*
X144982253Y-113437626I0J50999D01*
G01*
G37*
G36*
G01*
X144982253Y-108877626D02*
X144982253Y-107677624D01*
G75*
G02*
X145033252Y-107626625I50999J0D01*
G01*
X147233254Y-107626625D01*
G75*
G02*
X147284253Y-107677624I0J-50999D01*
G01*
X147284253Y-108877626D01*
G75*
G02*
X147233254Y-108928625I-50999J0D01*
G01*
X145033252Y-108928625D01*
G75*
G02*
X144982253Y-108877626I0J50999D01*
G01*
G37*
G36*
G01*
X132282253Y-108877626D02*
X132282253Y-107677624D01*
G75*
G02*
X132333252Y-107626625I50999J0D01*
G01*
X134533254Y-107626625D01*
G75*
G02*
X134584253Y-107677624I0J-50999D01*
G01*
X134584253Y-108877626D01*
G75*
G02*
X134533254Y-108928625I-50999J0D01*
G01*
X132333252Y-108928625D01*
G75*
G02*
X132282253Y-108877626I0J50999D01*
G01*
G37*
G36*
G01*
X132282253Y-113437626D02*
X132282253Y-112237624D01*
G75*
G02*
X132333252Y-112186625I50999J0D01*
G01*
X134533254Y-112186625D01*
G75*
G02*
X134584253Y-112237624I0J-50999D01*
G01*
X134584253Y-113437626D01*
G75*
G02*
X134533254Y-113488625I-50999J0D01*
G01*
X132333252Y-113488625D01*
G75*
G02*
X132282253Y-113437626I0J50999D01*
G01*
G37*
G36*
G01*
X136482253Y-113457626D02*
X136482253Y-107657624D01*
G75*
G02*
X136533252Y-107606625I50999J0D01*
G01*
X142933254Y-107606625D01*
G75*
G02*
X142984253Y-107657624I0J-50999D01*
G01*
X142984253Y-113457626D01*
G75*
G02*
X142933254Y-113508625I-50999J0D01*
G01*
X136533252Y-113508625D01*
G75*
G02*
X136482253Y-113457626I0J50999D01*
G01*
G37*
G36*
G01*
X200458012Y-103774529D02*
X200458012Y-97974527D01*
G75*
G02*
X200509011Y-97923528I50999J0D01*
G01*
X206909013Y-97923528D01*
G75*
G02*
X206960012Y-97974527I0J-50999D01*
G01*
X206960012Y-103774529D01*
G75*
G02*
X206909013Y-103825528I-50999J0D01*
G01*
X200509011Y-103825528D01*
G75*
G02*
X200458012Y-103774529I0J50999D01*
G01*
G37*
G36*
G01*
X196258012Y-103754529D02*
X196258012Y-102554527D01*
G75*
G02*
X196309011Y-102503528I50999J0D01*
G01*
X198509013Y-102503528D01*
G75*
G02*
X198560012Y-102554527I0J-50999D01*
G01*
X198560012Y-103754529D01*
G75*
G02*
X198509013Y-103805528I-50999J0D01*
G01*
X196309011Y-103805528D01*
G75*
G02*
X196258012Y-103754529I0J50999D01*
G01*
G37*
G36*
G01*
X196258012Y-99194529D02*
X196258012Y-97994527D01*
G75*
G02*
X196309011Y-97943528I50999J0D01*
G01*
X198509013Y-97943528D01*
G75*
G02*
X198560012Y-97994527I0J-50999D01*
G01*
X198560012Y-99194529D01*
G75*
G02*
X198509013Y-99245528I-50999J0D01*
G01*
X196309011Y-99245528D01*
G75*
G02*
X196258012Y-99194529I0J50999D01*
G01*
G37*
G36*
G01*
X183050012Y-108910029D02*
X183050012Y-107710027D01*
G75*
G02*
X183101011Y-107659028I50999J0D01*
G01*
X185301013Y-107659028D01*
G75*
G02*
X185352012Y-107710027I0J-50999D01*
G01*
X185352012Y-108910029D01*
G75*
G02*
X185301013Y-108961028I-50999J0D01*
G01*
X183101011Y-108961028D01*
G75*
G02*
X183050012Y-108910029I0J50999D01*
G01*
G37*
G36*
G01*
X183050012Y-113470029D02*
X183050012Y-112270027D01*
G75*
G02*
X183101011Y-112219028I50999J0D01*
G01*
X185301013Y-112219028D01*
G75*
G02*
X185352012Y-112270027I0J-50999D01*
G01*
X185352012Y-113470029D01*
G75*
G02*
X185301013Y-113521028I-50999J0D01*
G01*
X183101011Y-113521028D01*
G75*
G02*
X183050012Y-113470029I0J50999D01*
G01*
G37*
G36*
G01*
X187250012Y-113490029D02*
X187250012Y-107690027D01*
G75*
G02*
X187301011Y-107639028I50999J0D01*
G01*
X193701013Y-107639028D01*
G75*
G02*
X193752012Y-107690027I0J-50999D01*
G01*
X193752012Y-113490029D01*
G75*
G02*
X193701013Y-113541028I-50999J0D01*
G01*
X187301011Y-113541028D01*
G75*
G02*
X187250012Y-113490029I0J50999D01*
G01*
G37*
G36*
G01*
X174425052Y-113474338D02*
X174425052Y-107674336D01*
G75*
G02*
X174476051Y-107623337I50999J0D01*
G01*
X180876053Y-107623337D01*
G75*
G02*
X180927052Y-107674336I0J-50999D01*
G01*
X180927052Y-113474338D01*
G75*
G02*
X180876053Y-113525337I-50999J0D01*
G01*
X174476051Y-113525337D01*
G75*
G02*
X174425052Y-113474338I0J50999D01*
G01*
G37*
G36*
G01*
X170225052Y-113454338D02*
X170225052Y-112254336D01*
G75*
G02*
X170276051Y-112203337I50999J0D01*
G01*
X172476053Y-112203337D01*
G75*
G02*
X172527052Y-112254336I0J-50999D01*
G01*
X172527052Y-113454338D01*
G75*
G02*
X172476053Y-113505337I-50999J0D01*
G01*
X170276051Y-113505337D01*
G75*
G02*
X170225052Y-113454338I0J50999D01*
G01*
G37*
G36*
G01*
X170225052Y-108894338D02*
X170225052Y-107694336D01*
G75*
G02*
X170276051Y-107643337I50999J0D01*
G01*
X172476053Y-107643337D01*
G75*
G02*
X172527052Y-107694336I0J-50999D01*
G01*
X172527052Y-108894338D01*
G75*
G02*
X172476053Y-108945337I-50999J0D01*
G01*
X170276051Y-108945337D01*
G75*
G02*
X170225052Y-108894338I0J50999D01*
G01*
G37*
G36*
G01*
X194674000Y-85950001D02*
X194674000Y-84749999D01*
G75*
G02*
X194724999Y-84699000I50999J0D01*
G01*
X196925001Y-84699000D01*
G75*
G02*
X196976000Y-84749999I0J-50999D01*
G01*
X196976000Y-85950001D01*
G75*
G02*
X196925001Y-86001000I-50999J0D01*
G01*
X194724999Y-86001000D01*
G75*
G02*
X194674000Y-85950001I0J50999D01*
G01*
G37*
G36*
G01*
X194674000Y-90510001D02*
X194674000Y-89309999D01*
G75*
G02*
X194724999Y-89259000I50999J0D01*
G01*
X196925001Y-89259000D01*
G75*
G02*
X196976000Y-89309999I0J-50999D01*
G01*
X196976000Y-90510001D01*
G75*
G02*
X196925001Y-90561000I-50999J0D01*
G01*
X194724999Y-90561000D01*
G75*
G02*
X194674000Y-90510001I0J50999D01*
G01*
G37*
G36*
G01*
X198874000Y-90530001D02*
X198874000Y-84729999D01*
G75*
G02*
X198924999Y-84679000I50999J0D01*
G01*
X205325001Y-84679000D01*
G75*
G02*
X205376000Y-84729999I0J-50999D01*
G01*
X205376000Y-90530001D01*
G75*
G02*
X205325001Y-90581000I-50999J0D01*
G01*
X198924999Y-90581000D01*
G75*
G02*
X198874000Y-90530001I0J50999D01*
G01*
G37*
G36*
G01*
X123817000Y-113390001D02*
X123817000Y-107589999D01*
G75*
G02*
X123867999Y-107539000I50999J0D01*
G01*
X130268001Y-107539000D01*
G75*
G02*
X130319000Y-107589999I0J-50999D01*
G01*
X130319000Y-113390001D01*
G75*
G02*
X130268001Y-113441000I-50999J0D01*
G01*
X123867999Y-113441000D01*
G75*
G02*
X123817000Y-113390001I0J50999D01*
G01*
G37*
G36*
G01*
X119617000Y-113370001D02*
X119617000Y-112169999D01*
G75*
G02*
X119667999Y-112119000I50999J0D01*
G01*
X121868001Y-112119000D01*
G75*
G02*
X121919000Y-112169999I0J-50999D01*
G01*
X121919000Y-113370001D01*
G75*
G02*
X121868001Y-113421000I-50999J0D01*
G01*
X119667999Y-113421000D01*
G75*
G02*
X119617000Y-113370001I0J50999D01*
G01*
G37*
G36*
G01*
X119617000Y-108810001D02*
X119617000Y-107609999D01*
G75*
G02*
X119667999Y-107559000I50999J0D01*
G01*
X121868001Y-107559000D01*
G75*
G02*
X121919000Y-107609999I0J-50999D01*
G01*
X121919000Y-108810001D01*
G75*
G02*
X121868001Y-108861000I-50999J0D01*
G01*
X119667999Y-108861000D01*
G75*
G02*
X119617000Y-108810001I0J50999D01*
G01*
G37*
G36*
G01*
X106917000Y-108810001D02*
X106917000Y-107609999D01*
G75*
G02*
X106967999Y-107559000I50999J0D01*
G01*
X109168001Y-107559000D01*
G75*
G02*
X109219000Y-107609999I0J-50999D01*
G01*
X109219000Y-108810001D01*
G75*
G02*
X109168001Y-108861000I-50999J0D01*
G01*
X106967999Y-108861000D01*
G75*
G02*
X106917000Y-108810001I0J50999D01*
G01*
G37*
G36*
G01*
X106917000Y-113370001D02*
X106917000Y-112169999D01*
G75*
G02*
X106967999Y-112119000I50999J0D01*
G01*
X109168001Y-112119000D01*
G75*
G02*
X109219000Y-112169999I0J-50999D01*
G01*
X109219000Y-113370001D01*
G75*
G02*
X109168001Y-113421000I-50999J0D01*
G01*
X106967999Y-113421000D01*
G75*
G02*
X106917000Y-113370001I0J50999D01*
G01*
G37*
G36*
G01*
X111117000Y-113390001D02*
X111117000Y-107589999D01*
G75*
G02*
X111167999Y-107539000I50999J0D01*
G01*
X117568001Y-107539000D01*
G75*
G02*
X117619000Y-107589999I0J-50999D01*
G01*
X117619000Y-113390001D01*
G75*
G02*
X117568001Y-113441000I-50999J0D01*
G01*
X111167999Y-113441000D01*
G75*
G02*
X111117000Y-113390001I0J50999D01*
G01*
G37*
G36*
G01*
X109249172Y-105047000D02*
X110206828Y-105047000D01*
G75*
G02*
X110479000Y-105319172I0J-272172D01*
G01*
X110479000Y-106026828D01*
G75*
G02*
X110206828Y-106299000I-272172J0D01*
G01*
X109249172Y-106299000D01*
G75*
G02*
X108977000Y-106026828I0J272172D01*
G01*
X108977000Y-105319172D01*
G75*
G02*
X109249172Y-105047000I272172J0D01*
G01*
G37*
G36*
G01*
X109249172Y-102997000D02*
X110206828Y-102997000D01*
G75*
G02*
X110479000Y-103269172I0J-272172D01*
G01*
X110479000Y-103976828D01*
G75*
G02*
X110206828Y-104249000I-272172J0D01*
G01*
X109249172Y-104249000D01*
G75*
G02*
X108977000Y-103976828I0J272172D01*
G01*
X108977000Y-103269172D01*
G75*
G02*
X109249172Y-102997000I272172J0D01*
G01*
G37*
G36*
G01*
X121949172Y-102997000D02*
X122906828Y-102997000D01*
G75*
G02*
X123179000Y-103269172I0J-272172D01*
G01*
X123179000Y-103976828D01*
G75*
G02*
X122906828Y-104249000I-272172J0D01*
G01*
X121949172Y-104249000D01*
G75*
G02*
X121677000Y-103976828I0J272172D01*
G01*
X121677000Y-103269172D01*
G75*
G02*
X121949172Y-102997000I272172J0D01*
G01*
G37*
G36*
G01*
X121949172Y-105047000D02*
X122906828Y-105047000D01*
G75*
G02*
X123179000Y-105319172I0J-272172D01*
G01*
X123179000Y-106026828D01*
G75*
G02*
X122906828Y-106299000I-272172J0D01*
G01*
X121949172Y-106299000D01*
G75*
G02*
X121677000Y-106026828I0J272172D01*
G01*
X121677000Y-105319172D01*
G75*
G02*
X121949172Y-105047000I272172J0D01*
G01*
G37*
G36*
G01*
X134649172Y-105047000D02*
X135606828Y-105047000D01*
G75*
G02*
X135879000Y-105319172I0J-272172D01*
G01*
X135879000Y-106026828D01*
G75*
G02*
X135606828Y-106299000I-272172J0D01*
G01*
X134649172Y-106299000D01*
G75*
G02*
X134377000Y-106026828I0J272172D01*
G01*
X134377000Y-105319172D01*
G75*
G02*
X134649172Y-105047000I272172J0D01*
G01*
G37*
G36*
G01*
X134649172Y-102997000D02*
X135606828Y-102997000D01*
G75*
G02*
X135879000Y-103269172I0J-272172D01*
G01*
X135879000Y-103976828D01*
G75*
G02*
X135606828Y-104249000I-272172J0D01*
G01*
X134649172Y-104249000D01*
G75*
G02*
X134377000Y-103976828I0J272172D01*
G01*
X134377000Y-103269172D01*
G75*
G02*
X134649172Y-102997000I272172J0D01*
G01*
G37*
G36*
G01*
X192913000Y-96490828D02*
X192913000Y-95533172D01*
G75*
G02*
X193185172Y-95261000I272172J0D01*
G01*
X193892828Y-95261000D01*
G75*
G02*
X194165000Y-95533172I0J-272172D01*
G01*
X194165000Y-96490828D01*
G75*
G02*
X193892828Y-96763000I-272172J0D01*
G01*
X193185172Y-96763000D01*
G75*
G02*
X192913000Y-96490828I0J272172D01*
G01*
G37*
G36*
G01*
X194963000Y-96490828D02*
X194963000Y-95533172D01*
G75*
G02*
X195235172Y-95261000I272172J0D01*
G01*
X195942828Y-95261000D01*
G75*
G02*
X196215000Y-95533172I0J-272172D01*
G01*
X196215000Y-96490828D01*
G75*
G02*
X195942828Y-96763000I-272172J0D01*
G01*
X195235172Y-96763000D01*
G75*
G02*
X194963000Y-96490828I0J272172D01*
G01*
G37*
G36*
G01*
X185449172Y-105047000D02*
X186406828Y-105047000D01*
G75*
G02*
X186679000Y-105319172I0J-272172D01*
G01*
X186679000Y-106026828D01*
G75*
G02*
X186406828Y-106299000I-272172J0D01*
G01*
X185449172Y-106299000D01*
G75*
G02*
X185177000Y-106026828I0J272172D01*
G01*
X185177000Y-105319172D01*
G75*
G02*
X185449172Y-105047000I272172J0D01*
G01*
G37*
G36*
G01*
X185449172Y-102997000D02*
X186406828Y-102997000D01*
G75*
G02*
X186679000Y-103269172I0J-272172D01*
G01*
X186679000Y-103976828D01*
G75*
G02*
X186406828Y-104249000I-272172J0D01*
G01*
X185449172Y-104249000D01*
G75*
G02*
X185177000Y-103976828I0J272172D01*
G01*
X185177000Y-103269172D01*
G75*
G02*
X185449172Y-102997000I272172J0D01*
G01*
G37*
G36*
G01*
X172749172Y-102997000D02*
X173706828Y-102997000D01*
G75*
G02*
X173979000Y-103269172I0J-272172D01*
G01*
X173979000Y-103976828D01*
G75*
G02*
X173706828Y-104249000I-272172J0D01*
G01*
X172749172Y-104249000D01*
G75*
G02*
X172477000Y-103976828I0J272172D01*
G01*
X172477000Y-103269172D01*
G75*
G02*
X172749172Y-102997000I272172J0D01*
G01*
G37*
G36*
G01*
X172749172Y-105047000D02*
X173706828Y-105047000D01*
G75*
G02*
X173979000Y-105319172I0J-272172D01*
G01*
X173979000Y-106026828D01*
G75*
G02*
X173706828Y-106299000I-272172J0D01*
G01*
X172749172Y-106299000D01*
G75*
G02*
X172477000Y-106026828I0J272172D01*
G01*
X172477000Y-105319172D01*
G75*
G02*
X172749172Y-105047000I272172J0D01*
G01*
G37*
G36*
G01*
X147349172Y-105047000D02*
X148306828Y-105047000D01*
G75*
G02*
X148579000Y-105319172I0J-272172D01*
G01*
X148579000Y-106026828D01*
G75*
G02*
X148306828Y-106299000I-272172J0D01*
G01*
X147349172Y-106299000D01*
G75*
G02*
X147077000Y-106026828I0J272172D01*
G01*
X147077000Y-105319172D01*
G75*
G02*
X147349172Y-105047000I272172J0D01*
G01*
G37*
G36*
G01*
X147349172Y-102997000D02*
X148306828Y-102997000D01*
G75*
G02*
X148579000Y-103269172I0J-272172D01*
G01*
X148579000Y-103976828D01*
G75*
G02*
X148306828Y-104249000I-272172J0D01*
G01*
X147349172Y-104249000D01*
G75*
G02*
X147077000Y-103976828I0J272172D01*
G01*
X147077000Y-103269172D01*
G75*
G02*
X147349172Y-102997000I272172J0D01*
G01*
G37*
G36*
G01*
X160049172Y-102997000D02*
X161006828Y-102997000D01*
G75*
G02*
X161279000Y-103269172I0J-272172D01*
G01*
X161279000Y-103976828D01*
G75*
G02*
X161006828Y-104249000I-272172J0D01*
G01*
X160049172Y-104249000D01*
G75*
G02*
X159777000Y-103976828I0J272172D01*
G01*
X159777000Y-103269172D01*
G75*
G02*
X160049172Y-102997000I272172J0D01*
G01*
G37*
G36*
G01*
X160049172Y-105047000D02*
X161006828Y-105047000D01*
G75*
G02*
X161279000Y-105319172I0J-272172D01*
G01*
X161279000Y-106026828D01*
G75*
G02*
X161006828Y-106299000I-272172J0D01*
G01*
X160049172Y-106299000D01*
G75*
G02*
X159777000Y-106026828I0J272172D01*
G01*
X159777000Y-105319172D01*
G75*
G02*
X160049172Y-105047000I272172J0D01*
G01*
G37*
D16*
X101600000Y-132080000D03*
X101600000Y-50800000D03*
X203200000Y-132080000D03*
X203200000Y-50800000D03*
D17*
G36*
X111114165Y-94931665D02*
G01*
X111115000Y-94933291D01*
X111115000Y-95566709D01*
X111114000Y-95568441D01*
X111112000Y-95568441D01*
X111111010Y-95566905D01*
X111108628Y-95542718D01*
X111101628Y-95519643D01*
X111090263Y-95498379D01*
X111074968Y-95479742D01*
X111056331Y-95464447D01*
X111035067Y-95453082D01*
X111011992Y-95446082D01*
X110988001Y-95443719D01*
X110964010Y-95446082D01*
X110940935Y-95453082D01*
X110919671Y-95464447D01*
X110901034Y-95479742D01*
X110885739Y-95498379D01*
X110877172Y-95514408D01*
X110875473Y-95515464D01*
X110873710Y-95514521D01*
X110873560Y-95512700D01*
X110874279Y-95510964D01*
X110908661Y-95338114D01*
X110908661Y-95161886D01*
X110874279Y-94989036D01*
X110873560Y-94987300D01*
X110873821Y-94985318D01*
X110875669Y-94984552D01*
X110877172Y-94985592D01*
X110885739Y-95001621D01*
X110901035Y-95020258D01*
X110919672Y-95035553D01*
X110940935Y-95046918D01*
X110964010Y-95053918D01*
X110988001Y-95056281D01*
X111011992Y-95053918D01*
X111035067Y-95046918D01*
X111056331Y-95035553D01*
X111074968Y-95020257D01*
X111090263Y-95001620D01*
X111101628Y-94980357D01*
X111108628Y-94957282D01*
X111111010Y-94933095D01*
X111112175Y-94931469D01*
X111114165Y-94931665D01*
G37*
G36*
X111136277Y-92572453D02*
G01*
X111136779Y-92574210D01*
X111119339Y-92661886D01*
X111119339Y-92838114D01*
X111136779Y-92925790D01*
X111136136Y-92927684D01*
X111134174Y-92928074D01*
X111132903Y-92926761D01*
X111127627Y-92909369D01*
X111116262Y-92888105D01*
X111100967Y-92869468D01*
X111082330Y-92854173D01*
X111061066Y-92842808D01*
X111037991Y-92835808D01*
X111014000Y-92833445D01*
X110990009Y-92835808D01*
X110966934Y-92842808D01*
X110945670Y-92854173D01*
X110927033Y-92869468D01*
X110911738Y-92888105D01*
X110900373Y-92909369D01*
X110895097Y-92926761D01*
X110893637Y-92928128D01*
X110891723Y-92927547D01*
X110891221Y-92925790D01*
X110908661Y-92838114D01*
X110908661Y-92661886D01*
X110891221Y-92574210D01*
X110891864Y-92572316D01*
X110893826Y-92571926D01*
X110895097Y-92573239D01*
X110900373Y-92590631D01*
X110911738Y-92611895D01*
X110927033Y-92630532D01*
X110945670Y-92645827D01*
X110966934Y-92657192D01*
X110990009Y-92664192D01*
X111014000Y-92666555D01*
X111037991Y-92664192D01*
X111061066Y-92657192D01*
X111082330Y-92645827D01*
X111100967Y-92630532D01*
X111116262Y-92611895D01*
X111127627Y-92590631D01*
X111132903Y-92573239D01*
X111134363Y-92571872D01*
X111136277Y-92572453D01*
G37*
M02*
