G04 #@! TF.GenerationSoftware,KiCad,Pcbnew,5.1.10-88a1d61d58~88~ubuntu20.04.1*
G04 #@! TF.CreationDate,2021-07-01T12:33:08+02:00*
G04 #@! TF.ProjectId,chamber-board,6368616d-6265-4722-9d62-6f6172642e6b,rev?*
G04 #@! TF.SameCoordinates,Original*
G04 #@! TF.FileFunction,Paste,Top*
G04 #@! TF.FilePolarity,Positive*
%FSLAX46Y46*%
G04 Gerber Fmt 4.6, Leading zero omitted, Abs format (unit mm)*
G04 Created by KiCad (PCBNEW 5.1.10-88a1d61d58~88~ubuntu20.04.1) date 2021-07-01 12:33:08*
%MOMM*%
%LPD*%
G01*
G04 APERTURE LIST*
%ADD10R,3.050000X2.750000*%
%ADD11R,2.200000X1.200000*%
G04 APERTURE END LIST*
D10*
X200450000Y-77090000D03*
X203800000Y-74040000D03*
X200450000Y-74040000D03*
X203800000Y-77090000D03*
D11*
X195825000Y-77845000D03*
X195825000Y-73285000D03*
X158676052Y-108294337D03*
X158676052Y-112854337D03*
D10*
X166651052Y-112099337D03*
X163301052Y-109049337D03*
X166651052Y-109049337D03*
X163301052Y-112099337D03*
X150758253Y-112082625D03*
X154108253Y-109032625D03*
X150758253Y-109032625D03*
X154108253Y-112082625D03*
D11*
X146133253Y-112837625D03*
X146133253Y-108277625D03*
X133433253Y-108277625D03*
X133433253Y-112837625D03*
D10*
X141408253Y-112082625D03*
X138058253Y-109032625D03*
X141408253Y-109032625D03*
X138058253Y-112082625D03*
X202034012Y-102399528D03*
X205384012Y-99349528D03*
X202034012Y-99349528D03*
X205384012Y-102399528D03*
D11*
X197409012Y-103154528D03*
X197409012Y-98594528D03*
X184201012Y-108310028D03*
X184201012Y-112870028D03*
D10*
X192176012Y-112115028D03*
X188826012Y-109065028D03*
X192176012Y-109065028D03*
X188826012Y-112115028D03*
X176001052Y-112099337D03*
X179351052Y-109049337D03*
X176001052Y-109049337D03*
X179351052Y-112099337D03*
D11*
X171376052Y-112854337D03*
X171376052Y-108294337D03*
X195825000Y-85350000D03*
X195825000Y-89910000D03*
D10*
X203800000Y-89155000D03*
X200450000Y-86105000D03*
X203800000Y-86105000D03*
X200450000Y-89155000D03*
X125393000Y-112015000D03*
X128743000Y-108965000D03*
X125393000Y-108965000D03*
X128743000Y-112015000D03*
D11*
X120768000Y-112770000D03*
X120768000Y-108210000D03*
X108068000Y-108210000D03*
X108068000Y-112770000D03*
D10*
X116043000Y-112015000D03*
X112693000Y-108965000D03*
X116043000Y-108965000D03*
X112693000Y-112015000D03*
G36*
G01*
X109277999Y-105098000D02*
X110178001Y-105098000D01*
G75*
G02*
X110428000Y-105347999I0J-249999D01*
G01*
X110428000Y-105998001D01*
G75*
G02*
X110178001Y-106248000I-249999J0D01*
G01*
X109277999Y-106248000D01*
G75*
G02*
X109028000Y-105998001I0J249999D01*
G01*
X109028000Y-105347999D01*
G75*
G02*
X109277999Y-105098000I249999J0D01*
G01*
G37*
G36*
G01*
X109277999Y-103048000D02*
X110178001Y-103048000D01*
G75*
G02*
X110428000Y-103297999I0J-249999D01*
G01*
X110428000Y-103948001D01*
G75*
G02*
X110178001Y-104198000I-249999J0D01*
G01*
X109277999Y-104198000D01*
G75*
G02*
X109028000Y-103948001I0J249999D01*
G01*
X109028000Y-103297999D01*
G75*
G02*
X109277999Y-103048000I249999J0D01*
G01*
G37*
G36*
G01*
X121977999Y-103048000D02*
X122878001Y-103048000D01*
G75*
G02*
X123128000Y-103297999I0J-249999D01*
G01*
X123128000Y-103948001D01*
G75*
G02*
X122878001Y-104198000I-249999J0D01*
G01*
X121977999Y-104198000D01*
G75*
G02*
X121728000Y-103948001I0J249999D01*
G01*
X121728000Y-103297999D01*
G75*
G02*
X121977999Y-103048000I249999J0D01*
G01*
G37*
G36*
G01*
X121977999Y-105098000D02*
X122878001Y-105098000D01*
G75*
G02*
X123128000Y-105347999I0J-249999D01*
G01*
X123128000Y-105998001D01*
G75*
G02*
X122878001Y-106248000I-249999J0D01*
G01*
X121977999Y-106248000D01*
G75*
G02*
X121728000Y-105998001I0J249999D01*
G01*
X121728000Y-105347999D01*
G75*
G02*
X121977999Y-105098000I249999J0D01*
G01*
G37*
G36*
G01*
X134677999Y-105098000D02*
X135578001Y-105098000D01*
G75*
G02*
X135828000Y-105347999I0J-249999D01*
G01*
X135828000Y-105998001D01*
G75*
G02*
X135578001Y-106248000I-249999J0D01*
G01*
X134677999Y-106248000D01*
G75*
G02*
X134428000Y-105998001I0J249999D01*
G01*
X134428000Y-105347999D01*
G75*
G02*
X134677999Y-105098000I249999J0D01*
G01*
G37*
G36*
G01*
X134677999Y-103048000D02*
X135578001Y-103048000D01*
G75*
G02*
X135828000Y-103297999I0J-249999D01*
G01*
X135828000Y-103948001D01*
G75*
G02*
X135578001Y-104198000I-249999J0D01*
G01*
X134677999Y-104198000D01*
G75*
G02*
X134428000Y-103948001I0J249999D01*
G01*
X134428000Y-103297999D01*
G75*
G02*
X134677999Y-103048000I249999J0D01*
G01*
G37*
G36*
G01*
X192964000Y-96462001D02*
X192964000Y-95561999D01*
G75*
G02*
X193213999Y-95312000I249999J0D01*
G01*
X193864001Y-95312000D01*
G75*
G02*
X194114000Y-95561999I0J-249999D01*
G01*
X194114000Y-96462001D01*
G75*
G02*
X193864001Y-96712000I-249999J0D01*
G01*
X193213999Y-96712000D01*
G75*
G02*
X192964000Y-96462001I0J249999D01*
G01*
G37*
G36*
G01*
X195014000Y-96462001D02*
X195014000Y-95561999D01*
G75*
G02*
X195263999Y-95312000I249999J0D01*
G01*
X195914001Y-95312000D01*
G75*
G02*
X196164000Y-95561999I0J-249999D01*
G01*
X196164000Y-96462001D01*
G75*
G02*
X195914001Y-96712000I-249999J0D01*
G01*
X195263999Y-96712000D01*
G75*
G02*
X195014000Y-96462001I0J249999D01*
G01*
G37*
G36*
G01*
X185477999Y-105098000D02*
X186378001Y-105098000D01*
G75*
G02*
X186628000Y-105347999I0J-249999D01*
G01*
X186628000Y-105998001D01*
G75*
G02*
X186378001Y-106248000I-249999J0D01*
G01*
X185477999Y-106248000D01*
G75*
G02*
X185228000Y-105998001I0J249999D01*
G01*
X185228000Y-105347999D01*
G75*
G02*
X185477999Y-105098000I249999J0D01*
G01*
G37*
G36*
G01*
X185477999Y-103048000D02*
X186378001Y-103048000D01*
G75*
G02*
X186628000Y-103297999I0J-249999D01*
G01*
X186628000Y-103948001D01*
G75*
G02*
X186378001Y-104198000I-249999J0D01*
G01*
X185477999Y-104198000D01*
G75*
G02*
X185228000Y-103948001I0J249999D01*
G01*
X185228000Y-103297999D01*
G75*
G02*
X185477999Y-103048000I249999J0D01*
G01*
G37*
G36*
G01*
X172777999Y-103048000D02*
X173678001Y-103048000D01*
G75*
G02*
X173928000Y-103297999I0J-249999D01*
G01*
X173928000Y-103948001D01*
G75*
G02*
X173678001Y-104198000I-249999J0D01*
G01*
X172777999Y-104198000D01*
G75*
G02*
X172528000Y-103948001I0J249999D01*
G01*
X172528000Y-103297999D01*
G75*
G02*
X172777999Y-103048000I249999J0D01*
G01*
G37*
G36*
G01*
X172777999Y-105098000D02*
X173678001Y-105098000D01*
G75*
G02*
X173928000Y-105347999I0J-249999D01*
G01*
X173928000Y-105998001D01*
G75*
G02*
X173678001Y-106248000I-249999J0D01*
G01*
X172777999Y-106248000D01*
G75*
G02*
X172528000Y-105998001I0J249999D01*
G01*
X172528000Y-105347999D01*
G75*
G02*
X172777999Y-105098000I249999J0D01*
G01*
G37*
G36*
G01*
X147377999Y-105098000D02*
X148278001Y-105098000D01*
G75*
G02*
X148528000Y-105347999I0J-249999D01*
G01*
X148528000Y-105998001D01*
G75*
G02*
X148278001Y-106248000I-249999J0D01*
G01*
X147377999Y-106248000D01*
G75*
G02*
X147128000Y-105998001I0J249999D01*
G01*
X147128000Y-105347999D01*
G75*
G02*
X147377999Y-105098000I249999J0D01*
G01*
G37*
G36*
G01*
X147377999Y-103048000D02*
X148278001Y-103048000D01*
G75*
G02*
X148528000Y-103297999I0J-249999D01*
G01*
X148528000Y-103948001D01*
G75*
G02*
X148278001Y-104198000I-249999J0D01*
G01*
X147377999Y-104198000D01*
G75*
G02*
X147128000Y-103948001I0J249999D01*
G01*
X147128000Y-103297999D01*
G75*
G02*
X147377999Y-103048000I249999J0D01*
G01*
G37*
G36*
G01*
X160077999Y-103048000D02*
X160978001Y-103048000D01*
G75*
G02*
X161228000Y-103297999I0J-249999D01*
G01*
X161228000Y-103948001D01*
G75*
G02*
X160978001Y-104198000I-249999J0D01*
G01*
X160077999Y-104198000D01*
G75*
G02*
X159828000Y-103948001I0J249999D01*
G01*
X159828000Y-103297999D01*
G75*
G02*
X160077999Y-103048000I249999J0D01*
G01*
G37*
G36*
G01*
X160077999Y-105098000D02*
X160978001Y-105098000D01*
G75*
G02*
X161228000Y-105347999I0J-249999D01*
G01*
X161228000Y-105998001D01*
G75*
G02*
X160978001Y-106248000I-249999J0D01*
G01*
X160077999Y-106248000D01*
G75*
G02*
X159828000Y-105998001I0J249999D01*
G01*
X159828000Y-105347999D01*
G75*
G02*
X160077999Y-105098000I249999J0D01*
G01*
G37*
M02*
