G04 #@! TF.GenerationSoftware,KiCad,Pcbnew,5.1.10-88a1d61d58~88~ubuntu20.04.1*
G04 #@! TF.CreationDate,2021-07-01T12:33:08+02:00*
G04 #@! TF.ProjectId,chamber-board,6368616d-6265-4722-9d62-6f6172642e6b,rev?*
G04 #@! TF.SameCoordinates,Original*
G04 #@! TF.FileFunction,Soldermask,Bot*
G04 #@! TF.FilePolarity,Negative*
%FSLAX46Y46*%
G04 Gerber Fmt 4.6, Leading zero omitted, Abs format (unit mm)*
G04 Created by KiCad (PCBNEW 5.1.10-88a1d61d58~88~ubuntu20.04.1) date 2021-07-01 12:33:08*
%MOMM*%
%LPD*%
G01*
G04 APERTURE LIST*
%ADD10C,2.102000*%
%ADD11O,2.132000X1.832000*%
%ADD12C,1.202000*%
%ADD13C,1.802000*%
%ADD14C,3.602000*%
%ADD15C,2.802000*%
%ADD16C,6.102000*%
%ADD17C,0.100000*%
G04 APERTURE END LIST*
G36*
G01*
X160575000Y-72014000D02*
X165575000Y-72014000D01*
G75*
G02*
X165626000Y-72065000I0J-51000D01*
G01*
X165626000Y-77065000D01*
G75*
G02*
X165575000Y-77116000I-51000J0D01*
G01*
X160575000Y-77116000D01*
G75*
G02*
X160524000Y-77065000I0J51000D01*
G01*
X160524000Y-72065000D01*
G75*
G02*
X160575000Y-72014000I51000J0D01*
G01*
G37*
G36*
G01*
X155125000Y-66014000D02*
X156025000Y-66014000D01*
G75*
G02*
X156076000Y-66065000I0J-51000D01*
G01*
X156076000Y-68065000D01*
G75*
G02*
X156025000Y-68116000I-51000J0D01*
G01*
X155125000Y-68116000D01*
G75*
G02*
X155074000Y-68065000I0J51000D01*
G01*
X155074000Y-66065000D01*
G75*
G02*
X155125000Y-66014000I51000J0D01*
G01*
G37*
G36*
G01*
X156395000Y-66014000D02*
X157295000Y-66014000D01*
G75*
G02*
X157346000Y-66065000I0J-51000D01*
G01*
X157346000Y-68065000D01*
G75*
G02*
X157295000Y-68116000I-51000J0D01*
G01*
X156395000Y-68116000D01*
G75*
G02*
X156344000Y-68065000I0J51000D01*
G01*
X156344000Y-66065000D01*
G75*
G02*
X156395000Y-66014000I51000J0D01*
G01*
G37*
G36*
G01*
X157665000Y-66014000D02*
X158565000Y-66014000D01*
G75*
G02*
X158616000Y-66065000I0J-51000D01*
G01*
X158616000Y-68065000D01*
G75*
G02*
X158565000Y-68116000I-51000J0D01*
G01*
X157665000Y-68116000D01*
G75*
G02*
X157614000Y-68065000I0J51000D01*
G01*
X157614000Y-66065000D01*
G75*
G02*
X157665000Y-66014000I51000J0D01*
G01*
G37*
G36*
G01*
X158935000Y-66014000D02*
X159835000Y-66014000D01*
G75*
G02*
X159886000Y-66065000I0J-51000D01*
G01*
X159886000Y-68065000D01*
G75*
G02*
X159835000Y-68116000I-51000J0D01*
G01*
X158935000Y-68116000D01*
G75*
G02*
X158884000Y-68065000I0J51000D01*
G01*
X158884000Y-66065000D01*
G75*
G02*
X158935000Y-66014000I51000J0D01*
G01*
G37*
G36*
G01*
X160205000Y-66014000D02*
X161105000Y-66014000D01*
G75*
G02*
X161156000Y-66065000I0J-51000D01*
G01*
X161156000Y-68065000D01*
G75*
G02*
X161105000Y-68116000I-51000J0D01*
G01*
X160205000Y-68116000D01*
G75*
G02*
X160154000Y-68065000I0J51000D01*
G01*
X160154000Y-66065000D01*
G75*
G02*
X160205000Y-66014000I51000J0D01*
G01*
G37*
G36*
G01*
X161475000Y-66014000D02*
X162375000Y-66014000D01*
G75*
G02*
X162426000Y-66065000I0J-51000D01*
G01*
X162426000Y-68065000D01*
G75*
G02*
X162375000Y-68116000I-51000J0D01*
G01*
X161475000Y-68116000D01*
G75*
G02*
X161424000Y-68065000I0J51000D01*
G01*
X161424000Y-66065000D01*
G75*
G02*
X161475000Y-66014000I51000J0D01*
G01*
G37*
G36*
G01*
X162745000Y-66014000D02*
X163645000Y-66014000D01*
G75*
G02*
X163696000Y-66065000I0J-51000D01*
G01*
X163696000Y-68065000D01*
G75*
G02*
X163645000Y-68116000I-51000J0D01*
G01*
X162745000Y-68116000D01*
G75*
G02*
X162694000Y-68065000I0J51000D01*
G01*
X162694000Y-66065000D01*
G75*
G02*
X162745000Y-66014000I51000J0D01*
G01*
G37*
G36*
G01*
X164015000Y-66014000D02*
X164915000Y-66014000D01*
G75*
G02*
X164966000Y-66065000I0J-51000D01*
G01*
X164966000Y-68065000D01*
G75*
G02*
X164915000Y-68116000I-51000J0D01*
G01*
X164015000Y-68116000D01*
G75*
G02*
X163964000Y-68065000I0J51000D01*
G01*
X163964000Y-66065000D01*
G75*
G02*
X164015000Y-66014000I51000J0D01*
G01*
G37*
G36*
G01*
X165285000Y-66014000D02*
X166185000Y-66014000D01*
G75*
G02*
X166236000Y-66065000I0J-51000D01*
G01*
X166236000Y-68065000D01*
G75*
G02*
X166185000Y-68116000I-51000J0D01*
G01*
X165285000Y-68116000D01*
G75*
G02*
X165234000Y-68065000I0J51000D01*
G01*
X165234000Y-66065000D01*
G75*
G02*
X165285000Y-66014000I51000J0D01*
G01*
G37*
G36*
G01*
X166555000Y-66014000D02*
X167455000Y-66014000D01*
G75*
G02*
X167506000Y-66065000I0J-51000D01*
G01*
X167506000Y-68065000D01*
G75*
G02*
X167455000Y-68116000I-51000J0D01*
G01*
X166555000Y-68116000D01*
G75*
G02*
X166504000Y-68065000I0J51000D01*
G01*
X166504000Y-66065000D01*
G75*
G02*
X166555000Y-66014000I51000J0D01*
G01*
G37*
G36*
G01*
X167825000Y-66014000D02*
X168725000Y-66014000D01*
G75*
G02*
X168776000Y-66065000I0J-51000D01*
G01*
X168776000Y-68065000D01*
G75*
G02*
X168725000Y-68116000I-51000J0D01*
G01*
X167825000Y-68116000D01*
G75*
G02*
X167774000Y-68065000I0J51000D01*
G01*
X167774000Y-66065000D01*
G75*
G02*
X167825000Y-66014000I51000J0D01*
G01*
G37*
G36*
G01*
X169095000Y-66014000D02*
X169995000Y-66014000D01*
G75*
G02*
X170046000Y-66065000I0J-51000D01*
G01*
X170046000Y-68065000D01*
G75*
G02*
X169995000Y-68116000I-51000J0D01*
G01*
X169095000Y-68116000D01*
G75*
G02*
X169044000Y-68065000I0J51000D01*
G01*
X169044000Y-66065000D01*
G75*
G02*
X169095000Y-66014000I51000J0D01*
G01*
G37*
G36*
G01*
X170365000Y-66014000D02*
X171265000Y-66014000D01*
G75*
G02*
X171316000Y-66065000I0J-51000D01*
G01*
X171316000Y-68065000D01*
G75*
G02*
X171265000Y-68116000I-51000J0D01*
G01*
X170365000Y-68116000D01*
G75*
G02*
X170314000Y-68065000I0J51000D01*
G01*
X170314000Y-66065000D01*
G75*
G02*
X170365000Y-66014000I51000J0D01*
G01*
G37*
G36*
G01*
X171635000Y-66014000D02*
X172535000Y-66014000D01*
G75*
G02*
X172586000Y-66065000I0J-51000D01*
G01*
X172586000Y-68065000D01*
G75*
G02*
X172535000Y-68116000I-51000J0D01*
G01*
X171635000Y-68116000D01*
G75*
G02*
X171584000Y-68065000I0J51000D01*
G01*
X171584000Y-66065000D01*
G75*
G02*
X171635000Y-66014000I51000J0D01*
G01*
G37*
G36*
G01*
X174136000Y-69400000D02*
X174136000Y-70300000D01*
G75*
G02*
X174085000Y-70351000I-51000J0D01*
G01*
X172085000Y-70351000D01*
G75*
G02*
X172034000Y-70300000I0J51000D01*
G01*
X172034000Y-69400000D01*
G75*
G02*
X172085000Y-69349000I51000J0D01*
G01*
X174085000Y-69349000D01*
G75*
G02*
X174136000Y-69400000I0J-51000D01*
G01*
G37*
G36*
G01*
X174136000Y-70670000D02*
X174136000Y-71570000D01*
G75*
G02*
X174085000Y-71621000I-51000J0D01*
G01*
X172085000Y-71621000D01*
G75*
G02*
X172034000Y-71570000I0J51000D01*
G01*
X172034000Y-70670000D01*
G75*
G02*
X172085000Y-70619000I51000J0D01*
G01*
X174085000Y-70619000D01*
G75*
G02*
X174136000Y-70670000I0J-51000D01*
G01*
G37*
G36*
G01*
X174136000Y-71940000D02*
X174136000Y-72840000D01*
G75*
G02*
X174085000Y-72891000I-51000J0D01*
G01*
X172085000Y-72891000D01*
G75*
G02*
X172034000Y-72840000I0J51000D01*
G01*
X172034000Y-71940000D01*
G75*
G02*
X172085000Y-71889000I51000J0D01*
G01*
X174085000Y-71889000D01*
G75*
G02*
X174136000Y-71940000I0J-51000D01*
G01*
G37*
G36*
G01*
X174136000Y-73210000D02*
X174136000Y-74110000D01*
G75*
G02*
X174085000Y-74161000I-51000J0D01*
G01*
X172085000Y-74161000D01*
G75*
G02*
X172034000Y-74110000I0J51000D01*
G01*
X172034000Y-73210000D01*
G75*
G02*
X172085000Y-73159000I51000J0D01*
G01*
X174085000Y-73159000D01*
G75*
G02*
X174136000Y-73210000I0J-51000D01*
G01*
G37*
G36*
G01*
X174136000Y-74480000D02*
X174136000Y-75380000D01*
G75*
G02*
X174085000Y-75431000I-51000J0D01*
G01*
X172085000Y-75431000D01*
G75*
G02*
X172034000Y-75380000I0J51000D01*
G01*
X172034000Y-74480000D01*
G75*
G02*
X172085000Y-74429000I51000J0D01*
G01*
X174085000Y-74429000D01*
G75*
G02*
X174136000Y-74480000I0J-51000D01*
G01*
G37*
G36*
G01*
X174136000Y-75750000D02*
X174136000Y-76650000D01*
G75*
G02*
X174085000Y-76701000I-51000J0D01*
G01*
X172085000Y-76701000D01*
G75*
G02*
X172034000Y-76650000I0J51000D01*
G01*
X172034000Y-75750000D01*
G75*
G02*
X172085000Y-75699000I51000J0D01*
G01*
X174085000Y-75699000D01*
G75*
G02*
X174136000Y-75750000I0J-51000D01*
G01*
G37*
G36*
G01*
X174136000Y-77020000D02*
X174136000Y-77920000D01*
G75*
G02*
X174085000Y-77971000I-51000J0D01*
G01*
X172085000Y-77971000D01*
G75*
G02*
X172034000Y-77920000I0J51000D01*
G01*
X172034000Y-77020000D01*
G75*
G02*
X172085000Y-76969000I51000J0D01*
G01*
X174085000Y-76969000D01*
G75*
G02*
X174136000Y-77020000I0J-51000D01*
G01*
G37*
G36*
G01*
X174136000Y-78290000D02*
X174136000Y-79190000D01*
G75*
G02*
X174085000Y-79241000I-51000J0D01*
G01*
X172085000Y-79241000D01*
G75*
G02*
X172034000Y-79190000I0J51000D01*
G01*
X172034000Y-78290000D01*
G75*
G02*
X172085000Y-78239000I51000J0D01*
G01*
X174085000Y-78239000D01*
G75*
G02*
X174136000Y-78290000I0J-51000D01*
G01*
G37*
G36*
G01*
X174136000Y-79560000D02*
X174136000Y-80460000D01*
G75*
G02*
X174085000Y-80511000I-51000J0D01*
G01*
X172085000Y-80511000D01*
G75*
G02*
X172034000Y-80460000I0J51000D01*
G01*
X172034000Y-79560000D01*
G75*
G02*
X172085000Y-79509000I51000J0D01*
G01*
X174085000Y-79509000D01*
G75*
G02*
X174136000Y-79560000I0J-51000D01*
G01*
G37*
G36*
G01*
X174136000Y-80830000D02*
X174136000Y-81730000D01*
G75*
G02*
X174085000Y-81781000I-51000J0D01*
G01*
X172085000Y-81781000D01*
G75*
G02*
X172034000Y-81730000I0J51000D01*
G01*
X172034000Y-80830000D01*
G75*
G02*
X172085000Y-80779000I51000J0D01*
G01*
X174085000Y-80779000D01*
G75*
G02*
X174136000Y-80830000I0J-51000D01*
G01*
G37*
G36*
G01*
X171635000Y-83014000D02*
X172535000Y-83014000D01*
G75*
G02*
X172586000Y-83065000I0J-51000D01*
G01*
X172586000Y-85065000D01*
G75*
G02*
X172535000Y-85116000I-51000J0D01*
G01*
X171635000Y-85116000D01*
G75*
G02*
X171584000Y-85065000I0J51000D01*
G01*
X171584000Y-83065000D01*
G75*
G02*
X171635000Y-83014000I51000J0D01*
G01*
G37*
G36*
G01*
X170365000Y-83014000D02*
X171265000Y-83014000D01*
G75*
G02*
X171316000Y-83065000I0J-51000D01*
G01*
X171316000Y-85065000D01*
G75*
G02*
X171265000Y-85116000I-51000J0D01*
G01*
X170365000Y-85116000D01*
G75*
G02*
X170314000Y-85065000I0J51000D01*
G01*
X170314000Y-83065000D01*
G75*
G02*
X170365000Y-83014000I51000J0D01*
G01*
G37*
G36*
G01*
X169095000Y-83014000D02*
X169995000Y-83014000D01*
G75*
G02*
X170046000Y-83065000I0J-51000D01*
G01*
X170046000Y-85065000D01*
G75*
G02*
X169995000Y-85116000I-51000J0D01*
G01*
X169095000Y-85116000D01*
G75*
G02*
X169044000Y-85065000I0J51000D01*
G01*
X169044000Y-83065000D01*
G75*
G02*
X169095000Y-83014000I51000J0D01*
G01*
G37*
G36*
G01*
X167825000Y-83014000D02*
X168725000Y-83014000D01*
G75*
G02*
X168776000Y-83065000I0J-51000D01*
G01*
X168776000Y-85065000D01*
G75*
G02*
X168725000Y-85116000I-51000J0D01*
G01*
X167825000Y-85116000D01*
G75*
G02*
X167774000Y-85065000I0J51000D01*
G01*
X167774000Y-83065000D01*
G75*
G02*
X167825000Y-83014000I51000J0D01*
G01*
G37*
G36*
G01*
X166555000Y-83014000D02*
X167455000Y-83014000D01*
G75*
G02*
X167506000Y-83065000I0J-51000D01*
G01*
X167506000Y-85065000D01*
G75*
G02*
X167455000Y-85116000I-51000J0D01*
G01*
X166555000Y-85116000D01*
G75*
G02*
X166504000Y-85065000I0J51000D01*
G01*
X166504000Y-83065000D01*
G75*
G02*
X166555000Y-83014000I51000J0D01*
G01*
G37*
G36*
G01*
X165285000Y-83014000D02*
X166185000Y-83014000D01*
G75*
G02*
X166236000Y-83065000I0J-51000D01*
G01*
X166236000Y-85065000D01*
G75*
G02*
X166185000Y-85116000I-51000J0D01*
G01*
X165285000Y-85116000D01*
G75*
G02*
X165234000Y-85065000I0J51000D01*
G01*
X165234000Y-83065000D01*
G75*
G02*
X165285000Y-83014000I51000J0D01*
G01*
G37*
G36*
G01*
X164015000Y-83014000D02*
X164915000Y-83014000D01*
G75*
G02*
X164966000Y-83065000I0J-51000D01*
G01*
X164966000Y-85065000D01*
G75*
G02*
X164915000Y-85116000I-51000J0D01*
G01*
X164015000Y-85116000D01*
G75*
G02*
X163964000Y-85065000I0J51000D01*
G01*
X163964000Y-83065000D01*
G75*
G02*
X164015000Y-83014000I51000J0D01*
G01*
G37*
G36*
G01*
X162745000Y-83014000D02*
X163645000Y-83014000D01*
G75*
G02*
X163696000Y-83065000I0J-51000D01*
G01*
X163696000Y-85065000D01*
G75*
G02*
X163645000Y-85116000I-51000J0D01*
G01*
X162745000Y-85116000D01*
G75*
G02*
X162694000Y-85065000I0J51000D01*
G01*
X162694000Y-83065000D01*
G75*
G02*
X162745000Y-83014000I51000J0D01*
G01*
G37*
G36*
G01*
X161475000Y-83014000D02*
X162375000Y-83014000D01*
G75*
G02*
X162426000Y-83065000I0J-51000D01*
G01*
X162426000Y-85065000D01*
G75*
G02*
X162375000Y-85116000I-51000J0D01*
G01*
X161475000Y-85116000D01*
G75*
G02*
X161424000Y-85065000I0J51000D01*
G01*
X161424000Y-83065000D01*
G75*
G02*
X161475000Y-83014000I51000J0D01*
G01*
G37*
G36*
G01*
X160205000Y-83014000D02*
X161105000Y-83014000D01*
G75*
G02*
X161156000Y-83065000I0J-51000D01*
G01*
X161156000Y-85065000D01*
G75*
G02*
X161105000Y-85116000I-51000J0D01*
G01*
X160205000Y-85116000D01*
G75*
G02*
X160154000Y-85065000I0J51000D01*
G01*
X160154000Y-83065000D01*
G75*
G02*
X160205000Y-83014000I51000J0D01*
G01*
G37*
G36*
G01*
X158935000Y-83014000D02*
X159835000Y-83014000D01*
G75*
G02*
X159886000Y-83065000I0J-51000D01*
G01*
X159886000Y-85065000D01*
G75*
G02*
X159835000Y-85116000I-51000J0D01*
G01*
X158935000Y-85116000D01*
G75*
G02*
X158884000Y-85065000I0J51000D01*
G01*
X158884000Y-83065000D01*
G75*
G02*
X158935000Y-83014000I51000J0D01*
G01*
G37*
G36*
G01*
X157665000Y-83014000D02*
X158565000Y-83014000D01*
G75*
G02*
X158616000Y-83065000I0J-51000D01*
G01*
X158616000Y-85065000D01*
G75*
G02*
X158565000Y-85116000I-51000J0D01*
G01*
X157665000Y-85116000D01*
G75*
G02*
X157614000Y-85065000I0J51000D01*
G01*
X157614000Y-83065000D01*
G75*
G02*
X157665000Y-83014000I51000J0D01*
G01*
G37*
G36*
G01*
X156395000Y-83014000D02*
X157295000Y-83014000D01*
G75*
G02*
X157346000Y-83065000I0J-51000D01*
G01*
X157346000Y-85065000D01*
G75*
G02*
X157295000Y-85116000I-51000J0D01*
G01*
X156395000Y-85116000D01*
G75*
G02*
X156344000Y-85065000I0J51000D01*
G01*
X156344000Y-83065000D01*
G75*
G02*
X156395000Y-83014000I51000J0D01*
G01*
G37*
G36*
G01*
X155125000Y-83014000D02*
X156025000Y-83014000D01*
G75*
G02*
X156076000Y-83065000I0J-51000D01*
G01*
X156076000Y-85065000D01*
G75*
G02*
X156025000Y-85116000I-51000J0D01*
G01*
X155125000Y-85116000D01*
G75*
G02*
X155074000Y-85065000I0J51000D01*
G01*
X155074000Y-83065000D01*
G75*
G02*
X155125000Y-83014000I51000J0D01*
G01*
G37*
G36*
G01*
X132029000Y-80010000D02*
X132029000Y-78486000D01*
G75*
G02*
X132080000Y-78435000I51000J0D01*
G01*
X133604000Y-78435000D01*
G75*
G02*
X133655000Y-78486000I0J-51000D01*
G01*
X133655000Y-80010000D01*
G75*
G02*
X133604000Y-80061000I-51000J0D01*
G01*
X132080000Y-80061000D01*
G75*
G02*
X132029000Y-80010000I0J51000D01*
G01*
G37*
G36*
G01*
X132029000Y-77470000D02*
X132029000Y-75946000D01*
G75*
G02*
X132080000Y-75895000I51000J0D01*
G01*
X133604000Y-75895000D01*
G75*
G02*
X133655000Y-75946000I0J-51000D01*
G01*
X133655000Y-77470000D01*
G75*
G02*
X133604000Y-77521000I-51000J0D01*
G01*
X132080000Y-77521000D01*
G75*
G02*
X132029000Y-77470000I0J51000D01*
G01*
G37*
G36*
G01*
X132029000Y-74930000D02*
X132029000Y-73406000D01*
G75*
G02*
X132080000Y-73355000I51000J0D01*
G01*
X133604000Y-73355000D01*
G75*
G02*
X133655000Y-73406000I0J-51000D01*
G01*
X133655000Y-74930000D01*
G75*
G02*
X133604000Y-74981000I-51000J0D01*
G01*
X132080000Y-74981000D01*
G75*
G02*
X132029000Y-74930000I0J51000D01*
G01*
G37*
G36*
G01*
X132029000Y-72390000D02*
X132029000Y-70866000D01*
G75*
G02*
X132080000Y-70815000I51000J0D01*
G01*
X133604000Y-70815000D01*
G75*
G02*
X133655000Y-70866000I0J-51000D01*
G01*
X133655000Y-72390000D01*
G75*
G02*
X133604000Y-72441000I-51000J0D01*
G01*
X132080000Y-72441000D01*
G75*
G02*
X132029000Y-72390000I0J51000D01*
G01*
G37*
G36*
G01*
X149749253Y-122622625D02*
X149749253Y-126432625D01*
G75*
G02*
X149698253Y-126483625I-51000J0D01*
G01*
X145888253Y-126483625D01*
G75*
G02*
X145837253Y-126432625I0J51000D01*
G01*
X145837253Y-122622625D01*
G75*
G02*
X145888253Y-122571625I51000J0D01*
G01*
X149698253Y-122571625D01*
G75*
G02*
X149749253Y-122622625I0J-51000D01*
G01*
G37*
G36*
G01*
X149749253Y-127622625D02*
X149749253Y-131432625D01*
G75*
G02*
X149698253Y-131483625I-51000J0D01*
G01*
X145888253Y-131483625D01*
G75*
G02*
X145837253Y-131432625I0J51000D01*
G01*
X145837253Y-127622625D01*
G75*
G02*
X145888253Y-127571625I51000J0D01*
G01*
X149698253Y-127571625D01*
G75*
G02*
X149749253Y-127622625I0J-51000D01*
G01*
G37*
G36*
G01*
X142129253Y-127622625D02*
X142129253Y-131432625D01*
G75*
G02*
X142078253Y-131483625I-51000J0D01*
G01*
X138268253Y-131483625D01*
G75*
G02*
X138217253Y-131432625I0J51000D01*
G01*
X138217253Y-127622625D01*
G75*
G02*
X138268253Y-127571625I51000J0D01*
G01*
X142078253Y-127571625D01*
G75*
G02*
X142129253Y-127622625I0J-51000D01*
G01*
G37*
G36*
G01*
X142129253Y-122622625D02*
X142129253Y-126432625D01*
G75*
G02*
X142078253Y-126483625I-51000J0D01*
G01*
X138268253Y-126483625D01*
G75*
G02*
X138217253Y-126432625I0J51000D01*
G01*
X138217253Y-122622625D01*
G75*
G02*
X138268253Y-122571625I51000J0D01*
G01*
X142078253Y-122571625D01*
G75*
G02*
X142129253Y-122622625I0J-51000D01*
G01*
G37*
G36*
G01*
X137049253Y-122622625D02*
X137049253Y-126432625D01*
G75*
G02*
X136998253Y-126483625I-51000J0D01*
G01*
X133188253Y-126483625D01*
G75*
G02*
X133137253Y-126432625I0J51000D01*
G01*
X133137253Y-122622625D01*
G75*
G02*
X133188253Y-122571625I51000J0D01*
G01*
X136998253Y-122571625D01*
G75*
G02*
X137049253Y-122622625I0J-51000D01*
G01*
G37*
G36*
G01*
X137049253Y-127622625D02*
X137049253Y-131432625D01*
G75*
G02*
X136998253Y-131483625I-51000J0D01*
G01*
X133188253Y-131483625D01*
G75*
G02*
X133137253Y-131432625I0J51000D01*
G01*
X133137253Y-127622625D01*
G75*
G02*
X133188253Y-127571625I51000J0D01*
G01*
X136998253Y-127571625D01*
G75*
G02*
X137049253Y-127622625I0J-51000D01*
G01*
G37*
G36*
G01*
X154829253Y-127622625D02*
X154829253Y-131432625D01*
G75*
G02*
X154778253Y-131483625I-51000J0D01*
G01*
X150968253Y-131483625D01*
G75*
G02*
X150917253Y-131432625I0J51000D01*
G01*
X150917253Y-127622625D01*
G75*
G02*
X150968253Y-127571625I51000J0D01*
G01*
X154778253Y-127571625D01*
G75*
G02*
X154829253Y-127622625I0J-51000D01*
G01*
G37*
G36*
G01*
X154829253Y-122622625D02*
X154829253Y-126432625D01*
G75*
G02*
X154778253Y-126483625I-51000J0D01*
G01*
X150968253Y-126483625D01*
G75*
G02*
X150917253Y-126432625I0J51000D01*
G01*
X150917253Y-122622625D01*
G75*
G02*
X150968253Y-122571625I51000J0D01*
G01*
X154778253Y-122571625D01*
G75*
G02*
X154829253Y-122622625I0J-51000D01*
G01*
G37*
G36*
G01*
X187817012Y-122655028D02*
X187817012Y-126465028D01*
G75*
G02*
X187766012Y-126516028I-51000J0D01*
G01*
X183956012Y-126516028D01*
G75*
G02*
X183905012Y-126465028I0J51000D01*
G01*
X183905012Y-122655028D01*
G75*
G02*
X183956012Y-122604028I51000J0D01*
G01*
X187766012Y-122604028D01*
G75*
G02*
X187817012Y-122655028I0J-51000D01*
G01*
G37*
G36*
G01*
X187817012Y-127655028D02*
X187817012Y-131465028D01*
G75*
G02*
X187766012Y-131516028I-51000J0D01*
G01*
X183956012Y-131516028D01*
G75*
G02*
X183905012Y-131465028I0J51000D01*
G01*
X183905012Y-127655028D01*
G75*
G02*
X183956012Y-127604028I51000J0D01*
G01*
X187766012Y-127604028D01*
G75*
G02*
X187817012Y-127655028I0J-51000D01*
G01*
G37*
G36*
G01*
X206105012Y-117939528D02*
X206105012Y-121749528D01*
G75*
G02*
X206054012Y-121800528I-51000J0D01*
G01*
X202244012Y-121800528D01*
G75*
G02*
X202193012Y-121749528I0J51000D01*
G01*
X202193012Y-117939528D01*
G75*
G02*
X202244012Y-117888528I51000J0D01*
G01*
X206054012Y-117888528D01*
G75*
G02*
X206105012Y-117939528I0J-51000D01*
G01*
G37*
G36*
G01*
X206105012Y-112939528D02*
X206105012Y-116749528D01*
G75*
G02*
X206054012Y-116800528I-51000J0D01*
G01*
X202244012Y-116800528D01*
G75*
G02*
X202193012Y-116749528I0J51000D01*
G01*
X202193012Y-112939528D01*
G75*
G02*
X202244012Y-112888528I51000J0D01*
G01*
X206054012Y-112888528D01*
G75*
G02*
X206105012Y-112939528I0J-51000D01*
G01*
G37*
G36*
G01*
X201025012Y-112939528D02*
X201025012Y-116749528D01*
G75*
G02*
X200974012Y-116800528I-51000J0D01*
G01*
X197164012Y-116800528D01*
G75*
G02*
X197113012Y-116749528I0J51000D01*
G01*
X197113012Y-112939528D01*
G75*
G02*
X197164012Y-112888528I51000J0D01*
G01*
X200974012Y-112888528D01*
G75*
G02*
X201025012Y-112939528I0J-51000D01*
G01*
G37*
G36*
G01*
X201025012Y-117939528D02*
X201025012Y-121749528D01*
G75*
G02*
X200974012Y-121800528I-51000J0D01*
G01*
X197164012Y-121800528D01*
G75*
G02*
X197113012Y-121749528I0J51000D01*
G01*
X197113012Y-117939528D01*
G75*
G02*
X197164012Y-117888528I51000J0D01*
G01*
X200974012Y-117888528D01*
G75*
G02*
X201025012Y-117939528I0J-51000D01*
G01*
G37*
G36*
G01*
X167372052Y-127639337D02*
X167372052Y-131449337D01*
G75*
G02*
X167321052Y-131500337I-51000J0D01*
G01*
X163511052Y-131500337D01*
G75*
G02*
X163460052Y-131449337I0J51000D01*
G01*
X163460052Y-127639337D01*
G75*
G02*
X163511052Y-127588337I51000J0D01*
G01*
X167321052Y-127588337D01*
G75*
G02*
X167372052Y-127639337I0J-51000D01*
G01*
G37*
G36*
G01*
X167372052Y-122639337D02*
X167372052Y-126449337D01*
G75*
G02*
X167321052Y-126500337I-51000J0D01*
G01*
X163511052Y-126500337D01*
G75*
G02*
X163460052Y-126449337I0J51000D01*
G01*
X163460052Y-122639337D01*
G75*
G02*
X163511052Y-122588337I51000J0D01*
G01*
X167321052Y-122588337D01*
G75*
G02*
X167372052Y-122639337I0J-51000D01*
G01*
G37*
G36*
G01*
X180072052Y-122639337D02*
X180072052Y-126449337D01*
G75*
G02*
X180021052Y-126500337I-51000J0D01*
G01*
X176211052Y-126500337D01*
G75*
G02*
X176160052Y-126449337I0J51000D01*
G01*
X176160052Y-122639337D01*
G75*
G02*
X176211052Y-122588337I51000J0D01*
G01*
X180021052Y-122588337D01*
G75*
G02*
X180072052Y-122639337I0J-51000D01*
G01*
G37*
G36*
G01*
X180072052Y-127639337D02*
X180072052Y-131449337D01*
G75*
G02*
X180021052Y-131500337I-51000J0D01*
G01*
X176211052Y-131500337D01*
G75*
G02*
X176160052Y-131449337I0J51000D01*
G01*
X176160052Y-127639337D01*
G75*
G02*
X176211052Y-127588337I51000J0D01*
G01*
X180021052Y-127588337D01*
G75*
G02*
X180072052Y-127639337I0J-51000D01*
G01*
G37*
G36*
G01*
X174992052Y-127639337D02*
X174992052Y-131449337D01*
G75*
G02*
X174941052Y-131500337I-51000J0D01*
G01*
X171131052Y-131500337D01*
G75*
G02*
X171080052Y-131449337I0J51000D01*
G01*
X171080052Y-127639337D01*
G75*
G02*
X171131052Y-127588337I51000J0D01*
G01*
X174941052Y-127588337D01*
G75*
G02*
X174992052Y-127639337I0J-51000D01*
G01*
G37*
G36*
G01*
X174992052Y-122639337D02*
X174992052Y-126449337D01*
G75*
G02*
X174941052Y-126500337I-51000J0D01*
G01*
X171131052Y-126500337D01*
G75*
G02*
X171080052Y-126449337I0J51000D01*
G01*
X171080052Y-122639337D01*
G75*
G02*
X171131052Y-122588337I51000J0D01*
G01*
X174941052Y-122588337D01*
G75*
G02*
X174992052Y-122639337I0J-51000D01*
G01*
G37*
G36*
G01*
X192897012Y-122655028D02*
X192897012Y-126465028D01*
G75*
G02*
X192846012Y-126516028I-51000J0D01*
G01*
X189036012Y-126516028D01*
G75*
G02*
X188985012Y-126465028I0J51000D01*
G01*
X188985012Y-122655028D01*
G75*
G02*
X189036012Y-122604028I51000J0D01*
G01*
X192846012Y-122604028D01*
G75*
G02*
X192897012Y-122655028I0J-51000D01*
G01*
G37*
G36*
G01*
X192897012Y-127655028D02*
X192897012Y-131465028D01*
G75*
G02*
X192846012Y-131516028I-51000J0D01*
G01*
X189036012Y-131516028D01*
G75*
G02*
X188985012Y-131465028I0J51000D01*
G01*
X188985012Y-127655028D01*
G75*
G02*
X189036012Y-127604028I51000J0D01*
G01*
X192846012Y-127604028D01*
G75*
G02*
X192897012Y-127655028I0J-51000D01*
G01*
G37*
G36*
G01*
X162292052Y-127639337D02*
X162292052Y-131449337D01*
G75*
G02*
X162241052Y-131500337I-51000J0D01*
G01*
X158431052Y-131500337D01*
G75*
G02*
X158380052Y-131449337I0J51000D01*
G01*
X158380052Y-127639337D01*
G75*
G02*
X158431052Y-127588337I51000J0D01*
G01*
X162241052Y-127588337D01*
G75*
G02*
X162292052Y-127639337I0J-51000D01*
G01*
G37*
G36*
G01*
X162292052Y-122639337D02*
X162292052Y-126449337D01*
G75*
G02*
X162241052Y-126500337I-51000J0D01*
G01*
X158431052Y-126500337D01*
G75*
G02*
X158380052Y-126449337I0J51000D01*
G01*
X158380052Y-122639337D01*
G75*
G02*
X158431052Y-122588337I51000J0D01*
G01*
X162241052Y-122588337D01*
G75*
G02*
X162292052Y-122639337I0J-51000D01*
G01*
G37*
D10*
X109220000Y-74930000D03*
X109220000Y-79430000D03*
X102720000Y-74930000D03*
X102720000Y-79430000D03*
X102720000Y-68000000D03*
X102720000Y-63500000D03*
X109220000Y-68000000D03*
X109220000Y-63500000D03*
G36*
G01*
X131445000Y-92485172D02*
X131445000Y-93442828D01*
G75*
G02*
X131172828Y-93715000I-272172J0D01*
G01*
X130465172Y-93715000D01*
G75*
G02*
X130193000Y-93442828I0J272172D01*
G01*
X130193000Y-92485172D01*
G75*
G02*
X130465172Y-92213000I272172J0D01*
G01*
X131172828Y-92213000D01*
G75*
G02*
X131445000Y-92485172I0J-272172D01*
G01*
G37*
G36*
G01*
X129395000Y-92485172D02*
X129395000Y-93442828D01*
G75*
G02*
X129122828Y-93715000I-272172J0D01*
G01*
X128415172Y-93715000D01*
G75*
G02*
X128143000Y-93442828I0J272172D01*
G01*
X128143000Y-92485172D01*
G75*
G02*
X128415172Y-92213000I272172J0D01*
G01*
X129122828Y-92213000D01*
G75*
G02*
X129395000Y-92485172I0J-272172D01*
G01*
G37*
G36*
G01*
X126129000Y-93442828D02*
X126129000Y-92485172D01*
G75*
G02*
X126401172Y-92213000I272172J0D01*
G01*
X127108828Y-92213000D01*
G75*
G02*
X127381000Y-92485172I0J-272172D01*
G01*
X127381000Y-93442828D01*
G75*
G02*
X127108828Y-93715000I-272172J0D01*
G01*
X126401172Y-93715000D01*
G75*
G02*
X126129000Y-93442828I0J272172D01*
G01*
G37*
G36*
G01*
X124079000Y-93442828D02*
X124079000Y-92485172D01*
G75*
G02*
X124351172Y-92213000I272172J0D01*
G01*
X125058828Y-92213000D01*
G75*
G02*
X125331000Y-92485172I0J-272172D01*
G01*
X125331000Y-93442828D01*
G75*
G02*
X125058828Y-93715000I-272172J0D01*
G01*
X124351172Y-93715000D01*
G75*
G02*
X124079000Y-93442828I0J272172D01*
G01*
G37*
G36*
G01*
X113919000Y-95728828D02*
X113919000Y-94771172D01*
G75*
G02*
X114191172Y-94499000I272172J0D01*
G01*
X114898828Y-94499000D01*
G75*
G02*
X115171000Y-94771172I0J-272172D01*
G01*
X115171000Y-95728828D01*
G75*
G02*
X114898828Y-96001000I-272172J0D01*
G01*
X114191172Y-96001000D01*
G75*
G02*
X113919000Y-95728828I0J272172D01*
G01*
G37*
G36*
G01*
X115969000Y-95728828D02*
X115969000Y-94771172D01*
G75*
G02*
X116241172Y-94499000I272172J0D01*
G01*
X116948828Y-94499000D01*
G75*
G02*
X117221000Y-94771172I0J-272172D01*
G01*
X117221000Y-95728828D01*
G75*
G02*
X116948828Y-96001000I-272172J0D01*
G01*
X116241172Y-96001000D01*
G75*
G02*
X115969000Y-95728828I0J272172D01*
G01*
G37*
G36*
G01*
X155430000Y-63656172D02*
X155430000Y-64613828D01*
G75*
G02*
X155157828Y-64886000I-272172J0D01*
G01*
X154450172Y-64886000D01*
G75*
G02*
X154178000Y-64613828I0J272172D01*
G01*
X154178000Y-63656172D01*
G75*
G02*
X154450172Y-63384000I272172J0D01*
G01*
X155157828Y-63384000D01*
G75*
G02*
X155430000Y-63656172I0J-272172D01*
G01*
G37*
G36*
G01*
X157480000Y-63656172D02*
X157480000Y-64613828D01*
G75*
G02*
X157207828Y-64886000I-272172J0D01*
G01*
X156500172Y-64886000D01*
G75*
G02*
X156228000Y-64613828I0J272172D01*
G01*
X156228000Y-63656172D01*
G75*
G02*
X156500172Y-63384000I272172J0D01*
G01*
X157207828Y-63384000D01*
G75*
G02*
X157480000Y-63656172I0J-272172D01*
G01*
G37*
G36*
G01*
X157480000Y-61370172D02*
X157480000Y-62327828D01*
G75*
G02*
X157207828Y-62600000I-272172J0D01*
G01*
X156500172Y-62600000D01*
G75*
G02*
X156228000Y-62327828I0J272172D01*
G01*
X156228000Y-61370172D01*
G75*
G02*
X156500172Y-61098000I272172J0D01*
G01*
X157207828Y-61098000D01*
G75*
G02*
X157480000Y-61370172I0J-272172D01*
G01*
G37*
G36*
G01*
X155430000Y-61370172D02*
X155430000Y-62327828D01*
G75*
G02*
X155157828Y-62600000I-272172J0D01*
G01*
X154450172Y-62600000D01*
G75*
G02*
X154178000Y-62327828I0J272172D01*
G01*
X154178000Y-61370172D01*
G75*
G02*
X154450172Y-61098000I272172J0D01*
G01*
X155157828Y-61098000D01*
G75*
G02*
X155430000Y-61370172I0J-272172D01*
G01*
G37*
G36*
G01*
X198519000Y-84933828D02*
X198519000Y-83976172D01*
G75*
G02*
X198791172Y-83704000I272172J0D01*
G01*
X199498828Y-83704000D01*
G75*
G02*
X199771000Y-83976172I0J-272172D01*
G01*
X199771000Y-84933828D01*
G75*
G02*
X199498828Y-85206000I-272172J0D01*
G01*
X198791172Y-85206000D01*
G75*
G02*
X198519000Y-84933828I0J272172D01*
G01*
G37*
G36*
G01*
X196469000Y-84933828D02*
X196469000Y-83976172D01*
G75*
G02*
X196741172Y-83704000I272172J0D01*
G01*
X197448828Y-83704000D01*
G75*
G02*
X197721000Y-83976172I0J-272172D01*
G01*
X197721000Y-84933828D01*
G75*
G02*
X197448828Y-85206000I-272172J0D01*
G01*
X196741172Y-85206000D01*
G75*
G02*
X196469000Y-84933828I0J272172D01*
G01*
G37*
G36*
G01*
X196469000Y-87473828D02*
X196469000Y-86516172D01*
G75*
G02*
X196741172Y-86244000I272172J0D01*
G01*
X197448828Y-86244000D01*
G75*
G02*
X197721000Y-86516172I0J-272172D01*
G01*
X197721000Y-87473828D01*
G75*
G02*
X197448828Y-87746000I-272172J0D01*
G01*
X196741172Y-87746000D01*
G75*
G02*
X196469000Y-87473828I0J272172D01*
G01*
G37*
G36*
G01*
X198519000Y-87473828D02*
X198519000Y-86516172D01*
G75*
G02*
X198791172Y-86244000I272172J0D01*
G01*
X199498828Y-86244000D01*
G75*
G02*
X199771000Y-86516172I0J-272172D01*
G01*
X199771000Y-87473828D01*
G75*
G02*
X199498828Y-87746000I-272172J0D01*
G01*
X198791172Y-87746000D01*
G75*
G02*
X198519000Y-87473828I0J272172D01*
G01*
G37*
G36*
G01*
X198519000Y-77313828D02*
X198519000Y-76356172D01*
G75*
G02*
X198791172Y-76084000I272172J0D01*
G01*
X199498828Y-76084000D01*
G75*
G02*
X199771000Y-76356172I0J-272172D01*
G01*
X199771000Y-77313828D01*
G75*
G02*
X199498828Y-77586000I-272172J0D01*
G01*
X198791172Y-77586000D01*
G75*
G02*
X198519000Y-77313828I0J272172D01*
G01*
G37*
G36*
G01*
X196469000Y-77313828D02*
X196469000Y-76356172D01*
G75*
G02*
X196741172Y-76084000I272172J0D01*
G01*
X197448828Y-76084000D01*
G75*
G02*
X197721000Y-76356172I0J-272172D01*
G01*
X197721000Y-77313828D01*
G75*
G02*
X197448828Y-77586000I-272172J0D01*
G01*
X196741172Y-77586000D01*
G75*
G02*
X196469000Y-77313828I0J272172D01*
G01*
G37*
G36*
G01*
X196469000Y-79853828D02*
X196469000Y-78896172D01*
G75*
G02*
X196741172Y-78624000I272172J0D01*
G01*
X197448828Y-78624000D01*
G75*
G02*
X197721000Y-78896172I0J-272172D01*
G01*
X197721000Y-79853828D01*
G75*
G02*
X197448828Y-80126000I-272172J0D01*
G01*
X196741172Y-80126000D01*
G75*
G02*
X196469000Y-79853828I0J272172D01*
G01*
G37*
G36*
G01*
X198519000Y-79853828D02*
X198519000Y-78896172D01*
G75*
G02*
X198791172Y-78624000I272172J0D01*
G01*
X199498828Y-78624000D01*
G75*
G02*
X199771000Y-78896172I0J-272172D01*
G01*
X199771000Y-79853828D01*
G75*
G02*
X199498828Y-80126000I-272172J0D01*
G01*
X198791172Y-80126000D01*
G75*
G02*
X198519000Y-79853828I0J272172D01*
G01*
G37*
G36*
G01*
X201499000Y-59285000D02*
X201499000Y-57555000D01*
G75*
G02*
X201550000Y-57504000I51000J0D01*
G01*
X203580000Y-57504000D01*
G75*
G02*
X203631000Y-57555000I0J-51000D01*
G01*
X203631000Y-59285000D01*
G75*
G02*
X203580000Y-59336000I-51000J0D01*
G01*
X201550000Y-59336000D01*
G75*
G02*
X201499000Y-59285000I0J51000D01*
G01*
G37*
D11*
X202565000Y-60960000D03*
X202565000Y-63500000D03*
X202565000Y-66040000D03*
D12*
X204725000Y-63500000D03*
G36*
G01*
X112915000Y-94400000D02*
X112915000Y-96100000D01*
G75*
G02*
X112864000Y-96151000I-51000J0D01*
G01*
X111164000Y-96151000D01*
G75*
G02*
X111113000Y-96100000I0J51000D01*
G01*
X111113000Y-94400000D01*
G75*
G02*
X111164000Y-94349000I51000J0D01*
G01*
X112864000Y-94349000D01*
G75*
G02*
X112915000Y-94400000I0J-51000D01*
G01*
G37*
D13*
X112014000Y-92750000D03*
X110014000Y-92750000D03*
X110014000Y-95250000D03*
D14*
X107304000Y-100020000D03*
X107304000Y-87980000D03*
G36*
G01*
X137688000Y-88154000D02*
X137688000Y-90154000D01*
G75*
G02*
X137637000Y-90205000I-51000J0D01*
G01*
X129762000Y-90205000D01*
G75*
G02*
X129711000Y-90154000I0J51000D01*
G01*
X129711000Y-88154000D01*
G75*
G02*
X129762000Y-88103000I51000J0D01*
G01*
X137637000Y-88103000D01*
G75*
G02*
X137688000Y-88154000I0J-51000D01*
G01*
G37*
G36*
G01*
X125813000Y-88154000D02*
X125813000Y-90154000D01*
G75*
G02*
X125762000Y-90205000I-51000J0D01*
G01*
X117887000Y-90205000D01*
G75*
G02*
X117836000Y-90154000I0J51000D01*
G01*
X117836000Y-88154000D01*
G75*
G02*
X117887000Y-88103000I51000J0D01*
G01*
X125762000Y-88103000D01*
G75*
G02*
X125813000Y-88154000I0J-51000D01*
G01*
G37*
G36*
G01*
X192485001Y-73781000D02*
X189784999Y-73781000D01*
G75*
G02*
X189734000Y-73730001I0J50999D01*
G01*
X189734000Y-70229999D01*
G75*
G02*
X189784999Y-70179000I50999J0D01*
G01*
X192485001Y-70179000D01*
G75*
G02*
X192536000Y-70229999I0J-50999D01*
G01*
X192536000Y-73730001D01*
G75*
G02*
X192485001Y-73781000I-50999J0D01*
G01*
G37*
G36*
G01*
X192485001Y-66981000D02*
X189784999Y-66981000D01*
G75*
G02*
X189734000Y-66930001I0J50999D01*
G01*
X189734000Y-63429999D01*
G75*
G02*
X189784999Y-63379000I50999J0D01*
G01*
X192485001Y-63379000D01*
G75*
G02*
X192536000Y-63429999I0J-50999D01*
G01*
X192536000Y-66930001D01*
G75*
G02*
X192485001Y-66981000I-50999J0D01*
G01*
G37*
G36*
G01*
X197565001Y-66981000D02*
X194864999Y-66981000D01*
G75*
G02*
X194814000Y-66930001I0J50999D01*
G01*
X194814000Y-63429999D01*
G75*
G02*
X194864999Y-63379000I50999J0D01*
G01*
X197565001Y-63379000D01*
G75*
G02*
X197616000Y-63429999I0J-50999D01*
G01*
X197616000Y-66930001D01*
G75*
G02*
X197565001Y-66981000I-50999J0D01*
G01*
G37*
G36*
G01*
X197565001Y-73781000D02*
X194864999Y-73781000D01*
G75*
G02*
X194814000Y-73730001I0J50999D01*
G01*
X194814000Y-70229999D01*
G75*
G02*
X194864999Y-70179000I50999J0D01*
G01*
X197565001Y-70179000D01*
G75*
G02*
X197616000Y-70229999I0J-50999D01*
G01*
X197616000Y-73730001D01*
G75*
G02*
X197565001Y-73781000I-50999J0D01*
G01*
G37*
G36*
G01*
X184704999Y-63379000D02*
X187405001Y-63379000D01*
G75*
G02*
X187456000Y-63429999I0J-50999D01*
G01*
X187456000Y-66930001D01*
G75*
G02*
X187405001Y-66981000I-50999J0D01*
G01*
X184704999Y-66981000D01*
G75*
G02*
X184654000Y-66930001I0J50999D01*
G01*
X184654000Y-63429999D01*
G75*
G02*
X184704999Y-63379000I50999J0D01*
G01*
G37*
G36*
G01*
X184704999Y-70179000D02*
X187405001Y-70179000D01*
G75*
G02*
X187456000Y-70229999I0J-50999D01*
G01*
X187456000Y-73730001D01*
G75*
G02*
X187405001Y-73781000I-50999J0D01*
G01*
X184704999Y-73781000D01*
G75*
G02*
X184654000Y-73730001I0J50999D01*
G01*
X184654000Y-70229999D01*
G75*
G02*
X184704999Y-70179000I50999J0D01*
G01*
G37*
G36*
G01*
X111374000Y-100541385D02*
X111374000Y-97578615D01*
G75*
G02*
X111643615Y-97309000I269615J0D01*
G01*
X112506385Y-97309000D01*
G75*
G02*
X112776000Y-97578615I0J-269615D01*
G01*
X112776000Y-100541385D01*
G75*
G02*
X112506385Y-100811000I-269615J0D01*
G01*
X111643615Y-100811000D01*
G75*
G02*
X111374000Y-100541385I0J269615D01*
G01*
G37*
G36*
G01*
X115824000Y-100541385D02*
X115824000Y-97578615D01*
G75*
G02*
X116093615Y-97309000I269615J0D01*
G01*
X116956385Y-97309000D01*
G75*
G02*
X117226000Y-97578615I0J-269615D01*
G01*
X117226000Y-100541385D01*
G75*
G02*
X116956385Y-100811000I-269615J0D01*
G01*
X116093615Y-100811000D01*
G75*
G02*
X115824000Y-100541385I0J269615D01*
G01*
G37*
G36*
G01*
X116764000Y-127635000D02*
X116764000Y-131445000D01*
G75*
G02*
X116713000Y-131496000I-51000J0D01*
G01*
X112903000Y-131496000D01*
G75*
G02*
X112852000Y-131445000I0J51000D01*
G01*
X112852000Y-127635000D01*
G75*
G02*
X112903000Y-127584000I51000J0D01*
G01*
X116713000Y-127584000D01*
G75*
G02*
X116764000Y-127635000I0J-51000D01*
G01*
G37*
G36*
G01*
X116764000Y-122635000D02*
X116764000Y-126445000D01*
G75*
G02*
X116713000Y-126496000I-51000J0D01*
G01*
X112903000Y-126496000D01*
G75*
G02*
X112852000Y-126445000I0J51000D01*
G01*
X112852000Y-122635000D01*
G75*
G02*
X112903000Y-122584000I51000J0D01*
G01*
X116713000Y-122584000D01*
G75*
G02*
X116764000Y-122635000I0J-51000D01*
G01*
G37*
G36*
G01*
X111684000Y-122635000D02*
X111684000Y-126445000D01*
G75*
G02*
X111633000Y-126496000I-51000J0D01*
G01*
X107823000Y-126496000D01*
G75*
G02*
X107772000Y-126445000I0J51000D01*
G01*
X107772000Y-122635000D01*
G75*
G02*
X107823000Y-122584000I51000J0D01*
G01*
X111633000Y-122584000D01*
G75*
G02*
X111684000Y-122635000I0J-51000D01*
G01*
G37*
G36*
G01*
X111684000Y-127635000D02*
X111684000Y-131445000D01*
G75*
G02*
X111633000Y-131496000I-51000J0D01*
G01*
X107823000Y-131496000D01*
G75*
G02*
X107772000Y-131445000I0J51000D01*
G01*
X107772000Y-127635000D01*
G75*
G02*
X107823000Y-127584000I51000J0D01*
G01*
X111633000Y-127584000D01*
G75*
G02*
X111684000Y-127635000I0J-51000D01*
G01*
G37*
G36*
G01*
X129464000Y-127635000D02*
X129464000Y-131445000D01*
G75*
G02*
X129413000Y-131496000I-51000J0D01*
G01*
X125603000Y-131496000D01*
G75*
G02*
X125552000Y-131445000I0J51000D01*
G01*
X125552000Y-127635000D01*
G75*
G02*
X125603000Y-127584000I51000J0D01*
G01*
X129413000Y-127584000D01*
G75*
G02*
X129464000Y-127635000I0J-51000D01*
G01*
G37*
G36*
G01*
X129464000Y-122635000D02*
X129464000Y-126445000D01*
G75*
G02*
X129413000Y-126496000I-51000J0D01*
G01*
X125603000Y-126496000D01*
G75*
G02*
X125552000Y-126445000I0J51000D01*
G01*
X125552000Y-122635000D01*
G75*
G02*
X125603000Y-122584000I51000J0D01*
G01*
X129413000Y-122584000D01*
G75*
G02*
X129464000Y-122635000I0J-51000D01*
G01*
G37*
G36*
G01*
X124384000Y-122635000D02*
X124384000Y-126445000D01*
G75*
G02*
X124333000Y-126496000I-51000J0D01*
G01*
X120523000Y-126496000D01*
G75*
G02*
X120472000Y-126445000I0J51000D01*
G01*
X120472000Y-122635000D01*
G75*
G02*
X120523000Y-122584000I51000J0D01*
G01*
X124333000Y-122584000D01*
G75*
G02*
X124384000Y-122635000I0J-51000D01*
G01*
G37*
G36*
G01*
X124384000Y-127635000D02*
X124384000Y-131445000D01*
G75*
G02*
X124333000Y-131496000I-51000J0D01*
G01*
X120523000Y-131496000D01*
G75*
G02*
X120472000Y-131445000I0J51000D01*
G01*
X120472000Y-127635000D01*
G75*
G02*
X120523000Y-127584000I51000J0D01*
G01*
X124333000Y-127584000D01*
G75*
G02*
X124384000Y-127635000I0J-51000D01*
G01*
G37*
D15*
X123916640Y-52042461D03*
G36*
G01*
X124666640Y-50618461D02*
X123166640Y-50618461D01*
G75*
G02*
X123115640Y-50567461I0J51000D01*
G01*
X123115640Y-49517461D01*
G75*
G02*
X123166640Y-49466461I51000J0D01*
G01*
X124666640Y-49466461D01*
G75*
G02*
X124717640Y-49517461I0J-51000D01*
G01*
X124717640Y-50567461D01*
G75*
G02*
X124666640Y-50618461I-51000J0D01*
G01*
G37*
G36*
G01*
X124666640Y-54618461D02*
X123166640Y-54618461D01*
G75*
G02*
X123115640Y-54567461I0J51000D01*
G01*
X123115640Y-53517461D01*
G75*
G02*
X123166640Y-53466461I51000J0D01*
G01*
X124666640Y-53466461D01*
G75*
G02*
X124717640Y-53517461I0J-51000D01*
G01*
X124717640Y-54567461D01*
G75*
G02*
X124666640Y-54618461I-51000J0D01*
G01*
G37*
G36*
G01*
X115776640Y-54618461D02*
X114276640Y-54618461D01*
G75*
G02*
X114225640Y-54567461I0J51000D01*
G01*
X114225640Y-53517461D01*
G75*
G02*
X114276640Y-53466461I51000J0D01*
G01*
X115776640Y-53466461D01*
G75*
G02*
X115827640Y-53517461I0J-51000D01*
G01*
X115827640Y-54567461D01*
G75*
G02*
X115776640Y-54618461I-51000J0D01*
G01*
G37*
G36*
G01*
X115776640Y-50618461D02*
X114276640Y-50618461D01*
G75*
G02*
X114225640Y-50567461I0J51000D01*
G01*
X114225640Y-49517461D01*
G75*
G02*
X114276640Y-49466461I51000J0D01*
G01*
X115776640Y-49466461D01*
G75*
G02*
X115827640Y-49517461I0J-51000D01*
G01*
X115827640Y-50567461D01*
G75*
G02*
X115776640Y-50618461I-51000J0D01*
G01*
G37*
X115026640Y-52042461D03*
X120106640Y-52042461D03*
G36*
G01*
X120856640Y-50618461D02*
X119356640Y-50618461D01*
G75*
G02*
X119305640Y-50567461I0J51000D01*
G01*
X119305640Y-49517461D01*
G75*
G02*
X119356640Y-49466461I51000J0D01*
G01*
X120856640Y-49466461D01*
G75*
G02*
X120907640Y-49517461I0J-51000D01*
G01*
X120907640Y-50567461D01*
G75*
G02*
X120856640Y-50618461I-51000J0D01*
G01*
G37*
G36*
G01*
X120856640Y-54618461D02*
X119356640Y-54618461D01*
G75*
G02*
X119305640Y-54567461I0J51000D01*
G01*
X119305640Y-53517461D01*
G75*
G02*
X119356640Y-53466461I51000J0D01*
G01*
X120856640Y-53466461D01*
G75*
G02*
X120907640Y-53517461I0J-51000D01*
G01*
X120907640Y-54567461D01*
G75*
G02*
X120856640Y-54618461I-51000J0D01*
G01*
G37*
G36*
G01*
X111966640Y-54618461D02*
X110466640Y-54618461D01*
G75*
G02*
X110415640Y-54567461I0J51000D01*
G01*
X110415640Y-53517461D01*
G75*
G02*
X110466640Y-53466461I51000J0D01*
G01*
X111966640Y-53466461D01*
G75*
G02*
X112017640Y-53517461I0J-51000D01*
G01*
X112017640Y-54567461D01*
G75*
G02*
X111966640Y-54618461I-51000J0D01*
G01*
G37*
G36*
G01*
X111966640Y-50618461D02*
X110466640Y-50618461D01*
G75*
G02*
X110415640Y-50567461I0J51000D01*
G01*
X110415640Y-49517461D01*
G75*
G02*
X110466640Y-49466461I51000J0D01*
G01*
X111966640Y-49466461D01*
G75*
G02*
X112017640Y-49517461I0J-51000D01*
G01*
X112017640Y-50567461D01*
G75*
G02*
X111966640Y-50618461I-51000J0D01*
G01*
G37*
X111216640Y-52042461D03*
G36*
G01*
X137922000Y-50343000D02*
X136398000Y-50343000D01*
G75*
G02*
X136347000Y-50292000I0J51000D01*
G01*
X136347000Y-48768000D01*
G75*
G02*
X136398000Y-48717000I51000J0D01*
G01*
X137922000Y-48717000D01*
G75*
G02*
X137973000Y-48768000I0J-51000D01*
G01*
X137973000Y-50292000D01*
G75*
G02*
X137922000Y-50343000I-51000J0D01*
G01*
G37*
G36*
G01*
X135382000Y-50343000D02*
X133858000Y-50343000D01*
G75*
G02*
X133807000Y-50292000I0J51000D01*
G01*
X133807000Y-48768000D01*
G75*
G02*
X133858000Y-48717000I51000J0D01*
G01*
X135382000Y-48717000D01*
G75*
G02*
X135433000Y-48768000I0J-51000D01*
G01*
X135433000Y-50292000D01*
G75*
G02*
X135382000Y-50343000I-51000J0D01*
G01*
G37*
G36*
G01*
X132842000Y-50343000D02*
X131318000Y-50343000D01*
G75*
G02*
X131267000Y-50292000I0J51000D01*
G01*
X131267000Y-48768000D01*
G75*
G02*
X131318000Y-48717000I51000J0D01*
G01*
X132842000Y-48717000D01*
G75*
G02*
X132893000Y-48768000I0J-51000D01*
G01*
X132893000Y-50292000D01*
G75*
G02*
X132842000Y-50343000I-51000J0D01*
G01*
G37*
G36*
G01*
X130302000Y-50343000D02*
X128778000Y-50343000D01*
G75*
G02*
X128727000Y-50292000I0J51000D01*
G01*
X128727000Y-48768000D01*
G75*
G02*
X128778000Y-48717000I51000J0D01*
G01*
X130302000Y-48717000D01*
G75*
G02*
X130353000Y-48768000I0J-51000D01*
G01*
X130353000Y-50292000D01*
G75*
G02*
X130302000Y-50343000I-51000J0D01*
G01*
G37*
G36*
G01*
X179832000Y-52883000D02*
X178308000Y-52883000D01*
G75*
G02*
X178257000Y-52832000I0J51000D01*
G01*
X178257000Y-51308000D01*
G75*
G02*
X178308000Y-51257000I51000J0D01*
G01*
X179832000Y-51257000D01*
G75*
G02*
X179883000Y-51308000I0J-51000D01*
G01*
X179883000Y-52832000D01*
G75*
G02*
X179832000Y-52883000I-51000J0D01*
G01*
G37*
G36*
G01*
X179832000Y-50343000D02*
X178308000Y-50343000D01*
G75*
G02*
X178257000Y-50292000I0J51000D01*
G01*
X178257000Y-48768000D01*
G75*
G02*
X178308000Y-48717000I51000J0D01*
G01*
X179832000Y-48717000D01*
G75*
G02*
X179883000Y-48768000I0J-51000D01*
G01*
X179883000Y-50292000D01*
G75*
G02*
X179832000Y-50343000I-51000J0D01*
G01*
G37*
G36*
G01*
X182372000Y-52883000D02*
X180848000Y-52883000D01*
G75*
G02*
X180797000Y-52832000I0J51000D01*
G01*
X180797000Y-51308000D01*
G75*
G02*
X180848000Y-51257000I51000J0D01*
G01*
X182372000Y-51257000D01*
G75*
G02*
X182423000Y-51308000I0J-51000D01*
G01*
X182423000Y-52832000D01*
G75*
G02*
X182372000Y-52883000I-51000J0D01*
G01*
G37*
G36*
G01*
X182372000Y-50343000D02*
X180848000Y-50343000D01*
G75*
G02*
X180797000Y-50292000I0J51000D01*
G01*
X180797000Y-48768000D01*
G75*
G02*
X180848000Y-48717000I51000J0D01*
G01*
X182372000Y-48717000D01*
G75*
G02*
X182423000Y-48768000I0J-51000D01*
G01*
X182423000Y-50292000D01*
G75*
G02*
X182372000Y-50343000I-51000J0D01*
G01*
G37*
G36*
G01*
X184912000Y-52883000D02*
X183388000Y-52883000D01*
G75*
G02*
X183337000Y-52832000I0J51000D01*
G01*
X183337000Y-51308000D01*
G75*
G02*
X183388000Y-51257000I51000J0D01*
G01*
X184912000Y-51257000D01*
G75*
G02*
X184963000Y-51308000I0J-51000D01*
G01*
X184963000Y-52832000D01*
G75*
G02*
X184912000Y-52883000I-51000J0D01*
G01*
G37*
G36*
G01*
X184912000Y-50343000D02*
X183388000Y-50343000D01*
G75*
G02*
X183337000Y-50292000I0J51000D01*
G01*
X183337000Y-48768000D01*
G75*
G02*
X183388000Y-48717000I51000J0D01*
G01*
X184912000Y-48717000D01*
G75*
G02*
X184963000Y-48768000I0J-51000D01*
G01*
X184963000Y-50292000D01*
G75*
G02*
X184912000Y-50343000I-51000J0D01*
G01*
G37*
G36*
G01*
X188722000Y-52883000D02*
X187198000Y-52883000D01*
G75*
G02*
X187147000Y-52832000I0J51000D01*
G01*
X187147000Y-51308000D01*
G75*
G02*
X187198000Y-51257000I51000J0D01*
G01*
X188722000Y-51257000D01*
G75*
G02*
X188773000Y-51308000I0J-51000D01*
G01*
X188773000Y-52832000D01*
G75*
G02*
X188722000Y-52883000I-51000J0D01*
G01*
G37*
G36*
G01*
X188722000Y-50343000D02*
X187198000Y-50343000D01*
G75*
G02*
X187147000Y-50292000I0J51000D01*
G01*
X187147000Y-48768000D01*
G75*
G02*
X187198000Y-48717000I51000J0D01*
G01*
X188722000Y-48717000D01*
G75*
G02*
X188773000Y-48768000I0J-51000D01*
G01*
X188773000Y-50292000D01*
G75*
G02*
X188722000Y-50343000I-51000J0D01*
G01*
G37*
G36*
G01*
X191262000Y-52883000D02*
X189738000Y-52883000D01*
G75*
G02*
X189687000Y-52832000I0J51000D01*
G01*
X189687000Y-51308000D01*
G75*
G02*
X189738000Y-51257000I51000J0D01*
G01*
X191262000Y-51257000D01*
G75*
G02*
X191313000Y-51308000I0J-51000D01*
G01*
X191313000Y-52832000D01*
G75*
G02*
X191262000Y-52883000I-51000J0D01*
G01*
G37*
G36*
G01*
X191262000Y-50343000D02*
X189738000Y-50343000D01*
G75*
G02*
X189687000Y-50292000I0J51000D01*
G01*
X189687000Y-48768000D01*
G75*
G02*
X189738000Y-48717000I51000J0D01*
G01*
X191262000Y-48717000D01*
G75*
G02*
X191313000Y-48768000I0J-51000D01*
G01*
X191313000Y-50292000D01*
G75*
G02*
X191262000Y-50343000I-51000J0D01*
G01*
G37*
G36*
G01*
X193802000Y-52883000D02*
X192278000Y-52883000D01*
G75*
G02*
X192227000Y-52832000I0J51000D01*
G01*
X192227000Y-51308000D01*
G75*
G02*
X192278000Y-51257000I51000J0D01*
G01*
X193802000Y-51257000D01*
G75*
G02*
X193853000Y-51308000I0J-51000D01*
G01*
X193853000Y-52832000D01*
G75*
G02*
X193802000Y-52883000I-51000J0D01*
G01*
G37*
G36*
G01*
X193802000Y-50343000D02*
X192278000Y-50343000D01*
G75*
G02*
X192227000Y-50292000I0J51000D01*
G01*
X192227000Y-48768000D01*
G75*
G02*
X192278000Y-48717000I51000J0D01*
G01*
X193802000Y-48717000D01*
G75*
G02*
X193853000Y-48768000I0J-51000D01*
G01*
X193853000Y-50292000D01*
G75*
G02*
X193802000Y-50343000I-51000J0D01*
G01*
G37*
G36*
G01*
X196342000Y-52883000D02*
X194818000Y-52883000D01*
G75*
G02*
X194767000Y-52832000I0J51000D01*
G01*
X194767000Y-51308000D01*
G75*
G02*
X194818000Y-51257000I51000J0D01*
G01*
X196342000Y-51257000D01*
G75*
G02*
X196393000Y-51308000I0J-51000D01*
G01*
X196393000Y-52832000D01*
G75*
G02*
X196342000Y-52883000I-51000J0D01*
G01*
G37*
G36*
G01*
X196342000Y-50343000D02*
X194818000Y-50343000D01*
G75*
G02*
X194767000Y-50292000I0J51000D01*
G01*
X194767000Y-48768000D01*
G75*
G02*
X194818000Y-48717000I51000J0D01*
G01*
X196342000Y-48717000D01*
G75*
G02*
X196393000Y-48768000I0J-51000D01*
G01*
X196393000Y-50292000D01*
G75*
G02*
X196342000Y-50343000I-51000J0D01*
G01*
G37*
G36*
G01*
X165862000Y-52883000D02*
X164338000Y-52883000D01*
G75*
G02*
X164287000Y-52832000I0J51000D01*
G01*
X164287000Y-51308000D01*
G75*
G02*
X164338000Y-51257000I51000J0D01*
G01*
X165862000Y-51257000D01*
G75*
G02*
X165913000Y-51308000I0J-51000D01*
G01*
X165913000Y-52832000D01*
G75*
G02*
X165862000Y-52883000I-51000J0D01*
G01*
G37*
G36*
G01*
X165862000Y-50343000D02*
X164338000Y-50343000D01*
G75*
G02*
X164287000Y-50292000I0J51000D01*
G01*
X164287000Y-48768000D01*
G75*
G02*
X164338000Y-48717000I51000J0D01*
G01*
X165862000Y-48717000D01*
G75*
G02*
X165913000Y-48768000I0J-51000D01*
G01*
X165913000Y-50292000D01*
G75*
G02*
X165862000Y-50343000I-51000J0D01*
G01*
G37*
G36*
G01*
X168402000Y-52883000D02*
X166878000Y-52883000D01*
G75*
G02*
X166827000Y-52832000I0J51000D01*
G01*
X166827000Y-51308000D01*
G75*
G02*
X166878000Y-51257000I51000J0D01*
G01*
X168402000Y-51257000D01*
G75*
G02*
X168453000Y-51308000I0J-51000D01*
G01*
X168453000Y-52832000D01*
G75*
G02*
X168402000Y-52883000I-51000J0D01*
G01*
G37*
G36*
G01*
X168402000Y-50343000D02*
X166878000Y-50343000D01*
G75*
G02*
X166827000Y-50292000I0J51000D01*
G01*
X166827000Y-48768000D01*
G75*
G02*
X166878000Y-48717000I51000J0D01*
G01*
X168402000Y-48717000D01*
G75*
G02*
X168453000Y-48768000I0J-51000D01*
G01*
X168453000Y-50292000D01*
G75*
G02*
X168402000Y-50343000I-51000J0D01*
G01*
G37*
G36*
G01*
X170942000Y-52883000D02*
X169418000Y-52883000D01*
G75*
G02*
X169367000Y-52832000I0J51000D01*
G01*
X169367000Y-51308000D01*
G75*
G02*
X169418000Y-51257000I51000J0D01*
G01*
X170942000Y-51257000D01*
G75*
G02*
X170993000Y-51308000I0J-51000D01*
G01*
X170993000Y-52832000D01*
G75*
G02*
X170942000Y-52883000I-51000J0D01*
G01*
G37*
G36*
G01*
X170942000Y-50343000D02*
X169418000Y-50343000D01*
G75*
G02*
X169367000Y-50292000I0J51000D01*
G01*
X169367000Y-48768000D01*
G75*
G02*
X169418000Y-48717000I51000J0D01*
G01*
X170942000Y-48717000D01*
G75*
G02*
X170993000Y-48768000I0J-51000D01*
G01*
X170993000Y-50292000D01*
G75*
G02*
X170942000Y-50343000I-51000J0D01*
G01*
G37*
G36*
G01*
X173482000Y-52883000D02*
X171958000Y-52883000D01*
G75*
G02*
X171907000Y-52832000I0J51000D01*
G01*
X171907000Y-51308000D01*
G75*
G02*
X171958000Y-51257000I51000J0D01*
G01*
X173482000Y-51257000D01*
G75*
G02*
X173533000Y-51308000I0J-51000D01*
G01*
X173533000Y-52832000D01*
G75*
G02*
X173482000Y-52883000I-51000J0D01*
G01*
G37*
G36*
G01*
X173482000Y-50343000D02*
X171958000Y-50343000D01*
G75*
G02*
X171907000Y-50292000I0J51000D01*
G01*
X171907000Y-48768000D01*
G75*
G02*
X171958000Y-48717000I51000J0D01*
G01*
X173482000Y-48717000D01*
G75*
G02*
X173533000Y-48768000I0J-51000D01*
G01*
X173533000Y-50292000D01*
G75*
G02*
X173482000Y-50343000I-51000J0D01*
G01*
G37*
G36*
G01*
X176022000Y-52883000D02*
X174498000Y-52883000D01*
G75*
G02*
X174447000Y-52832000I0J51000D01*
G01*
X174447000Y-51308000D01*
G75*
G02*
X174498000Y-51257000I51000J0D01*
G01*
X176022000Y-51257000D01*
G75*
G02*
X176073000Y-51308000I0J-51000D01*
G01*
X176073000Y-52832000D01*
G75*
G02*
X176022000Y-52883000I-51000J0D01*
G01*
G37*
G36*
G01*
X176022000Y-50343000D02*
X174498000Y-50343000D01*
G75*
G02*
X174447000Y-50292000I0J51000D01*
G01*
X174447000Y-48768000D01*
G75*
G02*
X174498000Y-48717000I51000J0D01*
G01*
X176022000Y-48717000D01*
G75*
G02*
X176073000Y-48768000I0J-51000D01*
G01*
X176073000Y-50292000D01*
G75*
G02*
X176022000Y-50343000I-51000J0D01*
G01*
G37*
G36*
G01*
X141732000Y-52883000D02*
X140208000Y-52883000D01*
G75*
G02*
X140157000Y-52832000I0J51000D01*
G01*
X140157000Y-51308000D01*
G75*
G02*
X140208000Y-51257000I51000J0D01*
G01*
X141732000Y-51257000D01*
G75*
G02*
X141783000Y-51308000I0J-51000D01*
G01*
X141783000Y-52832000D01*
G75*
G02*
X141732000Y-52883000I-51000J0D01*
G01*
G37*
G36*
G01*
X141732000Y-50343000D02*
X140208000Y-50343000D01*
G75*
G02*
X140157000Y-50292000I0J51000D01*
G01*
X140157000Y-48768000D01*
G75*
G02*
X140208000Y-48717000I51000J0D01*
G01*
X141732000Y-48717000D01*
G75*
G02*
X141783000Y-48768000I0J-51000D01*
G01*
X141783000Y-50292000D01*
G75*
G02*
X141732000Y-50343000I-51000J0D01*
G01*
G37*
G36*
G01*
X144272000Y-52883000D02*
X142748000Y-52883000D01*
G75*
G02*
X142697000Y-52832000I0J51000D01*
G01*
X142697000Y-51308000D01*
G75*
G02*
X142748000Y-51257000I51000J0D01*
G01*
X144272000Y-51257000D01*
G75*
G02*
X144323000Y-51308000I0J-51000D01*
G01*
X144323000Y-52832000D01*
G75*
G02*
X144272000Y-52883000I-51000J0D01*
G01*
G37*
G36*
G01*
X144272000Y-50343000D02*
X142748000Y-50343000D01*
G75*
G02*
X142697000Y-50292000I0J51000D01*
G01*
X142697000Y-48768000D01*
G75*
G02*
X142748000Y-48717000I51000J0D01*
G01*
X144272000Y-48717000D01*
G75*
G02*
X144323000Y-48768000I0J-51000D01*
G01*
X144323000Y-50292000D01*
G75*
G02*
X144272000Y-50343000I-51000J0D01*
G01*
G37*
G36*
G01*
X146812000Y-52883000D02*
X145288000Y-52883000D01*
G75*
G02*
X145237000Y-52832000I0J51000D01*
G01*
X145237000Y-51308000D01*
G75*
G02*
X145288000Y-51257000I51000J0D01*
G01*
X146812000Y-51257000D01*
G75*
G02*
X146863000Y-51308000I0J-51000D01*
G01*
X146863000Y-52832000D01*
G75*
G02*
X146812000Y-52883000I-51000J0D01*
G01*
G37*
G36*
G01*
X146812000Y-50343000D02*
X145288000Y-50343000D01*
G75*
G02*
X145237000Y-50292000I0J51000D01*
G01*
X145237000Y-48768000D01*
G75*
G02*
X145288000Y-48717000I51000J0D01*
G01*
X146812000Y-48717000D01*
G75*
G02*
X146863000Y-48768000I0J-51000D01*
G01*
X146863000Y-50292000D01*
G75*
G02*
X146812000Y-50343000I-51000J0D01*
G01*
G37*
G36*
G01*
X149352000Y-52883000D02*
X147828000Y-52883000D01*
G75*
G02*
X147777000Y-52832000I0J51000D01*
G01*
X147777000Y-51308000D01*
G75*
G02*
X147828000Y-51257000I51000J0D01*
G01*
X149352000Y-51257000D01*
G75*
G02*
X149403000Y-51308000I0J-51000D01*
G01*
X149403000Y-52832000D01*
G75*
G02*
X149352000Y-52883000I-51000J0D01*
G01*
G37*
G36*
G01*
X149352000Y-50343000D02*
X147828000Y-50343000D01*
G75*
G02*
X147777000Y-50292000I0J51000D01*
G01*
X147777000Y-48768000D01*
G75*
G02*
X147828000Y-48717000I51000J0D01*
G01*
X149352000Y-48717000D01*
G75*
G02*
X149403000Y-48768000I0J-51000D01*
G01*
X149403000Y-50292000D01*
G75*
G02*
X149352000Y-50343000I-51000J0D01*
G01*
G37*
G36*
G01*
X151892000Y-52883000D02*
X150368000Y-52883000D01*
G75*
G02*
X150317000Y-52832000I0J51000D01*
G01*
X150317000Y-51308000D01*
G75*
G02*
X150368000Y-51257000I51000J0D01*
G01*
X151892000Y-51257000D01*
G75*
G02*
X151943000Y-51308000I0J-51000D01*
G01*
X151943000Y-52832000D01*
G75*
G02*
X151892000Y-52883000I-51000J0D01*
G01*
G37*
G36*
G01*
X151892000Y-50343000D02*
X150368000Y-50343000D01*
G75*
G02*
X150317000Y-50292000I0J51000D01*
G01*
X150317000Y-48768000D01*
G75*
G02*
X150368000Y-48717000I51000J0D01*
G01*
X151892000Y-48717000D01*
G75*
G02*
X151943000Y-48768000I0J-51000D01*
G01*
X151943000Y-50292000D01*
G75*
G02*
X151892000Y-50343000I-51000J0D01*
G01*
G37*
G36*
G01*
X154432000Y-52883000D02*
X152908000Y-52883000D01*
G75*
G02*
X152857000Y-52832000I0J51000D01*
G01*
X152857000Y-51308000D01*
G75*
G02*
X152908000Y-51257000I51000J0D01*
G01*
X154432000Y-51257000D01*
G75*
G02*
X154483000Y-51308000I0J-51000D01*
G01*
X154483000Y-52832000D01*
G75*
G02*
X154432000Y-52883000I-51000J0D01*
G01*
G37*
G36*
G01*
X154432000Y-50343000D02*
X152908000Y-50343000D01*
G75*
G02*
X152857000Y-50292000I0J51000D01*
G01*
X152857000Y-48768000D01*
G75*
G02*
X152908000Y-48717000I51000J0D01*
G01*
X154432000Y-48717000D01*
G75*
G02*
X154483000Y-48768000I0J-51000D01*
G01*
X154483000Y-50292000D01*
G75*
G02*
X154432000Y-50343000I-51000J0D01*
G01*
G37*
G36*
G01*
X156972000Y-52883000D02*
X155448000Y-52883000D01*
G75*
G02*
X155397000Y-52832000I0J51000D01*
G01*
X155397000Y-51308000D01*
G75*
G02*
X155448000Y-51257000I51000J0D01*
G01*
X156972000Y-51257000D01*
G75*
G02*
X157023000Y-51308000I0J-51000D01*
G01*
X157023000Y-52832000D01*
G75*
G02*
X156972000Y-52883000I-51000J0D01*
G01*
G37*
G36*
G01*
X156972000Y-50343000D02*
X155448000Y-50343000D01*
G75*
G02*
X155397000Y-50292000I0J51000D01*
G01*
X155397000Y-48768000D01*
G75*
G02*
X155448000Y-48717000I51000J0D01*
G01*
X156972000Y-48717000D01*
G75*
G02*
X157023000Y-48768000I0J-51000D01*
G01*
X157023000Y-50292000D01*
G75*
G02*
X156972000Y-50343000I-51000J0D01*
G01*
G37*
G36*
G01*
X159512000Y-52883000D02*
X157988000Y-52883000D01*
G75*
G02*
X157937000Y-52832000I0J51000D01*
G01*
X157937000Y-51308000D01*
G75*
G02*
X157988000Y-51257000I51000J0D01*
G01*
X159512000Y-51257000D01*
G75*
G02*
X159563000Y-51308000I0J-51000D01*
G01*
X159563000Y-52832000D01*
G75*
G02*
X159512000Y-52883000I-51000J0D01*
G01*
G37*
G36*
G01*
X159512000Y-50343000D02*
X157988000Y-50343000D01*
G75*
G02*
X157937000Y-50292000I0J51000D01*
G01*
X157937000Y-48768000D01*
G75*
G02*
X157988000Y-48717000I51000J0D01*
G01*
X159512000Y-48717000D01*
G75*
G02*
X159563000Y-48768000I0J-51000D01*
G01*
X159563000Y-50292000D01*
G75*
G02*
X159512000Y-50343000I-51000J0D01*
G01*
G37*
G36*
G01*
X162052000Y-52883000D02*
X160528000Y-52883000D01*
G75*
G02*
X160477000Y-52832000I0J51000D01*
G01*
X160477000Y-51308000D01*
G75*
G02*
X160528000Y-51257000I51000J0D01*
G01*
X162052000Y-51257000D01*
G75*
G02*
X162103000Y-51308000I0J-51000D01*
G01*
X162103000Y-52832000D01*
G75*
G02*
X162052000Y-52883000I-51000J0D01*
G01*
G37*
G36*
G01*
X162052000Y-50343000D02*
X160528000Y-50343000D01*
G75*
G02*
X160477000Y-50292000I0J51000D01*
G01*
X160477000Y-48768000D01*
G75*
G02*
X160528000Y-48717000I51000J0D01*
G01*
X162052000Y-48717000D01*
G75*
G02*
X162103000Y-48768000I0J-51000D01*
G01*
X162103000Y-50292000D01*
G75*
G02*
X162052000Y-50343000I-51000J0D01*
G01*
G37*
G36*
G01*
X124405000Y-74119500D02*
X124405000Y-74470500D01*
G75*
G02*
X124229500Y-74646000I-175500J0D01*
G01*
X122528500Y-74646000D01*
G75*
G02*
X122353000Y-74470500I0J175500D01*
G01*
X122353000Y-74119500D01*
G75*
G02*
X122528500Y-73944000I175500J0D01*
G01*
X124229500Y-73944000D01*
G75*
G02*
X124405000Y-74119500I0J-175500D01*
G01*
G37*
G36*
G01*
X124405000Y-75389500D02*
X124405000Y-75740500D01*
G75*
G02*
X124229500Y-75916000I-175500J0D01*
G01*
X122528500Y-75916000D01*
G75*
G02*
X122353000Y-75740500I0J175500D01*
G01*
X122353000Y-75389500D01*
G75*
G02*
X122528500Y-75214000I175500J0D01*
G01*
X124229500Y-75214000D01*
G75*
G02*
X124405000Y-75389500I0J-175500D01*
G01*
G37*
G36*
G01*
X124405000Y-76659500D02*
X124405000Y-77010500D01*
G75*
G02*
X124229500Y-77186000I-175500J0D01*
G01*
X122528500Y-77186000D01*
G75*
G02*
X122353000Y-77010500I0J175500D01*
G01*
X122353000Y-76659500D01*
G75*
G02*
X122528500Y-76484000I175500J0D01*
G01*
X124229500Y-76484000D01*
G75*
G02*
X124405000Y-76659500I0J-175500D01*
G01*
G37*
G36*
G01*
X124405000Y-77929500D02*
X124405000Y-78280500D01*
G75*
G02*
X124229500Y-78456000I-175500J0D01*
G01*
X122528500Y-78456000D01*
G75*
G02*
X122353000Y-78280500I0J175500D01*
G01*
X122353000Y-77929500D01*
G75*
G02*
X122528500Y-77754000I175500J0D01*
G01*
X124229500Y-77754000D01*
G75*
G02*
X124405000Y-77929500I0J-175500D01*
G01*
G37*
G36*
G01*
X124405000Y-79199500D02*
X124405000Y-79550500D01*
G75*
G02*
X124229500Y-79726000I-175500J0D01*
G01*
X122528500Y-79726000D01*
G75*
G02*
X122353000Y-79550500I0J175500D01*
G01*
X122353000Y-79199500D01*
G75*
G02*
X122528500Y-79024000I175500J0D01*
G01*
X124229500Y-79024000D01*
G75*
G02*
X124405000Y-79199500I0J-175500D01*
G01*
G37*
G36*
G01*
X124405000Y-80469500D02*
X124405000Y-80820500D01*
G75*
G02*
X124229500Y-80996000I-175500J0D01*
G01*
X122528500Y-80996000D01*
G75*
G02*
X122353000Y-80820500I0J175500D01*
G01*
X122353000Y-80469500D01*
G75*
G02*
X122528500Y-80294000I175500J0D01*
G01*
X124229500Y-80294000D01*
G75*
G02*
X124405000Y-80469500I0J-175500D01*
G01*
G37*
G36*
G01*
X124405000Y-81739500D02*
X124405000Y-82090500D01*
G75*
G02*
X124229500Y-82266000I-175500J0D01*
G01*
X122528500Y-82266000D01*
G75*
G02*
X122353000Y-82090500I0J175500D01*
G01*
X122353000Y-81739500D01*
G75*
G02*
X122528500Y-81564000I175500J0D01*
G01*
X124229500Y-81564000D01*
G75*
G02*
X124405000Y-81739500I0J-175500D01*
G01*
G37*
G36*
G01*
X124405000Y-83009500D02*
X124405000Y-83360500D01*
G75*
G02*
X124229500Y-83536000I-175500J0D01*
G01*
X122528500Y-83536000D01*
G75*
G02*
X122353000Y-83360500I0J175500D01*
G01*
X122353000Y-83009500D01*
G75*
G02*
X122528500Y-82834000I175500J0D01*
G01*
X124229500Y-82834000D01*
G75*
G02*
X124405000Y-83009500I0J-175500D01*
G01*
G37*
G36*
G01*
X119455000Y-83009500D02*
X119455000Y-83360500D01*
G75*
G02*
X119279500Y-83536000I-175500J0D01*
G01*
X117578500Y-83536000D01*
G75*
G02*
X117403000Y-83360500I0J175500D01*
G01*
X117403000Y-83009500D01*
G75*
G02*
X117578500Y-82834000I175500J0D01*
G01*
X119279500Y-82834000D01*
G75*
G02*
X119455000Y-83009500I0J-175500D01*
G01*
G37*
G36*
G01*
X119455000Y-81739500D02*
X119455000Y-82090500D01*
G75*
G02*
X119279500Y-82266000I-175500J0D01*
G01*
X117578500Y-82266000D01*
G75*
G02*
X117403000Y-82090500I0J175500D01*
G01*
X117403000Y-81739500D01*
G75*
G02*
X117578500Y-81564000I175500J0D01*
G01*
X119279500Y-81564000D01*
G75*
G02*
X119455000Y-81739500I0J-175500D01*
G01*
G37*
G36*
G01*
X119455000Y-80469500D02*
X119455000Y-80820500D01*
G75*
G02*
X119279500Y-80996000I-175500J0D01*
G01*
X117578500Y-80996000D01*
G75*
G02*
X117403000Y-80820500I0J175500D01*
G01*
X117403000Y-80469500D01*
G75*
G02*
X117578500Y-80294000I175500J0D01*
G01*
X119279500Y-80294000D01*
G75*
G02*
X119455000Y-80469500I0J-175500D01*
G01*
G37*
G36*
G01*
X119455000Y-79199500D02*
X119455000Y-79550500D01*
G75*
G02*
X119279500Y-79726000I-175500J0D01*
G01*
X117578500Y-79726000D01*
G75*
G02*
X117403000Y-79550500I0J175500D01*
G01*
X117403000Y-79199500D01*
G75*
G02*
X117578500Y-79024000I175500J0D01*
G01*
X119279500Y-79024000D01*
G75*
G02*
X119455000Y-79199500I0J-175500D01*
G01*
G37*
G36*
G01*
X119455000Y-77929500D02*
X119455000Y-78280500D01*
G75*
G02*
X119279500Y-78456000I-175500J0D01*
G01*
X117578500Y-78456000D01*
G75*
G02*
X117403000Y-78280500I0J175500D01*
G01*
X117403000Y-77929500D01*
G75*
G02*
X117578500Y-77754000I175500J0D01*
G01*
X119279500Y-77754000D01*
G75*
G02*
X119455000Y-77929500I0J-175500D01*
G01*
G37*
G36*
G01*
X119455000Y-76659500D02*
X119455000Y-77010500D01*
G75*
G02*
X119279500Y-77186000I-175500J0D01*
G01*
X117578500Y-77186000D01*
G75*
G02*
X117403000Y-77010500I0J175500D01*
G01*
X117403000Y-76659500D01*
G75*
G02*
X117578500Y-76484000I175500J0D01*
G01*
X119279500Y-76484000D01*
G75*
G02*
X119455000Y-76659500I0J-175500D01*
G01*
G37*
G36*
G01*
X119455000Y-75389500D02*
X119455000Y-75740500D01*
G75*
G02*
X119279500Y-75916000I-175500J0D01*
G01*
X117578500Y-75916000D01*
G75*
G02*
X117403000Y-75740500I0J175500D01*
G01*
X117403000Y-75389500D01*
G75*
G02*
X117578500Y-75214000I175500J0D01*
G01*
X119279500Y-75214000D01*
G75*
G02*
X119455000Y-75389500I0J-175500D01*
G01*
G37*
G36*
G01*
X119455000Y-74119500D02*
X119455000Y-74470500D01*
G75*
G02*
X119279500Y-74646000I-175500J0D01*
G01*
X117578500Y-74646000D01*
G75*
G02*
X117403000Y-74470500I0J175500D01*
G01*
X117403000Y-74119500D01*
G75*
G02*
X117578500Y-73944000I175500J0D01*
G01*
X119279500Y-73944000D01*
G75*
G02*
X119455000Y-74119500I0J-175500D01*
G01*
G37*
G36*
G01*
X181972000Y-100448000D02*
X182772000Y-100448000D01*
G75*
G02*
X182823000Y-100499000I0J-51000D01*
G01*
X182823000Y-101399000D01*
G75*
G02*
X182772000Y-101450000I-51000J0D01*
G01*
X181972000Y-101450000D01*
G75*
G02*
X181921000Y-101399000I0J51000D01*
G01*
X181921000Y-100499000D01*
G75*
G02*
X181972000Y-100448000I51000J0D01*
G01*
G37*
G36*
G01*
X182922000Y-98448000D02*
X183722000Y-98448000D01*
G75*
G02*
X183773000Y-98499000I0J-51000D01*
G01*
X183773000Y-99399000D01*
G75*
G02*
X183722000Y-99450000I-51000J0D01*
G01*
X182922000Y-99450000D01*
G75*
G02*
X182871000Y-99399000I0J51000D01*
G01*
X182871000Y-98499000D01*
G75*
G02*
X182922000Y-98448000I51000J0D01*
G01*
G37*
G36*
G01*
X181022000Y-98448000D02*
X181822000Y-98448000D01*
G75*
G02*
X181873000Y-98499000I0J-51000D01*
G01*
X181873000Y-99399000D01*
G75*
G02*
X181822000Y-99450000I-51000J0D01*
G01*
X181022000Y-99450000D01*
G75*
G02*
X180971000Y-99399000I0J51000D01*
G01*
X180971000Y-98499000D01*
G75*
G02*
X181022000Y-98448000I51000J0D01*
G01*
G37*
G36*
G01*
X175942000Y-98575000D02*
X176742000Y-98575000D01*
G75*
G02*
X176793000Y-98626000I0J-51000D01*
G01*
X176793000Y-99526000D01*
G75*
G02*
X176742000Y-99577000I-51000J0D01*
G01*
X175942000Y-99577000D01*
G75*
G02*
X175891000Y-99526000I0J51000D01*
G01*
X175891000Y-98626000D01*
G75*
G02*
X175942000Y-98575000I51000J0D01*
G01*
G37*
G36*
G01*
X177842000Y-98575000D02*
X178642000Y-98575000D01*
G75*
G02*
X178693000Y-98626000I0J-51000D01*
G01*
X178693000Y-99526000D01*
G75*
G02*
X178642000Y-99577000I-51000J0D01*
G01*
X177842000Y-99577000D01*
G75*
G02*
X177791000Y-99526000I0J51000D01*
G01*
X177791000Y-98626000D01*
G75*
G02*
X177842000Y-98575000I51000J0D01*
G01*
G37*
G36*
G01*
X176892000Y-100575000D02*
X177692000Y-100575000D01*
G75*
G02*
X177743000Y-100626000I0J-51000D01*
G01*
X177743000Y-101526000D01*
G75*
G02*
X177692000Y-101577000I-51000J0D01*
G01*
X176892000Y-101577000D01*
G75*
G02*
X176841000Y-101526000I0J51000D01*
G01*
X176841000Y-100626000D01*
G75*
G02*
X176892000Y-100575000I51000J0D01*
G01*
G37*
G36*
G01*
X171812000Y-100575000D02*
X172612000Y-100575000D01*
G75*
G02*
X172663000Y-100626000I0J-51000D01*
G01*
X172663000Y-101526000D01*
G75*
G02*
X172612000Y-101577000I-51000J0D01*
G01*
X171812000Y-101577000D01*
G75*
G02*
X171761000Y-101526000I0J51000D01*
G01*
X171761000Y-100626000D01*
G75*
G02*
X171812000Y-100575000I51000J0D01*
G01*
G37*
G36*
G01*
X172762000Y-98575000D02*
X173562000Y-98575000D01*
G75*
G02*
X173613000Y-98626000I0J-51000D01*
G01*
X173613000Y-99526000D01*
G75*
G02*
X173562000Y-99577000I-51000J0D01*
G01*
X172762000Y-99577000D01*
G75*
G02*
X172711000Y-99526000I0J51000D01*
G01*
X172711000Y-98626000D01*
G75*
G02*
X172762000Y-98575000I51000J0D01*
G01*
G37*
G36*
G01*
X170862000Y-98575000D02*
X171662000Y-98575000D01*
G75*
G02*
X171713000Y-98626000I0J-51000D01*
G01*
X171713000Y-99526000D01*
G75*
G02*
X171662000Y-99577000I-51000J0D01*
G01*
X170862000Y-99577000D01*
G75*
G02*
X170811000Y-99526000I0J51000D01*
G01*
X170811000Y-98626000D01*
G75*
G02*
X170862000Y-98575000I51000J0D01*
G01*
G37*
G36*
G01*
X144954000Y-98575000D02*
X145754000Y-98575000D01*
G75*
G02*
X145805000Y-98626000I0J-51000D01*
G01*
X145805000Y-99526000D01*
G75*
G02*
X145754000Y-99577000I-51000J0D01*
G01*
X144954000Y-99577000D01*
G75*
G02*
X144903000Y-99526000I0J51000D01*
G01*
X144903000Y-98626000D01*
G75*
G02*
X144954000Y-98575000I51000J0D01*
G01*
G37*
G36*
G01*
X146854000Y-98575000D02*
X147654000Y-98575000D01*
G75*
G02*
X147705000Y-98626000I0J-51000D01*
G01*
X147705000Y-99526000D01*
G75*
G02*
X147654000Y-99577000I-51000J0D01*
G01*
X146854000Y-99577000D01*
G75*
G02*
X146803000Y-99526000I0J51000D01*
G01*
X146803000Y-98626000D01*
G75*
G02*
X146854000Y-98575000I51000J0D01*
G01*
G37*
G36*
G01*
X145904000Y-100575000D02*
X146704000Y-100575000D01*
G75*
G02*
X146755000Y-100626000I0J-51000D01*
G01*
X146755000Y-101526000D01*
G75*
G02*
X146704000Y-101577000I-51000J0D01*
G01*
X145904000Y-101577000D01*
G75*
G02*
X145853000Y-101526000I0J51000D01*
G01*
X145853000Y-100626000D01*
G75*
G02*
X145904000Y-100575000I51000J0D01*
G01*
G37*
G36*
G01*
X135744000Y-100575000D02*
X136544000Y-100575000D01*
G75*
G02*
X136595000Y-100626000I0J-51000D01*
G01*
X136595000Y-101526000D01*
G75*
G02*
X136544000Y-101577000I-51000J0D01*
G01*
X135744000Y-101577000D01*
G75*
G02*
X135693000Y-101526000I0J51000D01*
G01*
X135693000Y-100626000D01*
G75*
G02*
X135744000Y-100575000I51000J0D01*
G01*
G37*
G36*
G01*
X136694000Y-98575000D02*
X137494000Y-98575000D01*
G75*
G02*
X137545000Y-98626000I0J-51000D01*
G01*
X137545000Y-99526000D01*
G75*
G02*
X137494000Y-99577000I-51000J0D01*
G01*
X136694000Y-99577000D01*
G75*
G02*
X136643000Y-99526000I0J51000D01*
G01*
X136643000Y-98626000D01*
G75*
G02*
X136694000Y-98575000I51000J0D01*
G01*
G37*
G36*
G01*
X134794000Y-98575000D02*
X135594000Y-98575000D01*
G75*
G02*
X135645000Y-98626000I0J-51000D01*
G01*
X135645000Y-99526000D01*
G75*
G02*
X135594000Y-99577000I-51000J0D01*
G01*
X134794000Y-99577000D01*
G75*
G02*
X134743000Y-99526000I0J51000D01*
G01*
X134743000Y-98626000D01*
G75*
G02*
X134794000Y-98575000I51000J0D01*
G01*
G37*
G36*
G01*
X129714000Y-98575000D02*
X130514000Y-98575000D01*
G75*
G02*
X130565000Y-98626000I0J-51000D01*
G01*
X130565000Y-99526000D01*
G75*
G02*
X130514000Y-99577000I-51000J0D01*
G01*
X129714000Y-99577000D01*
G75*
G02*
X129663000Y-99526000I0J51000D01*
G01*
X129663000Y-98626000D01*
G75*
G02*
X129714000Y-98575000I51000J0D01*
G01*
G37*
G36*
G01*
X131614000Y-98575000D02*
X132414000Y-98575000D01*
G75*
G02*
X132465000Y-98626000I0J-51000D01*
G01*
X132465000Y-99526000D01*
G75*
G02*
X132414000Y-99577000I-51000J0D01*
G01*
X131614000Y-99577000D01*
G75*
G02*
X131563000Y-99526000I0J51000D01*
G01*
X131563000Y-98626000D01*
G75*
G02*
X131614000Y-98575000I51000J0D01*
G01*
G37*
G36*
G01*
X130664000Y-100575000D02*
X131464000Y-100575000D01*
G75*
G02*
X131515000Y-100626000I0J-51000D01*
G01*
X131515000Y-101526000D01*
G75*
G02*
X131464000Y-101577000I-51000J0D01*
G01*
X130664000Y-101577000D01*
G75*
G02*
X130613000Y-101526000I0J51000D01*
G01*
X130613000Y-100626000D01*
G75*
G02*
X130664000Y-100575000I51000J0D01*
G01*
G37*
G36*
G01*
X125584000Y-100575000D02*
X126384000Y-100575000D01*
G75*
G02*
X126435000Y-100626000I0J-51000D01*
G01*
X126435000Y-101526000D01*
G75*
G02*
X126384000Y-101577000I-51000J0D01*
G01*
X125584000Y-101577000D01*
G75*
G02*
X125533000Y-101526000I0J51000D01*
G01*
X125533000Y-100626000D01*
G75*
G02*
X125584000Y-100575000I51000J0D01*
G01*
G37*
G36*
G01*
X126534000Y-98575000D02*
X127334000Y-98575000D01*
G75*
G02*
X127385000Y-98626000I0J-51000D01*
G01*
X127385000Y-99526000D01*
G75*
G02*
X127334000Y-99577000I-51000J0D01*
G01*
X126534000Y-99577000D01*
G75*
G02*
X126483000Y-99526000I0J51000D01*
G01*
X126483000Y-98626000D01*
G75*
G02*
X126534000Y-98575000I51000J0D01*
G01*
G37*
G36*
G01*
X124634000Y-98575000D02*
X125434000Y-98575000D01*
G75*
G02*
X125485000Y-98626000I0J-51000D01*
G01*
X125485000Y-99526000D01*
G75*
G02*
X125434000Y-99577000I-51000J0D01*
G01*
X124634000Y-99577000D01*
G75*
G02*
X124583000Y-99526000I0J51000D01*
G01*
X124583000Y-98626000D01*
G75*
G02*
X124634000Y-98575000I51000J0D01*
G01*
G37*
G36*
G01*
X117625000Y-69930000D02*
X117625000Y-69130000D01*
G75*
G02*
X117676000Y-69079000I51000J0D01*
G01*
X118576000Y-69079000D01*
G75*
G02*
X118627000Y-69130000I0J-51000D01*
G01*
X118627000Y-69930000D01*
G75*
G02*
X118576000Y-69981000I-51000J0D01*
G01*
X117676000Y-69981000D01*
G75*
G02*
X117625000Y-69930000I0J51000D01*
G01*
G37*
G36*
G01*
X117625000Y-68030000D02*
X117625000Y-67230000D01*
G75*
G02*
X117676000Y-67179000I51000J0D01*
G01*
X118576000Y-67179000D01*
G75*
G02*
X118627000Y-67230000I0J-51000D01*
G01*
X118627000Y-68030000D01*
G75*
G02*
X118576000Y-68081000I-51000J0D01*
G01*
X117676000Y-68081000D01*
G75*
G02*
X117625000Y-68030000I0J51000D01*
G01*
G37*
G36*
G01*
X119625000Y-68980000D02*
X119625000Y-68180000D01*
G75*
G02*
X119676000Y-68129000I51000J0D01*
G01*
X120576000Y-68129000D01*
G75*
G02*
X120627000Y-68180000I0J-51000D01*
G01*
X120627000Y-68980000D01*
G75*
G02*
X120576000Y-69031000I-51000J0D01*
G01*
X119676000Y-69031000D01*
G75*
G02*
X119625000Y-68980000I0J51000D01*
G01*
G37*
G36*
G01*
X122945000Y-68180000D02*
X122945000Y-68980000D01*
G75*
G02*
X122894000Y-69031000I-51000J0D01*
G01*
X121994000Y-69031000D01*
G75*
G02*
X121943000Y-68980000I0J51000D01*
G01*
X121943000Y-68180000D01*
G75*
G02*
X121994000Y-68129000I51000J0D01*
G01*
X122894000Y-68129000D01*
G75*
G02*
X122945000Y-68180000I0J-51000D01*
G01*
G37*
G36*
G01*
X124945000Y-69130000D02*
X124945000Y-69930000D01*
G75*
G02*
X124894000Y-69981000I-51000J0D01*
G01*
X123994000Y-69981000D01*
G75*
G02*
X123943000Y-69930000I0J51000D01*
G01*
X123943000Y-69130000D01*
G75*
G02*
X123994000Y-69079000I51000J0D01*
G01*
X124894000Y-69079000D01*
G75*
G02*
X124945000Y-69130000I0J-51000D01*
G01*
G37*
G36*
G01*
X124945000Y-67230000D02*
X124945000Y-68030000D01*
G75*
G02*
X124894000Y-68081000I-51000J0D01*
G01*
X123994000Y-68081000D01*
G75*
G02*
X123943000Y-68030000I0J51000D01*
G01*
X123943000Y-67230000D01*
G75*
G02*
X123994000Y-67179000I51000J0D01*
G01*
X124894000Y-67179000D01*
G75*
G02*
X124945000Y-67230000I0J-51000D01*
G01*
G37*
G36*
G01*
X139874000Y-98575000D02*
X140674000Y-98575000D01*
G75*
G02*
X140725000Y-98626000I0J-51000D01*
G01*
X140725000Y-99526000D01*
G75*
G02*
X140674000Y-99577000I-51000J0D01*
G01*
X139874000Y-99577000D01*
G75*
G02*
X139823000Y-99526000I0J51000D01*
G01*
X139823000Y-98626000D01*
G75*
G02*
X139874000Y-98575000I51000J0D01*
G01*
G37*
G36*
G01*
X141774000Y-98575000D02*
X142574000Y-98575000D01*
G75*
G02*
X142625000Y-98626000I0J-51000D01*
G01*
X142625000Y-99526000D01*
G75*
G02*
X142574000Y-99577000I-51000J0D01*
G01*
X141774000Y-99577000D01*
G75*
G02*
X141723000Y-99526000I0J51000D01*
G01*
X141723000Y-98626000D01*
G75*
G02*
X141774000Y-98575000I51000J0D01*
G01*
G37*
G36*
G01*
X140824000Y-100575000D02*
X141624000Y-100575000D01*
G75*
G02*
X141675000Y-100626000I0J-51000D01*
G01*
X141675000Y-101526000D01*
G75*
G02*
X141624000Y-101577000I-51000J0D01*
G01*
X140824000Y-101577000D01*
G75*
G02*
X140773000Y-101526000I0J51000D01*
G01*
X140773000Y-100626000D01*
G75*
G02*
X140824000Y-100575000I51000J0D01*
G01*
G37*
G36*
G01*
X115599172Y-69995000D02*
X116556828Y-69995000D01*
G75*
G02*
X116829000Y-70267172I0J-272172D01*
G01*
X116829000Y-70974828D01*
G75*
G02*
X116556828Y-71247000I-272172J0D01*
G01*
X115599172Y-71247000D01*
G75*
G02*
X115327000Y-70974828I0J272172D01*
G01*
X115327000Y-70267172D01*
G75*
G02*
X115599172Y-69995000I272172J0D01*
G01*
G37*
G36*
G01*
X115599172Y-67945000D02*
X116556828Y-67945000D01*
G75*
G02*
X116829000Y-68217172I0J-272172D01*
G01*
X116829000Y-68924828D01*
G75*
G02*
X116556828Y-69197000I-272172J0D01*
G01*
X115599172Y-69197000D01*
G75*
G02*
X115327000Y-68924828I0J272172D01*
G01*
X115327000Y-68217172D01*
G75*
G02*
X115599172Y-67945000I272172J0D01*
G01*
G37*
G36*
G01*
X170561000Y-55088828D02*
X170561000Y-54131172D01*
G75*
G02*
X170833172Y-53859000I272172J0D01*
G01*
X171540828Y-53859000D01*
G75*
G02*
X171813000Y-54131172I0J-272172D01*
G01*
X171813000Y-55088828D01*
G75*
G02*
X171540828Y-55361000I-272172J0D01*
G01*
X170833172Y-55361000D01*
G75*
G02*
X170561000Y-55088828I0J272172D01*
G01*
G37*
G36*
G01*
X172611000Y-55088828D02*
X172611000Y-54131172D01*
G75*
G02*
X172883172Y-53859000I272172J0D01*
G01*
X173590828Y-53859000D01*
G75*
G02*
X173863000Y-54131172I0J-272172D01*
G01*
X173863000Y-55088828D01*
G75*
G02*
X173590828Y-55361000I-272172J0D01*
G01*
X172883172Y-55361000D01*
G75*
G02*
X172611000Y-55088828I0J272172D01*
G01*
G37*
G36*
G01*
X127236000Y-73816172D02*
X127236000Y-74773828D01*
G75*
G02*
X126963828Y-75046000I-272172J0D01*
G01*
X126256172Y-75046000D01*
G75*
G02*
X125984000Y-74773828I0J272172D01*
G01*
X125984000Y-73816172D01*
G75*
G02*
X126256172Y-73544000I272172J0D01*
G01*
X126963828Y-73544000D01*
G75*
G02*
X127236000Y-73816172I0J-272172D01*
G01*
G37*
G36*
G01*
X129286000Y-73816172D02*
X129286000Y-74773828D01*
G75*
G02*
X129013828Y-75046000I-272172J0D01*
G01*
X128306172Y-75046000D01*
G75*
G02*
X128034000Y-74773828I0J272172D01*
G01*
X128034000Y-73816172D01*
G75*
G02*
X128306172Y-73544000I272172J0D01*
G01*
X129013828Y-73544000D01*
G75*
G02*
X129286000Y-73816172I0J-272172D01*
G01*
G37*
G36*
G01*
X129286000Y-75848172D02*
X129286000Y-76805828D01*
G75*
G02*
X129013828Y-77078000I-272172J0D01*
G01*
X128306172Y-77078000D01*
G75*
G02*
X128034000Y-76805828I0J272172D01*
G01*
X128034000Y-75848172D01*
G75*
G02*
X128306172Y-75576000I272172J0D01*
G01*
X129013828Y-75576000D01*
G75*
G02*
X129286000Y-75848172I0J-272172D01*
G01*
G37*
G36*
G01*
X127236000Y-75848172D02*
X127236000Y-76805828D01*
G75*
G02*
X126963828Y-77078000I-272172J0D01*
G01*
X126256172Y-77078000D01*
G75*
G02*
X125984000Y-76805828I0J272172D01*
G01*
X125984000Y-75848172D01*
G75*
G02*
X126256172Y-75576000I272172J0D01*
G01*
X126963828Y-75576000D01*
G75*
G02*
X127236000Y-75848172I0J-272172D01*
G01*
G37*
G36*
G01*
X111916172Y-58184000D02*
X112873828Y-58184000D01*
G75*
G02*
X113146000Y-58456172I0J-272172D01*
G01*
X113146000Y-59163828D01*
G75*
G02*
X112873828Y-59436000I-272172J0D01*
G01*
X111916172Y-59436000D01*
G75*
G02*
X111644000Y-59163828I0J272172D01*
G01*
X111644000Y-58456172D01*
G75*
G02*
X111916172Y-58184000I272172J0D01*
G01*
G37*
G36*
G01*
X111916172Y-56134000D02*
X112873828Y-56134000D01*
G75*
G02*
X113146000Y-56406172I0J-272172D01*
G01*
X113146000Y-57113828D01*
G75*
G02*
X112873828Y-57386000I-272172J0D01*
G01*
X111916172Y-57386000D01*
G75*
G02*
X111644000Y-57113828I0J272172D01*
G01*
X111644000Y-56406172D01*
G75*
G02*
X111916172Y-56134000I272172J0D01*
G01*
G37*
G36*
G01*
X114583172Y-56134000D02*
X115540828Y-56134000D01*
G75*
G02*
X115813000Y-56406172I0J-272172D01*
G01*
X115813000Y-57113828D01*
G75*
G02*
X115540828Y-57386000I-272172J0D01*
G01*
X114583172Y-57386000D01*
G75*
G02*
X114311000Y-57113828I0J272172D01*
G01*
X114311000Y-56406172D01*
G75*
G02*
X114583172Y-56134000I272172J0D01*
G01*
G37*
G36*
G01*
X114583172Y-58184000D02*
X115540828Y-58184000D01*
G75*
G02*
X115813000Y-58456172I0J-272172D01*
G01*
X115813000Y-59163828D01*
G75*
G02*
X115540828Y-59436000I-272172J0D01*
G01*
X114583172Y-59436000D01*
G75*
G02*
X114311000Y-59163828I0J272172D01*
G01*
X114311000Y-58456172D01*
G75*
G02*
X114583172Y-58184000I272172J0D01*
G01*
G37*
G36*
G01*
X123473172Y-58184000D02*
X124430828Y-58184000D01*
G75*
G02*
X124703000Y-58456172I0J-272172D01*
G01*
X124703000Y-59163828D01*
G75*
G02*
X124430828Y-59436000I-272172J0D01*
G01*
X123473172Y-59436000D01*
G75*
G02*
X123201000Y-59163828I0J272172D01*
G01*
X123201000Y-58456172D01*
G75*
G02*
X123473172Y-58184000I272172J0D01*
G01*
G37*
G36*
G01*
X123473172Y-56134000D02*
X124430828Y-56134000D01*
G75*
G02*
X124703000Y-56406172I0J-272172D01*
G01*
X124703000Y-57113828D01*
G75*
G02*
X124430828Y-57386000I-272172J0D01*
G01*
X123473172Y-57386000D01*
G75*
G02*
X123201000Y-57113828I0J272172D01*
G01*
X123201000Y-56406172D01*
G75*
G02*
X123473172Y-56134000I272172J0D01*
G01*
G37*
G36*
G01*
X126267172Y-67945000D02*
X127224828Y-67945000D01*
G75*
G02*
X127497000Y-68217172I0J-272172D01*
G01*
X127497000Y-68924828D01*
G75*
G02*
X127224828Y-69197000I-272172J0D01*
G01*
X126267172Y-69197000D01*
G75*
G02*
X125995000Y-68924828I0J272172D01*
G01*
X125995000Y-68217172D01*
G75*
G02*
X126267172Y-67945000I272172J0D01*
G01*
G37*
G36*
G01*
X126267172Y-69995000D02*
X127224828Y-69995000D01*
G75*
G02*
X127497000Y-70267172I0J-272172D01*
G01*
X127497000Y-70974828D01*
G75*
G02*
X127224828Y-71247000I-272172J0D01*
G01*
X126267172Y-71247000D01*
G75*
G02*
X125995000Y-70974828I0J272172D01*
G01*
X125995000Y-70267172D01*
G75*
G02*
X126267172Y-69995000I272172J0D01*
G01*
G37*
G36*
G01*
X119663172Y-58184000D02*
X120620828Y-58184000D01*
G75*
G02*
X120893000Y-58456172I0J-272172D01*
G01*
X120893000Y-59163828D01*
G75*
G02*
X120620828Y-59436000I-272172J0D01*
G01*
X119663172Y-59436000D01*
G75*
G02*
X119391000Y-59163828I0J272172D01*
G01*
X119391000Y-58456172D01*
G75*
G02*
X119663172Y-58184000I272172J0D01*
G01*
G37*
G36*
G01*
X119663172Y-56134000D02*
X120620828Y-56134000D01*
G75*
G02*
X120893000Y-56406172I0J-272172D01*
G01*
X120893000Y-57113828D01*
G75*
G02*
X120620828Y-57386000I-272172J0D01*
G01*
X119663172Y-57386000D01*
G75*
G02*
X119391000Y-57113828I0J272172D01*
G01*
X119391000Y-56406172D01*
G75*
G02*
X119663172Y-56134000I272172J0D01*
G01*
G37*
G36*
G01*
X126267172Y-63119000D02*
X127224828Y-63119000D01*
G75*
G02*
X127497000Y-63391172I0J-272172D01*
G01*
X127497000Y-64098828D01*
G75*
G02*
X127224828Y-64371000I-272172J0D01*
G01*
X126267172Y-64371000D01*
G75*
G02*
X125995000Y-64098828I0J272172D01*
G01*
X125995000Y-63391172D01*
G75*
G02*
X126267172Y-63119000I272172J0D01*
G01*
G37*
G36*
G01*
X126267172Y-65169000D02*
X127224828Y-65169000D01*
G75*
G02*
X127497000Y-65441172I0J-272172D01*
G01*
X127497000Y-66148828D01*
G75*
G02*
X127224828Y-66421000I-272172J0D01*
G01*
X126267172Y-66421000D01*
G75*
G02*
X125995000Y-66148828I0J272172D01*
G01*
X125995000Y-65441172D01*
G75*
G02*
X126267172Y-65169000I272172J0D01*
G01*
G37*
G36*
G01*
X123473172Y-64407000D02*
X124430828Y-64407000D01*
G75*
G02*
X124703000Y-64679172I0J-272172D01*
G01*
X124703000Y-65386828D01*
G75*
G02*
X124430828Y-65659000I-272172J0D01*
G01*
X123473172Y-65659000D01*
G75*
G02*
X123201000Y-65386828I0J272172D01*
G01*
X123201000Y-64679172D01*
G75*
G02*
X123473172Y-64407000I272172J0D01*
G01*
G37*
G36*
G01*
X123473172Y-62357000D02*
X124430828Y-62357000D01*
G75*
G02*
X124703000Y-62629172I0J-272172D01*
G01*
X124703000Y-63336828D01*
G75*
G02*
X124430828Y-63609000I-272172J0D01*
G01*
X123473172Y-63609000D01*
G75*
G02*
X123201000Y-63336828I0J272172D01*
G01*
X123201000Y-62629172D01*
G75*
G02*
X123473172Y-62357000I272172J0D01*
G01*
G37*
G36*
G01*
X169799000Y-54131172D02*
X169799000Y-55088828D01*
G75*
G02*
X169526828Y-55361000I-272172J0D01*
G01*
X168819172Y-55361000D01*
G75*
G02*
X168547000Y-55088828I0J272172D01*
G01*
X168547000Y-54131172D01*
G75*
G02*
X168819172Y-53859000I272172J0D01*
G01*
X169526828Y-53859000D01*
G75*
G02*
X169799000Y-54131172I0J-272172D01*
G01*
G37*
G36*
G01*
X167749000Y-54131172D02*
X167749000Y-55088828D01*
G75*
G02*
X167476828Y-55361000I-272172J0D01*
G01*
X166769172Y-55361000D01*
G75*
G02*
X166497000Y-55088828I0J272172D01*
G01*
X166497000Y-54131172D01*
G75*
G02*
X166769172Y-53859000I272172J0D01*
G01*
X167476828Y-53859000D01*
G75*
G02*
X167749000Y-54131172I0J-272172D01*
G01*
G37*
D16*
X101600000Y-132080000D03*
X101600000Y-50800000D03*
X203200000Y-132080000D03*
X203200000Y-50800000D03*
D17*
G36*
X111114165Y-94931665D02*
G01*
X111115000Y-94933291D01*
X111115000Y-95566709D01*
X111114000Y-95568441D01*
X111112000Y-95568441D01*
X111111010Y-95566905D01*
X111108628Y-95542718D01*
X111101628Y-95519643D01*
X111090263Y-95498379D01*
X111074968Y-95479742D01*
X111056331Y-95464447D01*
X111035067Y-95453082D01*
X111011992Y-95446082D01*
X110988001Y-95443719D01*
X110964010Y-95446082D01*
X110940935Y-95453082D01*
X110919671Y-95464447D01*
X110901034Y-95479742D01*
X110885739Y-95498379D01*
X110877172Y-95514408D01*
X110875473Y-95515464D01*
X110873710Y-95514521D01*
X110873560Y-95512700D01*
X110874279Y-95510964D01*
X110908661Y-95338114D01*
X110908661Y-95161886D01*
X110874279Y-94989036D01*
X110873560Y-94987300D01*
X110873821Y-94985318D01*
X110875669Y-94984552D01*
X110877172Y-94985592D01*
X110885739Y-95001621D01*
X110901035Y-95020258D01*
X110919672Y-95035553D01*
X110940935Y-95046918D01*
X110964010Y-95053918D01*
X110988001Y-95056281D01*
X111011992Y-95053918D01*
X111035067Y-95046918D01*
X111056331Y-95035553D01*
X111074968Y-95020257D01*
X111090263Y-95001620D01*
X111101628Y-94980357D01*
X111108628Y-94957282D01*
X111111010Y-94933095D01*
X111112175Y-94931469D01*
X111114165Y-94931665D01*
G37*
G36*
X111136277Y-92572453D02*
G01*
X111136779Y-92574210D01*
X111119339Y-92661886D01*
X111119339Y-92838114D01*
X111136779Y-92925790D01*
X111136136Y-92927684D01*
X111134174Y-92928074D01*
X111132903Y-92926761D01*
X111127627Y-92909369D01*
X111116262Y-92888105D01*
X111100967Y-92869468D01*
X111082330Y-92854173D01*
X111061066Y-92842808D01*
X111037991Y-92835808D01*
X111014000Y-92833445D01*
X110990009Y-92835808D01*
X110966934Y-92842808D01*
X110945670Y-92854173D01*
X110927033Y-92869468D01*
X110911738Y-92888105D01*
X110900373Y-92909369D01*
X110895097Y-92926761D01*
X110893637Y-92928128D01*
X110891723Y-92927547D01*
X110891221Y-92925790D01*
X110908661Y-92838114D01*
X110908661Y-92661886D01*
X110891221Y-92574210D01*
X110891864Y-92572316D01*
X110893826Y-92571926D01*
X110895097Y-92573239D01*
X110900373Y-92590631D01*
X110911738Y-92611895D01*
X110927033Y-92630532D01*
X110945670Y-92645827D01*
X110966934Y-92657192D01*
X110990009Y-92664192D01*
X111014000Y-92666555D01*
X111037991Y-92664192D01*
X111061066Y-92657192D01*
X111082330Y-92645827D01*
X111100967Y-92630532D01*
X111116262Y-92611895D01*
X111127627Y-92590631D01*
X111132903Y-92573239D01*
X111134363Y-92571872D01*
X111136277Y-92572453D01*
G37*
G36*
X123202542Y-53239766D02*
G01*
X123257160Y-53276260D01*
X123510533Y-53381210D01*
X123779517Y-53434715D01*
X124053763Y-53434715D01*
X124322747Y-53381210D01*
X124576120Y-53276260D01*
X124630738Y-53239766D01*
X124632734Y-53239635D01*
X124633845Y-53241298D01*
X124633118Y-53242975D01*
X124619080Y-53254495D01*
X124603785Y-53273132D01*
X124592420Y-53294396D01*
X124585420Y-53317471D01*
X124583057Y-53341462D01*
X124585420Y-53365453D01*
X124592420Y-53388528D01*
X124603785Y-53409792D01*
X124619080Y-53428429D01*
X124637717Y-53443724D01*
X124658981Y-53455089D01*
X124682056Y-53462089D01*
X124706243Y-53464471D01*
X124707869Y-53465636D01*
X124707673Y-53467626D01*
X124706047Y-53468461D01*
X123127233Y-53468461D01*
X123125501Y-53467461D01*
X123125501Y-53465461D01*
X123127037Y-53464471D01*
X123151224Y-53462089D01*
X123174299Y-53455089D01*
X123195563Y-53443724D01*
X123214200Y-53428429D01*
X123229495Y-53409792D01*
X123240860Y-53388528D01*
X123247860Y-53365453D01*
X123250223Y-53341462D01*
X123247860Y-53317471D01*
X123240860Y-53294396D01*
X123229495Y-53273132D01*
X123214200Y-53254495D01*
X123200162Y-53242975D01*
X123199458Y-53241103D01*
X123200726Y-53239557D01*
X123202542Y-53239766D01*
G37*
G36*
X114312542Y-53239766D02*
G01*
X114367160Y-53276260D01*
X114620533Y-53381210D01*
X114889517Y-53434715D01*
X115163763Y-53434715D01*
X115432747Y-53381210D01*
X115686120Y-53276260D01*
X115740738Y-53239766D01*
X115742734Y-53239635D01*
X115743845Y-53241298D01*
X115743118Y-53242975D01*
X115729080Y-53254495D01*
X115713785Y-53273132D01*
X115702420Y-53294396D01*
X115695420Y-53317471D01*
X115693057Y-53341462D01*
X115695420Y-53365453D01*
X115702420Y-53388528D01*
X115713785Y-53409792D01*
X115729080Y-53428429D01*
X115747717Y-53443724D01*
X115768981Y-53455089D01*
X115792056Y-53462089D01*
X115816243Y-53464471D01*
X115817869Y-53465636D01*
X115817673Y-53467626D01*
X115816047Y-53468461D01*
X114237233Y-53468461D01*
X114235501Y-53467461D01*
X114235501Y-53465461D01*
X114237037Y-53464471D01*
X114261224Y-53462089D01*
X114284299Y-53455089D01*
X114305563Y-53443724D01*
X114324200Y-53428429D01*
X114339495Y-53409792D01*
X114350860Y-53388528D01*
X114357860Y-53365453D01*
X114360223Y-53341462D01*
X114357860Y-53317471D01*
X114350860Y-53294396D01*
X114339495Y-53273132D01*
X114324200Y-53254495D01*
X114310162Y-53242975D01*
X114309458Y-53241103D01*
X114310726Y-53239557D01*
X114312542Y-53239766D01*
G37*
G36*
X110502542Y-53239766D02*
G01*
X110557160Y-53276260D01*
X110810533Y-53381210D01*
X111079517Y-53434715D01*
X111353763Y-53434715D01*
X111622747Y-53381210D01*
X111876120Y-53276260D01*
X111930738Y-53239766D01*
X111932734Y-53239635D01*
X111933845Y-53241298D01*
X111933118Y-53242975D01*
X111919080Y-53254495D01*
X111903785Y-53273132D01*
X111892420Y-53294396D01*
X111885420Y-53317471D01*
X111883057Y-53341462D01*
X111885420Y-53365453D01*
X111892420Y-53388528D01*
X111903785Y-53409792D01*
X111919080Y-53428429D01*
X111937717Y-53443724D01*
X111958981Y-53455089D01*
X111982056Y-53462089D01*
X112006243Y-53464471D01*
X112007869Y-53465636D01*
X112007673Y-53467626D01*
X112006047Y-53468461D01*
X110427233Y-53468461D01*
X110425501Y-53467461D01*
X110425501Y-53465461D01*
X110427037Y-53464471D01*
X110451224Y-53462089D01*
X110474299Y-53455089D01*
X110495563Y-53443724D01*
X110514200Y-53428429D01*
X110529495Y-53409792D01*
X110540860Y-53388528D01*
X110547860Y-53365453D01*
X110550223Y-53341462D01*
X110547860Y-53317471D01*
X110540860Y-53294396D01*
X110529495Y-53273132D01*
X110514200Y-53254495D01*
X110500162Y-53242975D01*
X110499458Y-53241103D01*
X110500726Y-53239557D01*
X110502542Y-53239766D01*
G37*
G36*
X119392542Y-53239766D02*
G01*
X119447160Y-53276260D01*
X119700533Y-53381210D01*
X119969517Y-53434715D01*
X120243763Y-53434715D01*
X120512747Y-53381210D01*
X120766120Y-53276260D01*
X120820738Y-53239766D01*
X120822734Y-53239635D01*
X120823845Y-53241298D01*
X120823118Y-53242975D01*
X120809080Y-53254495D01*
X120793785Y-53273132D01*
X120782420Y-53294396D01*
X120775420Y-53317471D01*
X120773057Y-53341462D01*
X120775420Y-53365453D01*
X120782420Y-53388528D01*
X120793785Y-53409792D01*
X120809080Y-53428429D01*
X120827717Y-53443724D01*
X120848981Y-53455089D01*
X120872056Y-53462089D01*
X120896243Y-53464471D01*
X120897869Y-53465636D01*
X120897673Y-53467626D01*
X120896047Y-53468461D01*
X119317233Y-53468461D01*
X119315501Y-53467461D01*
X119315501Y-53465461D01*
X119317037Y-53464471D01*
X119341224Y-53462089D01*
X119364299Y-53455089D01*
X119385563Y-53443724D01*
X119404200Y-53428429D01*
X119419495Y-53409792D01*
X119430860Y-53388528D01*
X119437860Y-53365453D01*
X119440223Y-53341462D01*
X119437860Y-53317471D01*
X119430860Y-53294396D01*
X119419495Y-53273132D01*
X119404200Y-53254495D01*
X119390162Y-53242975D01*
X119389458Y-53241103D01*
X119390726Y-53239557D01*
X119392542Y-53239766D01*
G37*
G36*
X112007779Y-50617461D02*
G01*
X112007779Y-50619461D01*
X112006243Y-50620451D01*
X111982056Y-50622833D01*
X111958981Y-50629833D01*
X111937717Y-50641198D01*
X111919080Y-50656493D01*
X111903785Y-50675130D01*
X111892420Y-50696394D01*
X111885420Y-50719469D01*
X111883057Y-50743460D01*
X111885420Y-50767451D01*
X111892420Y-50790526D01*
X111903785Y-50811790D01*
X111919080Y-50830427D01*
X111933118Y-50841947D01*
X111933822Y-50843819D01*
X111932554Y-50845365D01*
X111930738Y-50845156D01*
X111876120Y-50808662D01*
X111622747Y-50703712D01*
X111353763Y-50650207D01*
X111079517Y-50650207D01*
X110810533Y-50703712D01*
X110557160Y-50808662D01*
X110502542Y-50845156D01*
X110500546Y-50845287D01*
X110499435Y-50843624D01*
X110500162Y-50841947D01*
X110514200Y-50830427D01*
X110529495Y-50811790D01*
X110540860Y-50790526D01*
X110547860Y-50767451D01*
X110550223Y-50743460D01*
X110547860Y-50719469D01*
X110540860Y-50696394D01*
X110529495Y-50675130D01*
X110514200Y-50656493D01*
X110495563Y-50641198D01*
X110474299Y-50629833D01*
X110451224Y-50622833D01*
X110427037Y-50620451D01*
X110425411Y-50619286D01*
X110425607Y-50617296D01*
X110427233Y-50616461D01*
X112006047Y-50616461D01*
X112007779Y-50617461D01*
G37*
G36*
X124707779Y-50617461D02*
G01*
X124707779Y-50619461D01*
X124706243Y-50620451D01*
X124682056Y-50622833D01*
X124658981Y-50629833D01*
X124637717Y-50641198D01*
X124619080Y-50656493D01*
X124603785Y-50675130D01*
X124592420Y-50696394D01*
X124585420Y-50719469D01*
X124583057Y-50743460D01*
X124585420Y-50767451D01*
X124592420Y-50790526D01*
X124603785Y-50811790D01*
X124619080Y-50830427D01*
X124633118Y-50841947D01*
X124633822Y-50843819D01*
X124632554Y-50845365D01*
X124630738Y-50845156D01*
X124576120Y-50808662D01*
X124322747Y-50703712D01*
X124053763Y-50650207D01*
X123779517Y-50650207D01*
X123510533Y-50703712D01*
X123257160Y-50808662D01*
X123202542Y-50845156D01*
X123200546Y-50845287D01*
X123199435Y-50843624D01*
X123200162Y-50841947D01*
X123214200Y-50830427D01*
X123229495Y-50811790D01*
X123240860Y-50790526D01*
X123247860Y-50767451D01*
X123250223Y-50743460D01*
X123247860Y-50719469D01*
X123240860Y-50696394D01*
X123229495Y-50675130D01*
X123214200Y-50656493D01*
X123195563Y-50641198D01*
X123174299Y-50629833D01*
X123151224Y-50622833D01*
X123127037Y-50620451D01*
X123125411Y-50619286D01*
X123125607Y-50617296D01*
X123127233Y-50616461D01*
X124706047Y-50616461D01*
X124707779Y-50617461D01*
G37*
G36*
X120897779Y-50617461D02*
G01*
X120897779Y-50619461D01*
X120896243Y-50620451D01*
X120872056Y-50622833D01*
X120848981Y-50629833D01*
X120827717Y-50641198D01*
X120809080Y-50656493D01*
X120793785Y-50675130D01*
X120782420Y-50696394D01*
X120775420Y-50719469D01*
X120773057Y-50743460D01*
X120775420Y-50767451D01*
X120782420Y-50790526D01*
X120793785Y-50811790D01*
X120809080Y-50830427D01*
X120823118Y-50841947D01*
X120823822Y-50843819D01*
X120822554Y-50845365D01*
X120820738Y-50845156D01*
X120766120Y-50808662D01*
X120512747Y-50703712D01*
X120243763Y-50650207D01*
X119969517Y-50650207D01*
X119700533Y-50703712D01*
X119447160Y-50808662D01*
X119392542Y-50845156D01*
X119390546Y-50845287D01*
X119389435Y-50843624D01*
X119390162Y-50841947D01*
X119404200Y-50830427D01*
X119419495Y-50811790D01*
X119430860Y-50790526D01*
X119437860Y-50767451D01*
X119440223Y-50743460D01*
X119437860Y-50719469D01*
X119430860Y-50696394D01*
X119419495Y-50675130D01*
X119404200Y-50656493D01*
X119385563Y-50641198D01*
X119364299Y-50629833D01*
X119341224Y-50622833D01*
X119317037Y-50620451D01*
X119315411Y-50619286D01*
X119315607Y-50617296D01*
X119317233Y-50616461D01*
X120896047Y-50616461D01*
X120897779Y-50617461D01*
G37*
G36*
X115817779Y-50617461D02*
G01*
X115817779Y-50619461D01*
X115816243Y-50620451D01*
X115792056Y-50622833D01*
X115768981Y-50629833D01*
X115747717Y-50641198D01*
X115729080Y-50656493D01*
X115713785Y-50675130D01*
X115702420Y-50696394D01*
X115695420Y-50719469D01*
X115693057Y-50743460D01*
X115695420Y-50767451D01*
X115702420Y-50790526D01*
X115713785Y-50811790D01*
X115729080Y-50830427D01*
X115743118Y-50841947D01*
X115743822Y-50843819D01*
X115742554Y-50845365D01*
X115740738Y-50845156D01*
X115686120Y-50808662D01*
X115432747Y-50703712D01*
X115163763Y-50650207D01*
X114889517Y-50650207D01*
X114620533Y-50703712D01*
X114367160Y-50808662D01*
X114312542Y-50845156D01*
X114310546Y-50845287D01*
X114309435Y-50843624D01*
X114310162Y-50841947D01*
X114324200Y-50830427D01*
X114339495Y-50811790D01*
X114350860Y-50790526D01*
X114357860Y-50767451D01*
X114360223Y-50743460D01*
X114357860Y-50719469D01*
X114350860Y-50696394D01*
X114339495Y-50675130D01*
X114324200Y-50656493D01*
X114305563Y-50641198D01*
X114284299Y-50629833D01*
X114261224Y-50622833D01*
X114237037Y-50620451D01*
X114235411Y-50619286D01*
X114235607Y-50617296D01*
X114237233Y-50616461D01*
X115816047Y-50616461D01*
X115817779Y-50617461D01*
G37*
M02*
