G04 #@! TF.GenerationSoftware,KiCad,Pcbnew,5.1.10-88a1d61d58~88~ubuntu20.04.1*
G04 #@! TF.CreationDate,2021-07-01T12:33:08+02:00*
G04 #@! TF.ProjectId,chamber-board,6368616d-6265-4722-9d62-6f6172642e6b,rev?*
G04 #@! TF.SameCoordinates,Original*
G04 #@! TF.FileFunction,Paste,Bot*
G04 #@! TF.FilePolarity,Positive*
%FSLAX46Y46*%
G04 Gerber Fmt 4.6, Leading zero omitted, Abs format (unit mm)*
G04 Created by KiCad (PCBNEW 5.1.10-88a1d61d58~88~ubuntu20.04.1) date 2021-07-01 12:33:08*
%MOMM*%
%LPD*%
G01*
G04 APERTURE LIST*
%ADD10R,5.000000X5.000000*%
%ADD11R,0.900000X2.000000*%
%ADD12R,2.000000X0.900000*%
%ADD13R,7.875000X2.000000*%
%ADD14R,2.700000X3.500000*%
%ADD15R,1.500000X1.050000*%
%ADD16R,0.800000X0.900000*%
%ADD17R,0.900000X0.800000*%
G04 APERTURE END LIST*
D10*
X163075000Y-74565000D03*
D11*
X155575000Y-67065000D03*
X156845000Y-67065000D03*
X158115000Y-67065000D03*
X159385000Y-67065000D03*
X160655000Y-67065000D03*
X161925000Y-67065000D03*
X163195000Y-67065000D03*
X164465000Y-67065000D03*
X165735000Y-67065000D03*
X167005000Y-67065000D03*
X168275000Y-67065000D03*
X169545000Y-67065000D03*
X170815000Y-67065000D03*
X172085000Y-67065000D03*
D12*
X173085000Y-69850000D03*
X173085000Y-71120000D03*
X173085000Y-72390000D03*
X173085000Y-73660000D03*
X173085000Y-74930000D03*
X173085000Y-76200000D03*
X173085000Y-77470000D03*
X173085000Y-78740000D03*
X173085000Y-80010000D03*
X173085000Y-81280000D03*
D11*
X172085000Y-84065000D03*
X170815000Y-84065000D03*
X169545000Y-84065000D03*
X168275000Y-84065000D03*
X167005000Y-84065000D03*
X165735000Y-84065000D03*
X164465000Y-84065000D03*
X163195000Y-84065000D03*
X161925000Y-84065000D03*
X160655000Y-84065000D03*
X159385000Y-84065000D03*
X158115000Y-84065000D03*
X156845000Y-84065000D03*
X155575000Y-84065000D03*
G36*
G01*
X131394000Y-92513999D02*
X131394000Y-93414001D01*
G75*
G02*
X131144001Y-93664000I-249999J0D01*
G01*
X130493999Y-93664000D01*
G75*
G02*
X130244000Y-93414001I0J249999D01*
G01*
X130244000Y-92513999D01*
G75*
G02*
X130493999Y-92264000I249999J0D01*
G01*
X131144001Y-92264000D01*
G75*
G02*
X131394000Y-92513999I0J-249999D01*
G01*
G37*
G36*
G01*
X129344000Y-92513999D02*
X129344000Y-93414001D01*
G75*
G02*
X129094001Y-93664000I-249999J0D01*
G01*
X128443999Y-93664000D01*
G75*
G02*
X128194000Y-93414001I0J249999D01*
G01*
X128194000Y-92513999D01*
G75*
G02*
X128443999Y-92264000I249999J0D01*
G01*
X129094001Y-92264000D01*
G75*
G02*
X129344000Y-92513999I0J-249999D01*
G01*
G37*
G36*
G01*
X126180000Y-93414001D02*
X126180000Y-92513999D01*
G75*
G02*
X126429999Y-92264000I249999J0D01*
G01*
X127080001Y-92264000D01*
G75*
G02*
X127330000Y-92513999I0J-249999D01*
G01*
X127330000Y-93414001D01*
G75*
G02*
X127080001Y-93664000I-249999J0D01*
G01*
X126429999Y-93664000D01*
G75*
G02*
X126180000Y-93414001I0J249999D01*
G01*
G37*
G36*
G01*
X124130000Y-93414001D02*
X124130000Y-92513999D01*
G75*
G02*
X124379999Y-92264000I249999J0D01*
G01*
X125030001Y-92264000D01*
G75*
G02*
X125280000Y-92513999I0J-249999D01*
G01*
X125280000Y-93414001D01*
G75*
G02*
X125030001Y-93664000I-249999J0D01*
G01*
X124379999Y-93664000D01*
G75*
G02*
X124130000Y-93414001I0J249999D01*
G01*
G37*
G36*
G01*
X113970000Y-95700001D02*
X113970000Y-94799999D01*
G75*
G02*
X114219999Y-94550000I249999J0D01*
G01*
X114870001Y-94550000D01*
G75*
G02*
X115120000Y-94799999I0J-249999D01*
G01*
X115120000Y-95700001D01*
G75*
G02*
X114870001Y-95950000I-249999J0D01*
G01*
X114219999Y-95950000D01*
G75*
G02*
X113970000Y-95700001I0J249999D01*
G01*
G37*
G36*
G01*
X116020000Y-95700001D02*
X116020000Y-94799999D01*
G75*
G02*
X116269999Y-94550000I249999J0D01*
G01*
X116920001Y-94550000D01*
G75*
G02*
X117170000Y-94799999I0J-249999D01*
G01*
X117170000Y-95700001D01*
G75*
G02*
X116920001Y-95950000I-249999J0D01*
G01*
X116269999Y-95950000D01*
G75*
G02*
X116020000Y-95700001I0J249999D01*
G01*
G37*
G36*
G01*
X155379000Y-63684999D02*
X155379000Y-64585001D01*
G75*
G02*
X155129001Y-64835000I-249999J0D01*
G01*
X154478999Y-64835000D01*
G75*
G02*
X154229000Y-64585001I0J249999D01*
G01*
X154229000Y-63684999D01*
G75*
G02*
X154478999Y-63435000I249999J0D01*
G01*
X155129001Y-63435000D01*
G75*
G02*
X155379000Y-63684999I0J-249999D01*
G01*
G37*
G36*
G01*
X157429000Y-63684999D02*
X157429000Y-64585001D01*
G75*
G02*
X157179001Y-64835000I-249999J0D01*
G01*
X156528999Y-64835000D01*
G75*
G02*
X156279000Y-64585001I0J249999D01*
G01*
X156279000Y-63684999D01*
G75*
G02*
X156528999Y-63435000I249999J0D01*
G01*
X157179001Y-63435000D01*
G75*
G02*
X157429000Y-63684999I0J-249999D01*
G01*
G37*
G36*
G01*
X157429000Y-61398999D02*
X157429000Y-62299001D01*
G75*
G02*
X157179001Y-62549000I-249999J0D01*
G01*
X156528999Y-62549000D01*
G75*
G02*
X156279000Y-62299001I0J249999D01*
G01*
X156279000Y-61398999D01*
G75*
G02*
X156528999Y-61149000I249999J0D01*
G01*
X157179001Y-61149000D01*
G75*
G02*
X157429000Y-61398999I0J-249999D01*
G01*
G37*
G36*
G01*
X155379000Y-61398999D02*
X155379000Y-62299001D01*
G75*
G02*
X155129001Y-62549000I-249999J0D01*
G01*
X154478999Y-62549000D01*
G75*
G02*
X154229000Y-62299001I0J249999D01*
G01*
X154229000Y-61398999D01*
G75*
G02*
X154478999Y-61149000I249999J0D01*
G01*
X155129001Y-61149000D01*
G75*
G02*
X155379000Y-61398999I0J-249999D01*
G01*
G37*
G36*
G01*
X198570000Y-84905001D02*
X198570000Y-84004999D01*
G75*
G02*
X198819999Y-83755000I249999J0D01*
G01*
X199470001Y-83755000D01*
G75*
G02*
X199720000Y-84004999I0J-249999D01*
G01*
X199720000Y-84905001D01*
G75*
G02*
X199470001Y-85155000I-249999J0D01*
G01*
X198819999Y-85155000D01*
G75*
G02*
X198570000Y-84905001I0J249999D01*
G01*
G37*
G36*
G01*
X196520000Y-84905001D02*
X196520000Y-84004999D01*
G75*
G02*
X196769999Y-83755000I249999J0D01*
G01*
X197420001Y-83755000D01*
G75*
G02*
X197670000Y-84004999I0J-249999D01*
G01*
X197670000Y-84905001D01*
G75*
G02*
X197420001Y-85155000I-249999J0D01*
G01*
X196769999Y-85155000D01*
G75*
G02*
X196520000Y-84905001I0J249999D01*
G01*
G37*
G36*
G01*
X196520000Y-87445001D02*
X196520000Y-86544999D01*
G75*
G02*
X196769999Y-86295000I249999J0D01*
G01*
X197420001Y-86295000D01*
G75*
G02*
X197670000Y-86544999I0J-249999D01*
G01*
X197670000Y-87445001D01*
G75*
G02*
X197420001Y-87695000I-249999J0D01*
G01*
X196769999Y-87695000D01*
G75*
G02*
X196520000Y-87445001I0J249999D01*
G01*
G37*
G36*
G01*
X198570000Y-87445001D02*
X198570000Y-86544999D01*
G75*
G02*
X198819999Y-86295000I249999J0D01*
G01*
X199470001Y-86295000D01*
G75*
G02*
X199720000Y-86544999I0J-249999D01*
G01*
X199720000Y-87445001D01*
G75*
G02*
X199470001Y-87695000I-249999J0D01*
G01*
X198819999Y-87695000D01*
G75*
G02*
X198570000Y-87445001I0J249999D01*
G01*
G37*
G36*
G01*
X198570000Y-77285001D02*
X198570000Y-76384999D01*
G75*
G02*
X198819999Y-76135000I249999J0D01*
G01*
X199470001Y-76135000D01*
G75*
G02*
X199720000Y-76384999I0J-249999D01*
G01*
X199720000Y-77285001D01*
G75*
G02*
X199470001Y-77535000I-249999J0D01*
G01*
X198819999Y-77535000D01*
G75*
G02*
X198570000Y-77285001I0J249999D01*
G01*
G37*
G36*
G01*
X196520000Y-77285001D02*
X196520000Y-76384999D01*
G75*
G02*
X196769999Y-76135000I249999J0D01*
G01*
X197420001Y-76135000D01*
G75*
G02*
X197670000Y-76384999I0J-249999D01*
G01*
X197670000Y-77285001D01*
G75*
G02*
X197420001Y-77535000I-249999J0D01*
G01*
X196769999Y-77535000D01*
G75*
G02*
X196520000Y-77285001I0J249999D01*
G01*
G37*
G36*
G01*
X196520000Y-79825001D02*
X196520000Y-78924999D01*
G75*
G02*
X196769999Y-78675000I249999J0D01*
G01*
X197420001Y-78675000D01*
G75*
G02*
X197670000Y-78924999I0J-249999D01*
G01*
X197670000Y-79825001D01*
G75*
G02*
X197420001Y-80075000I-249999J0D01*
G01*
X196769999Y-80075000D01*
G75*
G02*
X196520000Y-79825001I0J249999D01*
G01*
G37*
G36*
G01*
X198570000Y-79825001D02*
X198570000Y-78924999D01*
G75*
G02*
X198819999Y-78675000I249999J0D01*
G01*
X199470001Y-78675000D01*
G75*
G02*
X199720000Y-78924999I0J-249999D01*
G01*
X199720000Y-79825001D01*
G75*
G02*
X199470001Y-80075000I-249999J0D01*
G01*
X198819999Y-80075000D01*
G75*
G02*
X198570000Y-79825001I0J249999D01*
G01*
G37*
D13*
X133699500Y-89154000D03*
X121824500Y-89154000D03*
D14*
X191135000Y-71980000D03*
X191135000Y-65180000D03*
X196215000Y-65180000D03*
X196215000Y-71980000D03*
X186055000Y-65180000D03*
X186055000Y-71980000D03*
G36*
G01*
X111425000Y-100510000D02*
X111425000Y-97610000D01*
G75*
G02*
X111675000Y-97360000I250000J0D01*
G01*
X112475000Y-97360000D01*
G75*
G02*
X112725000Y-97610000I0J-250000D01*
G01*
X112725000Y-100510000D01*
G75*
G02*
X112475000Y-100760000I-250000J0D01*
G01*
X111675000Y-100760000D01*
G75*
G02*
X111425000Y-100510000I0J250000D01*
G01*
G37*
G36*
G01*
X115875000Y-100510000D02*
X115875000Y-97610000D01*
G75*
G02*
X116125000Y-97360000I250000J0D01*
G01*
X116925000Y-97360000D01*
G75*
G02*
X117175000Y-97610000I0J-250000D01*
G01*
X117175000Y-100510000D01*
G75*
G02*
X116925000Y-100760000I-250000J0D01*
G01*
X116125000Y-100760000D01*
G75*
G02*
X115875000Y-100510000I0J250000D01*
G01*
G37*
D15*
X123916640Y-50042461D03*
X123916640Y-54042461D03*
X115026640Y-54042461D03*
X115026640Y-50042461D03*
X120106640Y-50042461D03*
X120106640Y-54042461D03*
X111216640Y-54042461D03*
X111216640Y-50042461D03*
G36*
G01*
X124354000Y-74145000D02*
X124354000Y-74445000D01*
G75*
G02*
X124204000Y-74595000I-150000J0D01*
G01*
X122554000Y-74595000D01*
G75*
G02*
X122404000Y-74445000I0J150000D01*
G01*
X122404000Y-74145000D01*
G75*
G02*
X122554000Y-73995000I150000J0D01*
G01*
X124204000Y-73995000D01*
G75*
G02*
X124354000Y-74145000I0J-150000D01*
G01*
G37*
G36*
G01*
X124354000Y-75415000D02*
X124354000Y-75715000D01*
G75*
G02*
X124204000Y-75865000I-150000J0D01*
G01*
X122554000Y-75865000D01*
G75*
G02*
X122404000Y-75715000I0J150000D01*
G01*
X122404000Y-75415000D01*
G75*
G02*
X122554000Y-75265000I150000J0D01*
G01*
X124204000Y-75265000D01*
G75*
G02*
X124354000Y-75415000I0J-150000D01*
G01*
G37*
G36*
G01*
X124354000Y-76685000D02*
X124354000Y-76985000D01*
G75*
G02*
X124204000Y-77135000I-150000J0D01*
G01*
X122554000Y-77135000D01*
G75*
G02*
X122404000Y-76985000I0J150000D01*
G01*
X122404000Y-76685000D01*
G75*
G02*
X122554000Y-76535000I150000J0D01*
G01*
X124204000Y-76535000D01*
G75*
G02*
X124354000Y-76685000I0J-150000D01*
G01*
G37*
G36*
G01*
X124354000Y-77955000D02*
X124354000Y-78255000D01*
G75*
G02*
X124204000Y-78405000I-150000J0D01*
G01*
X122554000Y-78405000D01*
G75*
G02*
X122404000Y-78255000I0J150000D01*
G01*
X122404000Y-77955000D01*
G75*
G02*
X122554000Y-77805000I150000J0D01*
G01*
X124204000Y-77805000D01*
G75*
G02*
X124354000Y-77955000I0J-150000D01*
G01*
G37*
G36*
G01*
X124354000Y-79225000D02*
X124354000Y-79525000D01*
G75*
G02*
X124204000Y-79675000I-150000J0D01*
G01*
X122554000Y-79675000D01*
G75*
G02*
X122404000Y-79525000I0J150000D01*
G01*
X122404000Y-79225000D01*
G75*
G02*
X122554000Y-79075000I150000J0D01*
G01*
X124204000Y-79075000D01*
G75*
G02*
X124354000Y-79225000I0J-150000D01*
G01*
G37*
G36*
G01*
X124354000Y-80495000D02*
X124354000Y-80795000D01*
G75*
G02*
X124204000Y-80945000I-150000J0D01*
G01*
X122554000Y-80945000D01*
G75*
G02*
X122404000Y-80795000I0J150000D01*
G01*
X122404000Y-80495000D01*
G75*
G02*
X122554000Y-80345000I150000J0D01*
G01*
X124204000Y-80345000D01*
G75*
G02*
X124354000Y-80495000I0J-150000D01*
G01*
G37*
G36*
G01*
X124354000Y-81765000D02*
X124354000Y-82065000D01*
G75*
G02*
X124204000Y-82215000I-150000J0D01*
G01*
X122554000Y-82215000D01*
G75*
G02*
X122404000Y-82065000I0J150000D01*
G01*
X122404000Y-81765000D01*
G75*
G02*
X122554000Y-81615000I150000J0D01*
G01*
X124204000Y-81615000D01*
G75*
G02*
X124354000Y-81765000I0J-150000D01*
G01*
G37*
G36*
G01*
X124354000Y-83035000D02*
X124354000Y-83335000D01*
G75*
G02*
X124204000Y-83485000I-150000J0D01*
G01*
X122554000Y-83485000D01*
G75*
G02*
X122404000Y-83335000I0J150000D01*
G01*
X122404000Y-83035000D01*
G75*
G02*
X122554000Y-82885000I150000J0D01*
G01*
X124204000Y-82885000D01*
G75*
G02*
X124354000Y-83035000I0J-150000D01*
G01*
G37*
G36*
G01*
X119404000Y-83035000D02*
X119404000Y-83335000D01*
G75*
G02*
X119254000Y-83485000I-150000J0D01*
G01*
X117604000Y-83485000D01*
G75*
G02*
X117454000Y-83335000I0J150000D01*
G01*
X117454000Y-83035000D01*
G75*
G02*
X117604000Y-82885000I150000J0D01*
G01*
X119254000Y-82885000D01*
G75*
G02*
X119404000Y-83035000I0J-150000D01*
G01*
G37*
G36*
G01*
X119404000Y-81765000D02*
X119404000Y-82065000D01*
G75*
G02*
X119254000Y-82215000I-150000J0D01*
G01*
X117604000Y-82215000D01*
G75*
G02*
X117454000Y-82065000I0J150000D01*
G01*
X117454000Y-81765000D01*
G75*
G02*
X117604000Y-81615000I150000J0D01*
G01*
X119254000Y-81615000D01*
G75*
G02*
X119404000Y-81765000I0J-150000D01*
G01*
G37*
G36*
G01*
X119404000Y-80495000D02*
X119404000Y-80795000D01*
G75*
G02*
X119254000Y-80945000I-150000J0D01*
G01*
X117604000Y-80945000D01*
G75*
G02*
X117454000Y-80795000I0J150000D01*
G01*
X117454000Y-80495000D01*
G75*
G02*
X117604000Y-80345000I150000J0D01*
G01*
X119254000Y-80345000D01*
G75*
G02*
X119404000Y-80495000I0J-150000D01*
G01*
G37*
G36*
G01*
X119404000Y-79225000D02*
X119404000Y-79525000D01*
G75*
G02*
X119254000Y-79675000I-150000J0D01*
G01*
X117604000Y-79675000D01*
G75*
G02*
X117454000Y-79525000I0J150000D01*
G01*
X117454000Y-79225000D01*
G75*
G02*
X117604000Y-79075000I150000J0D01*
G01*
X119254000Y-79075000D01*
G75*
G02*
X119404000Y-79225000I0J-150000D01*
G01*
G37*
G36*
G01*
X119404000Y-77955000D02*
X119404000Y-78255000D01*
G75*
G02*
X119254000Y-78405000I-150000J0D01*
G01*
X117604000Y-78405000D01*
G75*
G02*
X117454000Y-78255000I0J150000D01*
G01*
X117454000Y-77955000D01*
G75*
G02*
X117604000Y-77805000I150000J0D01*
G01*
X119254000Y-77805000D01*
G75*
G02*
X119404000Y-77955000I0J-150000D01*
G01*
G37*
G36*
G01*
X119404000Y-76685000D02*
X119404000Y-76985000D01*
G75*
G02*
X119254000Y-77135000I-150000J0D01*
G01*
X117604000Y-77135000D01*
G75*
G02*
X117454000Y-76985000I0J150000D01*
G01*
X117454000Y-76685000D01*
G75*
G02*
X117604000Y-76535000I150000J0D01*
G01*
X119254000Y-76535000D01*
G75*
G02*
X119404000Y-76685000I0J-150000D01*
G01*
G37*
G36*
G01*
X119404000Y-75415000D02*
X119404000Y-75715000D01*
G75*
G02*
X119254000Y-75865000I-150000J0D01*
G01*
X117604000Y-75865000D01*
G75*
G02*
X117454000Y-75715000I0J150000D01*
G01*
X117454000Y-75415000D01*
G75*
G02*
X117604000Y-75265000I150000J0D01*
G01*
X119254000Y-75265000D01*
G75*
G02*
X119404000Y-75415000I0J-150000D01*
G01*
G37*
G36*
G01*
X119404000Y-74145000D02*
X119404000Y-74445000D01*
G75*
G02*
X119254000Y-74595000I-150000J0D01*
G01*
X117604000Y-74595000D01*
G75*
G02*
X117454000Y-74445000I0J150000D01*
G01*
X117454000Y-74145000D01*
G75*
G02*
X117604000Y-73995000I150000J0D01*
G01*
X119254000Y-73995000D01*
G75*
G02*
X119404000Y-74145000I0J-150000D01*
G01*
G37*
D16*
X182372000Y-100949000D03*
X183322000Y-98949000D03*
X181422000Y-98949000D03*
X176342000Y-99076000D03*
X178242000Y-99076000D03*
X177292000Y-101076000D03*
X172212000Y-101076000D03*
X173162000Y-99076000D03*
X171262000Y-99076000D03*
X145354000Y-99076000D03*
X147254000Y-99076000D03*
X146304000Y-101076000D03*
X136144000Y-101076000D03*
X137094000Y-99076000D03*
X135194000Y-99076000D03*
X130114000Y-99076000D03*
X132014000Y-99076000D03*
X131064000Y-101076000D03*
X125984000Y-101076000D03*
X126934000Y-99076000D03*
X125034000Y-99076000D03*
D17*
X118126000Y-69530000D03*
X118126000Y-67630000D03*
X120126000Y-68580000D03*
X122444000Y-68580000D03*
X124444000Y-69530000D03*
X124444000Y-67630000D03*
D16*
X140274000Y-99076000D03*
X142174000Y-99076000D03*
X141224000Y-101076000D03*
G36*
G01*
X115627999Y-70046000D02*
X116528001Y-70046000D01*
G75*
G02*
X116778000Y-70295999I0J-249999D01*
G01*
X116778000Y-70946001D01*
G75*
G02*
X116528001Y-71196000I-249999J0D01*
G01*
X115627999Y-71196000D01*
G75*
G02*
X115378000Y-70946001I0J249999D01*
G01*
X115378000Y-70295999D01*
G75*
G02*
X115627999Y-70046000I249999J0D01*
G01*
G37*
G36*
G01*
X115627999Y-67996000D02*
X116528001Y-67996000D01*
G75*
G02*
X116778000Y-68245999I0J-249999D01*
G01*
X116778000Y-68896001D01*
G75*
G02*
X116528001Y-69146000I-249999J0D01*
G01*
X115627999Y-69146000D01*
G75*
G02*
X115378000Y-68896001I0J249999D01*
G01*
X115378000Y-68245999D01*
G75*
G02*
X115627999Y-67996000I249999J0D01*
G01*
G37*
G36*
G01*
X170612000Y-55060001D02*
X170612000Y-54159999D01*
G75*
G02*
X170861999Y-53910000I249999J0D01*
G01*
X171512001Y-53910000D01*
G75*
G02*
X171762000Y-54159999I0J-249999D01*
G01*
X171762000Y-55060001D01*
G75*
G02*
X171512001Y-55310000I-249999J0D01*
G01*
X170861999Y-55310000D01*
G75*
G02*
X170612000Y-55060001I0J249999D01*
G01*
G37*
G36*
G01*
X172662000Y-55060001D02*
X172662000Y-54159999D01*
G75*
G02*
X172911999Y-53910000I249999J0D01*
G01*
X173562001Y-53910000D01*
G75*
G02*
X173812000Y-54159999I0J-249999D01*
G01*
X173812000Y-55060001D01*
G75*
G02*
X173562001Y-55310000I-249999J0D01*
G01*
X172911999Y-55310000D01*
G75*
G02*
X172662000Y-55060001I0J249999D01*
G01*
G37*
G36*
G01*
X127185000Y-73844999D02*
X127185000Y-74745001D01*
G75*
G02*
X126935001Y-74995000I-249999J0D01*
G01*
X126284999Y-74995000D01*
G75*
G02*
X126035000Y-74745001I0J249999D01*
G01*
X126035000Y-73844999D01*
G75*
G02*
X126284999Y-73595000I249999J0D01*
G01*
X126935001Y-73595000D01*
G75*
G02*
X127185000Y-73844999I0J-249999D01*
G01*
G37*
G36*
G01*
X129235000Y-73844999D02*
X129235000Y-74745001D01*
G75*
G02*
X128985001Y-74995000I-249999J0D01*
G01*
X128334999Y-74995000D01*
G75*
G02*
X128085000Y-74745001I0J249999D01*
G01*
X128085000Y-73844999D01*
G75*
G02*
X128334999Y-73595000I249999J0D01*
G01*
X128985001Y-73595000D01*
G75*
G02*
X129235000Y-73844999I0J-249999D01*
G01*
G37*
G36*
G01*
X129235000Y-75876999D02*
X129235000Y-76777001D01*
G75*
G02*
X128985001Y-77027000I-249999J0D01*
G01*
X128334999Y-77027000D01*
G75*
G02*
X128085000Y-76777001I0J249999D01*
G01*
X128085000Y-75876999D01*
G75*
G02*
X128334999Y-75627000I249999J0D01*
G01*
X128985001Y-75627000D01*
G75*
G02*
X129235000Y-75876999I0J-249999D01*
G01*
G37*
G36*
G01*
X127185000Y-75876999D02*
X127185000Y-76777001D01*
G75*
G02*
X126935001Y-77027000I-249999J0D01*
G01*
X126284999Y-77027000D01*
G75*
G02*
X126035000Y-76777001I0J249999D01*
G01*
X126035000Y-75876999D01*
G75*
G02*
X126284999Y-75627000I249999J0D01*
G01*
X126935001Y-75627000D01*
G75*
G02*
X127185000Y-75876999I0J-249999D01*
G01*
G37*
G36*
G01*
X111944999Y-58235000D02*
X112845001Y-58235000D01*
G75*
G02*
X113095000Y-58484999I0J-249999D01*
G01*
X113095000Y-59135001D01*
G75*
G02*
X112845001Y-59385000I-249999J0D01*
G01*
X111944999Y-59385000D01*
G75*
G02*
X111695000Y-59135001I0J249999D01*
G01*
X111695000Y-58484999D01*
G75*
G02*
X111944999Y-58235000I249999J0D01*
G01*
G37*
G36*
G01*
X111944999Y-56185000D02*
X112845001Y-56185000D01*
G75*
G02*
X113095000Y-56434999I0J-249999D01*
G01*
X113095000Y-57085001D01*
G75*
G02*
X112845001Y-57335000I-249999J0D01*
G01*
X111944999Y-57335000D01*
G75*
G02*
X111695000Y-57085001I0J249999D01*
G01*
X111695000Y-56434999D01*
G75*
G02*
X111944999Y-56185000I249999J0D01*
G01*
G37*
G36*
G01*
X114611999Y-56185000D02*
X115512001Y-56185000D01*
G75*
G02*
X115762000Y-56434999I0J-249999D01*
G01*
X115762000Y-57085001D01*
G75*
G02*
X115512001Y-57335000I-249999J0D01*
G01*
X114611999Y-57335000D01*
G75*
G02*
X114362000Y-57085001I0J249999D01*
G01*
X114362000Y-56434999D01*
G75*
G02*
X114611999Y-56185000I249999J0D01*
G01*
G37*
G36*
G01*
X114611999Y-58235000D02*
X115512001Y-58235000D01*
G75*
G02*
X115762000Y-58484999I0J-249999D01*
G01*
X115762000Y-59135001D01*
G75*
G02*
X115512001Y-59385000I-249999J0D01*
G01*
X114611999Y-59385000D01*
G75*
G02*
X114362000Y-59135001I0J249999D01*
G01*
X114362000Y-58484999D01*
G75*
G02*
X114611999Y-58235000I249999J0D01*
G01*
G37*
G36*
G01*
X123501999Y-58235000D02*
X124402001Y-58235000D01*
G75*
G02*
X124652000Y-58484999I0J-249999D01*
G01*
X124652000Y-59135001D01*
G75*
G02*
X124402001Y-59385000I-249999J0D01*
G01*
X123501999Y-59385000D01*
G75*
G02*
X123252000Y-59135001I0J249999D01*
G01*
X123252000Y-58484999D01*
G75*
G02*
X123501999Y-58235000I249999J0D01*
G01*
G37*
G36*
G01*
X123501999Y-56185000D02*
X124402001Y-56185000D01*
G75*
G02*
X124652000Y-56434999I0J-249999D01*
G01*
X124652000Y-57085001D01*
G75*
G02*
X124402001Y-57335000I-249999J0D01*
G01*
X123501999Y-57335000D01*
G75*
G02*
X123252000Y-57085001I0J249999D01*
G01*
X123252000Y-56434999D01*
G75*
G02*
X123501999Y-56185000I249999J0D01*
G01*
G37*
G36*
G01*
X126295999Y-67996000D02*
X127196001Y-67996000D01*
G75*
G02*
X127446000Y-68245999I0J-249999D01*
G01*
X127446000Y-68896001D01*
G75*
G02*
X127196001Y-69146000I-249999J0D01*
G01*
X126295999Y-69146000D01*
G75*
G02*
X126046000Y-68896001I0J249999D01*
G01*
X126046000Y-68245999D01*
G75*
G02*
X126295999Y-67996000I249999J0D01*
G01*
G37*
G36*
G01*
X126295999Y-70046000D02*
X127196001Y-70046000D01*
G75*
G02*
X127446000Y-70295999I0J-249999D01*
G01*
X127446000Y-70946001D01*
G75*
G02*
X127196001Y-71196000I-249999J0D01*
G01*
X126295999Y-71196000D01*
G75*
G02*
X126046000Y-70946001I0J249999D01*
G01*
X126046000Y-70295999D01*
G75*
G02*
X126295999Y-70046000I249999J0D01*
G01*
G37*
G36*
G01*
X119691999Y-58235000D02*
X120592001Y-58235000D01*
G75*
G02*
X120842000Y-58484999I0J-249999D01*
G01*
X120842000Y-59135001D01*
G75*
G02*
X120592001Y-59385000I-249999J0D01*
G01*
X119691999Y-59385000D01*
G75*
G02*
X119442000Y-59135001I0J249999D01*
G01*
X119442000Y-58484999D01*
G75*
G02*
X119691999Y-58235000I249999J0D01*
G01*
G37*
G36*
G01*
X119691999Y-56185000D02*
X120592001Y-56185000D01*
G75*
G02*
X120842000Y-56434999I0J-249999D01*
G01*
X120842000Y-57085001D01*
G75*
G02*
X120592001Y-57335000I-249999J0D01*
G01*
X119691999Y-57335000D01*
G75*
G02*
X119442000Y-57085001I0J249999D01*
G01*
X119442000Y-56434999D01*
G75*
G02*
X119691999Y-56185000I249999J0D01*
G01*
G37*
G36*
G01*
X126295999Y-63170000D02*
X127196001Y-63170000D01*
G75*
G02*
X127446000Y-63419999I0J-249999D01*
G01*
X127446000Y-64070001D01*
G75*
G02*
X127196001Y-64320000I-249999J0D01*
G01*
X126295999Y-64320000D01*
G75*
G02*
X126046000Y-64070001I0J249999D01*
G01*
X126046000Y-63419999D01*
G75*
G02*
X126295999Y-63170000I249999J0D01*
G01*
G37*
G36*
G01*
X126295999Y-65220000D02*
X127196001Y-65220000D01*
G75*
G02*
X127446000Y-65469999I0J-249999D01*
G01*
X127446000Y-66120001D01*
G75*
G02*
X127196001Y-66370000I-249999J0D01*
G01*
X126295999Y-66370000D01*
G75*
G02*
X126046000Y-66120001I0J249999D01*
G01*
X126046000Y-65469999D01*
G75*
G02*
X126295999Y-65220000I249999J0D01*
G01*
G37*
G36*
G01*
X123501999Y-64458000D02*
X124402001Y-64458000D01*
G75*
G02*
X124652000Y-64707999I0J-249999D01*
G01*
X124652000Y-65358001D01*
G75*
G02*
X124402001Y-65608000I-249999J0D01*
G01*
X123501999Y-65608000D01*
G75*
G02*
X123252000Y-65358001I0J249999D01*
G01*
X123252000Y-64707999D01*
G75*
G02*
X123501999Y-64458000I249999J0D01*
G01*
G37*
G36*
G01*
X123501999Y-62408000D02*
X124402001Y-62408000D01*
G75*
G02*
X124652000Y-62657999I0J-249999D01*
G01*
X124652000Y-63308001D01*
G75*
G02*
X124402001Y-63558000I-249999J0D01*
G01*
X123501999Y-63558000D01*
G75*
G02*
X123252000Y-63308001I0J249999D01*
G01*
X123252000Y-62657999D01*
G75*
G02*
X123501999Y-62408000I249999J0D01*
G01*
G37*
G36*
G01*
X169748000Y-54159999D02*
X169748000Y-55060001D01*
G75*
G02*
X169498001Y-55310000I-249999J0D01*
G01*
X168847999Y-55310000D01*
G75*
G02*
X168598000Y-55060001I0J249999D01*
G01*
X168598000Y-54159999D01*
G75*
G02*
X168847999Y-53910000I249999J0D01*
G01*
X169498001Y-53910000D01*
G75*
G02*
X169748000Y-54159999I0J-249999D01*
G01*
G37*
G36*
G01*
X167698000Y-54159999D02*
X167698000Y-55060001D01*
G75*
G02*
X167448001Y-55310000I-249999J0D01*
G01*
X166797999Y-55310000D01*
G75*
G02*
X166548000Y-55060001I0J249999D01*
G01*
X166548000Y-54159999D01*
G75*
G02*
X166797999Y-53910000I249999J0D01*
G01*
X167448001Y-53910000D01*
G75*
G02*
X167698000Y-54159999I0J-249999D01*
G01*
G37*
M02*
